{"glyphs":{"0":{"ha":693,"x_min":84,"x_max":609,"o":"m 346 -14 q 84 300 84 -14 l 84 666 q 346 972 84 972 q 609 666 609 972 l 609 300 q 346 -14 609 -14 m 213 319 q 243 149 213 199 q 346 99 273 99 q 451 149 422 99 q 480 319 480 199 l 480 640 q 451 808 480 758 q 346 859 422 859 q 242 808 271 859 q 213 640 213 758 l 213 319 z "},"1":{"ha":465,"x_min":62,"x_max":354,"o":"m 227 0 l 227 814 l 62 692 l 62 833 l 227 959 l 354 959 l 354 0 l 227 0 z "},"2":{"ha":661,"x_min":75,"x_max":586,"o":"m 76 0 l 76 102 l 397 548 q 456 704 456 631 l 456 726 q 422 825 456 789 q 328 861 388 861 q 235 825 270 861 q 201 719 201 789 l 201 694 l 75 694 l 75 727 q 144 904 75 836 q 332 972 214 972 q 465 940 408 972 q 554 852 522 907 q 586 728 586 798 l 586 705 q 564 591 586 644 q 500 483 543 538 l 237 114 l 586 114 l 586 0 l 76 0 z "},"3":{"ha":690,"x_min":77,"x_max":608,"o":"m 339 -14 q 147 49 217 -14 q 77 221 77 111 l 77 245 l 201 245 l 201 227 q 238 130 201 164 q 339 96 275 96 q 444 138 406 96 q 481 250 481 179 l 481 282 q 442 398 481 357 q 331 439 403 439 l 281 439 l 281 552 l 330 552 q 429 591 393 552 q 465 696 465 631 l 465 722 q 431 823 465 785 q 336 861 396 861 q 241 827 275 861 q 208 732 208 792 l 208 709 l 87 709 l 87 734 q 155 909 87 845 q 340 972 222 972 q 524 907 457 972 q 591 730 591 841 l 591 703 q 560 585 591 636 q 473 509 529 534 q 574 425 540 483 q 608 285 608 366 l 608 254 q 573 111 608 171 q 478 19 538 52 q 339 -14 418 -14 z "},"4":{"ha":703,"x_min":58,"x_max":644,"o":"m 420 0 l 420 176 l 58 176 l 58 290 l 342 959 l 471 959 l 187 290 l 420 290 l 420 538 l 549 538 l 549 290 l 644 290 l 644 176 l 549 176 l 549 0 l 420 0 z "},"5":{"ha":677,"x_min":84,"x_max":594,"o":"m 336 -14 q 152 46 220 -14 q 84 213 84 106 l 84 232 l 205 232 l 205 222 q 239 130 205 163 q 336 98 274 98 q 468 263 468 98 l 468 347 q 336 513 468 513 q 210 426 241 513 l 99 426 l 99 959 l 578 959 l 578 845 l 213 845 l 213 568 q 276 610 239 595 q 358 625 313 625 q 534 555 475 625 q 594 354 594 484 l 594 255 q 526 57 594 127 q 336 -14 458 -14 z "},"6":{"ha":696,"x_min":75,"x_max":620,"o":"m 349 -14 q 149 59 222 -14 q 75 259 75 132 l 75 305 q 90 408 75 358 q 134 515 104 458 l 357 959 l 491 959 l 288 548 q 378 572 321 572 q 554 501 488 572 q 620 309 620 430 l 620 263 q 545 59 620 132 q 349 -14 469 -14 m 205 258 q 243 140 205 183 q 349 96 282 96 q 454 140 415 96 q 492 256 492 183 l 492 302 q 454 419 492 377 q 349 461 415 461 q 244 420 283 461 q 205 304 205 378 l 205 258 z "},"7":{"ha":610,"x_min":52,"x_max":559,"o":"m 125 0 l 435 845 l 52 845 l 52 959 l 559 959 l 559 845 l 254 0 l 125 0 z "},"8":{"ha":716,"x_min":84,"x_max":633,"o":"m 357 -14 q 215 20 277 -14 q 119 115 153 54 q 84 254 84 175 l 84 288 q 118 417 84 359 q 212 505 152 475 q 132 581 161 532 q 103 697 103 631 l 103 724 q 135 850 103 793 q 224 939 167 906 q 358 972 282 972 q 493 939 435 972 q 583 850 551 906 q 614 724 614 793 l 614 697 q 585 581 614 631 q 505 505 555 532 q 600 416 566 475 q 633 289 633 357 l 633 255 q 597 113 633 174 q 499 20 562 53 q 357 -14 437 -14 m 358 96 q 467 140 426 96 q 507 255 507 184 l 507 290 q 467 404 507 359 q 358 448 427 448 q 251 404 292 448 q 210 290 210 359 l 210 255 q 251 140 210 184 q 358 96 292 96 m 358 557 q 454 597 418 557 q 490 697 490 636 l 490 726 q 453 823 490 785 q 358 861 416 861 q 265 823 301 861 q 229 726 229 785 l 229 697 q 264 596 229 635 q 358 557 300 557 z "},"9":{"ha":696,"x_min":75,"x_max":620,"o":"m 206 0 l 410 410 q 369 393 393 400 q 317 385 345 385 q 142 457 209 385 q 75 648 75 529 l 75 694 q 152 899 75 826 q 349 972 229 972 q 547 899 475 972 q 620 699 620 826 l 620 652 q 606 552 620 601 q 562 444 591 503 l 340 0 l 206 0 m 203 655 q 243 538 203 581 q 349 496 282 496 q 453 538 415 496 q 491 654 491 579 l 491 701 q 453 818 491 774 q 349 861 415 861 q 243 819 282 861 q 203 701 203 776 l 203 655 z "},"\u0000":{"ha":0,"x_min":0,"x_max":0,"o":""},"\r":{"ha":307,"x_min":0,"x_max":0,"o":""}," ":{"ha":301,"x_min":0,"x_max":0,"o":""},"!":{"ha":335,"x_min":96,"x_max":240,"o":"m 121 289 l 98 959 l 240 959 l 217 289 l 121 289 m 96 0 l 96 146 l 240 146 l 240 0 l 96 0 z "},"\"":{"ha":461,"x_min":66,"x_max":395,"o":"m 66 608 l 66 959 l 182 959 l 182 608 l 66 608 m 281 608 l 281 959 l 395 959 l 395 608 l 281 608 z "},"#":{"ha":722,"x_min":31,"x_max":692,"o":"m 103 0 l 142 298 l 31 298 l 31 393 l 155 393 l 180 586 l 65 586 l 65 680 l 191 680 l 229 959 l 331 959 l 294 680 l 471 680 l 509 959 l 610 959 l 575 680 l 692 680 l 692 586 l 562 586 l 537 393 l 658 393 l 658 298 l 526 298 l 486 0 l 382 0 l 422 298 l 245 298 l 205 0 l 103 0 m 256 393 l 434 393 l 460 586 l 282 586 l 256 393 z "},"$":{"ha":655,"x_min":45,"x_max":590,"o":"m 269 -81 l 269 41 q 110 119 168 53 q 45 298 52 186 l 160 298 q 205 185 167 227 q 316 144 243 144 q 428 176 388 144 q 468 285 468 209 q 454 353 468 326 q 397 400 439 380 q 269 439 355 420 q 113 515 165 460 q 61 671 61 570 q 117 840 61 776 q 269 917 174 903 l 269 1029 l 370 1029 l 370 917 q 514 842 460 903 q 578 673 568 781 l 458 673 q 420 777 453 741 q 315 812 388 812 q 229 795 258 812 q 191 747 201 777 q 182 680 182 718 q 224 590 182 625 q 378 536 266 555 q 534 458 479 518 q 590 294 590 399 q 532 121 590 186 q 370 43 473 57 l 370 -81 l 269 -81 z "},"%":{"ha":1185,"x_min":57,"x_max":1130,"o":"m 232 369 q 99 420 141 369 q 57 575 57 472 l 57 769 q 232 968 57 968 q 365 919 323 968 q 407 769 407 869 l 407 575 q 365 420 407 472 q 232 369 323 369 m 954 -8 q 821 43 863 -8 q 780 197 780 94 l 780 392 q 954 590 780 590 q 1087 541 1044 590 q 1130 392 1130 492 l 1130 197 q 1087 43 1130 94 q 954 -8 1044 -8 m 279 0 l 803 962 l 907 962 l 382 0 l 279 0 m 168 581 q 182 491 168 518 q 232 464 195 464 q 283 490 270 464 q 296 581 296 517 l 296 758 q 282 846 296 821 q 232 872 269 872 q 182 846 195 872 q 168 758 168 821 l 168 581 m 891 202 q 904 113 891 140 q 954 87 917 87 q 1005 113 993 87 q 1017 202 1017 138 l 1017 381 q 1004 469 1017 444 q 954 495 990 495 q 904 469 917 495 q 891 381 891 444 l 891 202 z "},"&":{"ha":829,"x_min":75,"x_max":754,"o":"m 315 -14 q 138 54 201 -14 q 75 231 75 121 q 118 378 75 308 q 255 530 161 448 q 187 633 212 593 q 153 703 163 673 q 144 765 144 734 q 171 871 144 825 q 246 945 198 918 q 355 972 294 972 q 464 945 416 972 q 538 872 511 918 q 566 768 566 826 q 551 686 566 724 q 501 608 536 648 q 406 514 467 567 l 560 296 l 658 425 l 739 354 l 625 205 l 666 146 q 722 110 693 110 l 754 110 l 754 0 l 700 0 q 655 6 675 0 q 611 35 635 12 q 552 111 587 58 q 441 16 499 45 q 315 -14 384 -14 m 193 237 q 228 132 193 171 q 324 94 263 94 q 405 117 368 94 q 488 201 442 141 l 319 441 q 222 334 252 382 q 193 237 193 286 m 342 602 q 430 695 408 661 q 452 770 452 730 q 425 844 452 817 q 355 872 399 872 q 286 844 313 872 q 259 769 259 815 q 266 729 259 749 q 290 680 273 709 q 342 602 308 651 z "},"'":{"ha":248,"x_min":66,"x_max":182,"o":"m 66 608 l 66 959 l 182 959 l 182 608 l 66 608 z "},"(":{"ha":410,"x_min":75,"x_max":334,"o":"m 244 -117 q 75 456 75 155 q 245 1028 75 762 l 334 1028 q 231 747 266 892 q 197 456 197 601 q 232 163 197 309 q 334 -117 267 16 l 244 -117 z "},")":{"ha":410,"x_min":75,"x_max":334,"o":"m 75 -117 q 178 163 142 16 q 214 456 214 311 q 179 747 214 601 q 75 1028 144 892 l 164 1028 q 334 456 334 766 q 292 162 334 305 q 165 -117 251 19 l 75 -117 z "},"*":{"ha":524,"x_min":75,"x_max":449,"o":"m 225 564 l 225 705 l 110 639 l 75 697 l 194 765 l 75 833 l 110 891 l 225 825 l 225 959 l 298 959 l 298 823 l 415 891 l 448 833 l 330 765 l 449 697 l 415 639 l 298 705 l 298 564 l 225 564 z "},"+":{"ha":719,"x_min":75,"x_max":644,"o":"m 302 99 l 302 327 l 75 327 l 75 439 l 302 439 l 302 667 l 416 667 l 416 439 l 644 439 l 644 327 l 416 327 l 416 99 l 302 99 z "},",":{"ha":248,"x_min":66,"x_max":182,"o":"m 66 -202 l 66 149 l 182 149 l 182 -99 l 66 -202 z "},"-":{"ha":545,"x_min":81,"x_max":464,"o":"m 81 425 l 81 538 l 464 538 l 464 425 l 81 425 z "},".":{"ha":278,"x_min":66,"x_max":212,"o":"m 66 0 l 66 151 l 212 151 l 212 0 l 66 0 z "},"/":{"ha":549,"x_min":75,"x_max":475,"o":"m 75 -14 l 372 962 l 475 962 l 179 -14 l 75 -14 z "},":":{"ha":278,"x_min":66,"x_max":212,"o":"m 66 0 l 66 151 l 212 151 l 212 0 l 66 0 m 66 469 l 66 620 l 212 620 l 212 469 l 66 469 z "},";":{"ha":278,"x_min":66,"x_max":212,"o":"m 96 -202 l 96 149 l 212 149 l 212 -99 l 96 -202 m 66 469 l 66 620 l 212 620 l 212 469 l 66 469 z "},"<":{"ha":719,"x_min":75,"x_max":644,"o":"m 644 102 l 75 332 l 75 434 l 644 662 l 644 544 l 233 382 l 644 222 l 644 102 z "},"=":{"ha":719,"x_min":75,"x_max":644,"o":"m 75 463 l 75 578 l 644 578 l 644 463 l 75 463 m 75 190 l 75 302 l 644 302 l 644 190 l 75 190 z "},">":{"ha":719,"x_min":75,"x_max":644,"o":"m 75 102 l 75 222 l 487 382 l 75 544 l 75 662 l 644 434 l 644 332 l 75 102 z "},"?":{"ha":605,"x_min":47,"x_max":547,"o":"m 232 254 l 232 332 q 241 416 232 385 q 285 491 251 448 l 361 591 q 407 668 395 637 q 419 734 419 699 q 388 826 419 793 q 294 859 357 859 q 171 722 174 859 l 47 722 q 115 907 50 842 q 298 972 179 972 q 479 906 412 972 q 547 735 547 840 q 530 644 547 685 q 476 551 513 602 l 396 439 q 365 387 373 410 q 357 328 357 363 l 357 254 l 232 254 m 222 0 l 222 144 l 366 144 l 366 0 l 222 0 z "},"@":{"ha":1210,"x_min":75,"x_max":1137,"o":"m 605 -182 q 330 -115 450 -182 q 142 71 210 -47 q 75 345 75 190 l 75 441 q 142 713 75 595 q 330 897 210 830 q 605 963 450 963 q 816 925 719 963 q 985 817 913 887 q 1097 653 1057 747 q 1137 445 1137 559 l 1137 350 q 1076 145 1137 214 q 918 76 1015 76 q 817 102 860 76 q 753 172 774 127 q 575 76 709 76 q 417 141 468 76 q 366 328 366 206 l 366 444 q 416 630 366 564 q 570 696 467 696 q 722 621 677 696 l 722 682 l 831 682 l 831 282 q 857 200 831 228 q 920 172 882 172 q 994 213 970 172 q 1019 349 1019 254 l 1019 444 q 968 661 1019 568 q 824 805 917 754 q 605 856 731 856 q 387 805 480 856 q 243 662 294 754 q 193 444 193 570 l 193 345 q 243 125 193 220 q 386 -23 293 30 q 605 -76 479 -76 q 764 -58 694 -76 q 901 -4 833 -41 l 944 -96 q 786 -161 867 -141 q 605 -182 705 -182 m 483 336 q 511 216 483 258 q 601 175 538 175 q 718 330 718 175 l 718 445 q 601 600 718 600 q 483 442 483 600 l 483 336 z "},"A":{"ha":814,"x_min":8,"x_max":807,"o":"m 8 0 l 354 959 l 461 959 l 807 0 l 671 0 l 597 216 l 216 216 l 144 0 l 8 0 m 252 323 l 562 323 l 407 780 l 252 323 z "},"B":{"ha":845,"x_min":102,"x_max":761,"o":"m 102 0 l 102 959 l 458 959 q 671 891 595 959 q 747 701 747 823 q 710 574 747 631 q 608 494 673 518 q 722 409 684 468 q 761 267 761 350 q 683 71 761 141 q 469 0 605 0 l 102 0 m 231 114 l 456 114 q 587 155 541 114 q 632 275 632 197 q 587 392 632 351 q 456 433 541 433 l 231 433 l 231 114 m 231 545 l 448 545 q 573 583 528 545 q 618 693 618 620 q 574 807 618 769 q 448 845 530 845 l 231 845 l 231 545 z "},"C":{"ha":842,"x_min":84,"x_max":758,"o":"m 425 -11 q 174 79 264 -11 q 84 361 84 170 l 84 600 q 174 881 84 791 q 426 971 264 971 q 601 935 526 971 q 717 831 675 898 q 758 674 758 764 l 758 669 l 629 669 l 629 674 q 575 808 629 758 q 426 857 521 857 q 266 795 319 857 q 213 593 213 734 l 213 358 q 427 104 213 104 q 576 153 522 104 q 629 281 629 202 l 629 288 l 755 288 l 755 281 q 669 69 755 149 q 425 -11 582 -11 z "},"D":{"ha":852,"x_min":102,"x_max":768,"o":"m 102 0 l 102 959 l 433 959 q 678 871 589 959 q 768 587 768 783 l 768 372 q 677 88 768 176 q 431 0 586 0 l 102 0 m 231 114 l 433 114 q 640 369 640 114 l 640 581 q 587 782 640 719 q 433 845 534 845 l 231 845 l 231 114 z "},"E":{"ha":753,"x_min":102,"x_max":692,"o":"m 102 0 l 102 959 l 692 959 l 692 845 l 231 845 l 231 543 l 625 543 l 625 430 l 231 430 l 231 114 l 692 114 l 692 0 l 102 0 z "},"F":{"ha":742,"x_min":102,"x_max":692,"o":"m 102 0 l 102 959 l 692 959 l 692 845 l 231 845 l 231 538 l 625 538 l 625 425 l 231 425 l 231 0 l 102 0 z "},"G":{"ha":842,"x_min":84,"x_max":758,"o":"m 423 -11 q 174 79 263 -11 q 84 361 84 170 l 84 600 q 174 881 84 791 q 425 971 264 971 q 600 935 525 971 q 715 831 674 898 q 757 674 757 764 l 757 667 l 628 667 l 628 674 q 574 807 628 757 q 425 857 519 857 q 265 795 317 857 q 213 593 213 732 l 213 358 q 267 167 213 229 q 427 104 320 104 q 580 159 529 104 q 631 330 631 214 l 631 393 l 422 393 l 422 503 l 758 503 l 758 353 q 669 77 758 164 q 423 -11 581 -11 z "},"H":{"ha":864,"x_min":102,"x_max":762,"o":"m 102 0 l 102 959 l 231 959 l 231 545 l 635 545 l 635 959 l 762 959 l 762 0 l 635 0 l 635 431 l 231 431 l 231 0 l 102 0 z "},"I":{"ha":345,"x_min":109,"x_max":237,"o":"m 109 0 l 109 959 l 237 959 l 237 0 l 109 0 z "},"J":{"ha":442,"x_min":41,"x_max":331,"o":"m 41 0 l 41 115 l 118 115 q 184 138 164 115 q 203 214 203 160 l 203 959 l 331 959 l 331 197 q 283 51 331 102 q 142 0 235 0 l 41 0 z "},"K":{"ha":836,"x_min":102,"x_max":826,"o":"m 102 0 l 102 959 l 231 959 l 231 437 l 635 959 l 788 959 l 484 581 l 826 0 l 677 0 l 403 479 l 231 266 l 231 0 l 102 0 z "},"L":{"ha":728,"x_min":102,"x_max":688,"o":"m 102 0 l 102 959 l 231 959 l 231 114 l 688 114 l 688 0 l 102 0 z "},"M":{"ha":1046,"x_min":106,"x_max":940,"o":"m 106 0 l 106 959 l 235 959 l 524 351 l 811 959 l 940 959 l 940 0 l 811 0 l 811 689 l 571 189 l 477 189 l 235 690 l 235 0 l 106 0 z "},"N":{"ha":906,"x_min":102,"x_max":806,"o":"m 102 0 l 102 959 l 231 959 l 678 245 l 678 959 l 806 959 l 806 0 l 678 0 l 231 713 l 231 0 l 102 0 z "},"O":{"ha":842,"x_min":84,"x_max":758,"o":"m 419 -11 q 172 79 260 -11 q 84 361 84 170 l 84 600 q 173 881 84 791 q 422 971 262 971 q 667 883 576 971 q 758 600 758 795 l 758 361 q 666 77 758 165 q 419 -11 574 -11 m 213 358 q 265 165 213 225 q 422 104 317 104 q 629 358 629 104 l 629 593 q 422 857 629 857 q 264 795 316 857 q 213 593 213 732 l 213 358 z "},"P":{"ha":796,"x_min":102,"x_max":755,"o":"m 102 0 l 102 959 l 450 959 q 674 883 593 959 q 755 667 755 807 q 673 461 755 537 q 450 385 591 385 l 231 385 l 231 0 l 102 0 m 231 499 l 442 499 q 579 542 530 499 q 628 667 628 585 q 579 800 628 755 q 442 845 530 845 l 231 845 l 231 499 z "},"Q":{"ha":842,"x_min":84,"x_max":758,"o":"m 616 -212 l 503 -4 q 463 -9 484 -7 q 419 -11 442 -11 q 172 79 260 -11 q 84 361 84 170 l 84 600 q 173 881 84 791 q 422 971 262 971 q 667 883 576 971 q 758 600 758 795 l 758 361 q 610 34 758 121 l 715 -156 l 616 -212 m 213 358 q 265 165 213 225 q 422 104 317 104 q 629 358 629 104 l 629 593 q 422 857 629 857 q 264 795 316 857 q 213 593 213 732 l 213 358 z "},"R":{"ha":831,"x_min":102,"x_max":781,"o":"m 102 0 l 102 959 l 460 959 q 675 886 597 959 q 754 684 754 812 q 704 517 754 583 q 562 426 654 450 l 781 0 l 633 0 l 429 410 l 231 410 l 231 0 l 102 0 m 231 519 l 452 519 q 581 562 536 519 q 627 682 627 605 q 581 804 627 762 q 452 845 536 845 l 231 845 l 231 519 z "},"S":{"ha":760,"x_min":42,"x_max":700,"o":"m 368 -8 q 137 64 220 -8 q 42 274 54 137 l 42 288 l 167 288 l 167 274 q 229 146 178 189 q 376 103 279 103 q 574 264 574 103 q 534 374 574 336 q 412 425 494 411 l 309 441 q 125 524 189 461 q 62 696 62 586 q 149 898 62 825 q 374 971 235 971 q 589 902 507 971 q 685 699 671 833 l 685 669 l 560 669 l 560 699 q 373 861 547 861 q 235 820 283 861 q 187 705 187 779 q 227 606 187 642 q 345 555 266 570 l 453 536 q 637 451 574 515 q 700 274 700 387 q 610 65 700 138 q 368 -8 521 -8 z "},"T":{"ha":675,"x_min":9,"x_max":666,"o":"m 274 0 l 274 845 l 9 845 l 9 959 l 666 959 l 666 845 l 403 845 l 403 0 l 274 0 z "},"U":{"ha":872,"x_min":102,"x_max":770,"o":"m 437 -8 q 266 33 342 -8 q 146 147 190 75 q 102 313 102 220 l 102 959 l 231 959 l 231 321 q 286 163 231 222 q 437 104 342 104 q 587 163 530 104 q 643 321 643 222 l 643 959 l 770 959 l 770 313 q 726 147 770 220 q 607 33 682 75 q 437 -8 532 -8 z "},"V":{"ha":741,"x_min":8,"x_max":732,"o":"m 317 0 l 8 959 l 142 959 l 370 208 l 600 959 l 732 959 l 422 0 l 317 0 z "},"W":{"ha":1122,"x_min":8,"x_max":1115,"o":"m 251 0 l 8 959 l 134 959 l 312 203 l 484 959 l 646 959 l 825 203 l 994 959 l 1115 959 l 878 0 l 762 0 l 563 791 l 366 0 l 251 0 z "},"X":{"ha":798,"x_min":8,"x_max":789,"o":"m 8 0 l 323 499 l 34 959 l 187 959 l 400 604 l 612 959 l 760 959 l 473 505 l 789 0 l 636 0 l 396 396 l 156 0 l 8 0 z "},"Y":{"ha":711,"x_min":8,"x_max":704,"o":"m 292 0 l 292 400 l 8 959 l 148 959 l 355 522 l 564 959 l 704 959 l 420 399 l 420 0 l 292 0 z "},"Z":{"ha":711,"x_min":52,"x_max":666,"o":"m 52 0 l 52 115 l 515 845 l 65 845 l 65 959 l 658 959 l 658 845 l 194 115 l 666 115 l 666 0 l 52 0 z "},"[":{"ha":419,"x_min":102,"x_max":343,"o":"m 102 -117 l 102 1028 l 343 1028 l 343 914 l 224 914 l 224 -1 l 343 -1 l 343 -117 l 102 -117 z "},"\\":{"ha":549,"x_min":75,"x_max":475,"o":"m 372 -14 l 75 962 l 179 962 l 475 -14 l 372 -14 z "},"]":{"ha":419,"x_min":75,"x_max":317,"o":"m 75 -117 l 75 -1 l 195 -1 l 195 913 l 75 913 l 75 1027 l 317 1027 l 317 -117 l 75 -117 z "},"^":{"ha":719,"x_min":69,"x_max":650,"o":"m 69 389 l 308 962 l 411 962 l 650 389 l 547 389 l 359 846 l 172 389 l 69 389 z "},"_":{"ha":654,"x_min":0,"x_max":655,"o":"m 0 -152 l 0 -68 l 655 -68 l 655 -152 l 0 -152 z "},"`":{"ha":694,"x_min":197,"x_max":479,"o":"m 370 802 l 197 979 l 338 979 l 479 802 l 370 802 z "},"a":{"ha":692,"x_min":60,"x_max":598,"o":"m 293 -8 q 121 47 182 -8 q 60 205 60 102 q 123 354 60 300 q 300 408 187 408 l 477 408 l 477 481 q 334 623 477 623 q 233 593 270 623 q 195 511 195 563 l 195 507 l 80 507 l 80 514 q 149 663 80 608 q 332 719 217 719 q 530 658 461 719 q 598 477 598 597 l 598 0 l 480 0 l 480 71 q 402 11 446 30 q 293 -8 358 -8 m 179 206 q 316 88 179 88 q 439 127 401 88 q 477 244 477 167 l 477 323 l 319 323 q 179 206 179 323 z "},"b":{"ha":711,"x_min":95,"x_max":635,"o":"m 397 -8 q 213 84 273 -8 l 213 0 l 95 0 l 95 959 l 214 959 l 214 620 q 391 719 273 719 q 567 648 499 719 q 635 427 635 576 l 635 283 q 568 64 635 136 q 397 -8 502 -8 m 214 290 q 255 151 214 203 q 373 99 296 99 q 514 289 514 99 l 514 422 q 368 612 514 612 q 254 559 293 612 q 214 416 214 506 l 214 290 z "},"c":{"ha":700,"x_min":75,"x_max":624,"o":"m 357 -8 q 151 62 227 -8 q 75 285 75 133 l 75 426 q 151 648 75 578 q 355 719 228 719 q 552 654 480 719 q 624 477 624 590 l 624 468 l 509 468 l 509 475 q 469 576 509 540 q 359 612 429 612 q 238 568 281 612 q 195 422 195 524 l 195 289 q 239 142 195 186 q 358 99 282 99 q 469 134 429 99 q 509 233 509 170 l 509 240 l 624 240 l 624 233 q 552 57 624 122 q 357 -8 480 -8 z "},"d":{"ha":711,"x_min":75,"x_max":616,"o":"m 313 -8 q 142 64 210 -8 q 75 283 75 136 l 75 427 q 142 648 75 576 q 315 719 209 719 q 496 620 434 719 l 496 959 l 616 959 l 616 0 l 496 0 l 496 84 q 313 -8 439 -8 m 197 289 q 338 99 197 99 q 456 151 416 99 q 496 290 496 203 l 496 416 q 458 559 496 506 q 343 612 419 612 q 197 422 197 612 l 197 289 z "},"e":{"ha":705,"x_min":75,"x_max":629,"o":"m 357 -8 q 151 68 228 -8 q 75 302 75 144 l 75 412 q 151 643 75 567 q 353 719 227 719 q 554 643 479 719 q 629 412 629 567 l 629 326 l 195 326 l 195 292 q 240 141 195 184 q 363 98 285 98 q 469 130 431 98 q 507 216 507 161 l 509 220 l 624 220 l 624 213 q 553 53 624 114 q 357 -8 481 -8 m 195 412 l 509 412 l 509 434 q 469 572 509 530 q 353 613 429 613 q 237 570 279 613 q 195 423 195 528 l 195 412 z "},"f":{"ha":438,"x_min":43,"x_max":391,"o":"m 129 0 l 129 620 l 43 620 l 43 709 l 129 709 l 129 777 q 176 911 129 863 q 309 959 224 959 l 391 959 l 391 869 l 332 869 q 250 783 250 869 l 250 709 l 391 709 l 391 620 l 250 620 l 250 0 l 129 0 z "},"g":{"ha":711,"x_min":75,"x_max":616,"o":"m 345 -222 q 161 -171 229 -222 q 87 -30 94 -119 l 205 -30 q 249 -97 212 -72 q 347 -122 286 -122 q 496 46 496 -122 l 496 141 q 313 47 439 47 q 142 119 210 47 q 75 340 75 190 l 75 431 q 142 651 75 581 q 315 722 209 722 q 420 698 374 722 q 496 624 467 674 l 496 713 l 616 713 l 616 54 q 545 -148 616 -73 q 345 -222 473 -222 m 197 346 q 338 156 197 156 q 456 208 416 156 q 496 347 496 260 l 496 419 q 458 562 496 509 q 343 614 419 614 q 197 425 197 614 l 197 346 z "},"h":{"ha":723,"x_min":95,"x_max":629,"o":"m 95 0 l 95 959 l 214 959 l 214 632 q 396 719 278 719 q 568 652 507 719 q 629 465 629 586 l 629 0 l 509 0 l 509 449 q 470 570 509 529 q 363 612 431 612 q 256 569 297 612 q 214 449 214 526 l 214 0 l 95 0 z "},"i":{"ha":317,"x_min":96,"x_max":221,"o":"m 99 0 l 99 709 l 218 709 l 218 0 l 99 0 m 96 830 l 96 959 l 221 959 l 221 830 l 96 830 z "},"j":{"ha":315,"x_min":-43,"x_max":218,"o":"m -43 -213 l -43 -106 l 14 -106 q 77 -83 57 -106 q 96 -9 96 -60 l 96 709 l 216 709 l 216 -16 q 168 -162 216 -111 q 28 -213 121 -213 l -43 -213 m 94 829 l 94 959 l 218 959 l 218 829 l 94 829 z "},"k":{"ha":697,"x_min":95,"x_max":674,"o":"m 95 0 l 95 959 l 214 959 l 214 361 l 498 709 l 642 709 l 408 437 l 674 0 l 528 0 l 328 345 l 214 212 l 214 0 l 95 0 z "},"l":{"ha":385,"x_min":95,"x_max":354,"o":"m 283 0 q 144 51 193 0 q 95 197 95 102 l 95 959 l 214 959 l 214 203 q 234 130 214 152 q 297 107 254 107 l 354 107 l 354 0 l 283 0 z "},"m":{"ha":1137,"x_min":95,"x_max":1043,"o":"m 95 0 l 95 709 l 212 709 l 212 631 q 287 693 237 667 q 396 719 336 719 q 512 692 463 719 q 593 609 562 666 q 804 719 666 719 q 920 694 865 719 q 1008 613 974 669 q 1043 465 1043 557 l 1043 0 l 922 0 l 922 449 q 909 527 922 490 q 865 588 897 564 q 779 612 834 612 q 666 566 703 612 q 629 453 629 521 l 629 0 l 509 0 l 509 449 q 495 527 509 490 q 450 588 481 564 q 363 612 419 612 q 256 570 297 612 q 214 449 214 528 l 214 0 l 95 0 z "},"n":{"ha":723,"x_min":95,"x_max":629,"o":"m 95 0 l 95 709 l 212 709 l 212 631 q 291 696 243 674 q 396 719 339 719 q 569 652 509 719 q 629 465 629 585 l 629 0 l 509 0 l 509 449 q 470 570 509 529 q 363 612 431 612 q 256 569 297 612 q 214 449 214 526 l 214 0 l 95 0 z "},"o":{"ha":704,"x_min":75,"x_max":628,"o":"m 354 -8 q 151 62 227 -8 q 75 285 75 133 l 75 426 q 151 648 75 578 q 354 719 227 719 q 553 648 479 719 q 628 426 628 578 l 628 285 q 553 62 628 133 q 354 -8 479 -8 m 195 289 q 237 143 195 187 q 354 99 279 99 q 467 143 426 99 q 509 289 509 187 l 509 422 q 467 568 509 524 q 354 612 426 612 q 237 568 279 612 q 195 422 195 524 l 195 289 z "},"p":{"ha":711,"x_min":95,"x_max":635,"o":"m 95 -213 l 95 709 l 213 709 l 213 620 q 391 719 273 719 q 567 648 499 719 q 635 427 635 576 l 635 283 q 568 62 635 133 q 397 -8 502 -8 q 214 84 274 -8 l 214 -213 l 95 -213 m 214 290 q 255 151 214 203 q 373 99 296 99 q 514 289 514 99 l 514 420 q 368 612 514 612 q 254 559 293 612 q 214 416 214 506 l 214 290 z "},"q":{"ha":711,"x_min":75,"x_max":616,"o":"m 496 -213 l 496 84 q 313 -8 437 -8 q 142 62 210 -8 q 75 283 75 133 l 75 427 q 144 648 75 576 q 320 719 213 719 q 496 620 438 719 l 496 709 l 616 709 l 616 -213 l 496 -213 m 197 289 q 338 99 197 99 q 456 151 416 99 q 496 290 496 203 l 496 416 q 458 559 496 506 q 343 612 419 612 q 197 420 197 612 l 197 289 z "},"r":{"ha":477,"x_min":95,"x_max":446,"o":"m 95 0 l 95 709 l 212 709 l 212 623 q 288 698 240 674 q 393 722 335 722 q 446 718 420 722 l 446 601 q 369 613 408 613 q 258 567 301 613 q 214 442 214 521 l 214 0 l 95 0 z "},"s":{"ha":647,"x_min":60,"x_max":594,"o":"m 321 -8 q 131 50 202 -8 q 60 202 60 107 l 60 209 l 175 209 l 175 203 q 216 121 175 151 q 326 91 256 91 q 438 119 397 91 q 479 201 479 148 q 450 270 479 247 q 357 304 420 293 l 273 319 q 119 382 168 338 q 71 511 71 427 q 142 663 71 608 q 324 719 213 719 q 513 663 442 719 q 585 521 585 608 l 585 513 l 471 513 l 471 517 q 432 594 471 566 q 326 623 393 623 q 222 594 259 623 q 186 518 186 566 q 212 453 186 476 q 297 420 239 430 l 388 406 q 543 340 492 387 q 594 209 594 294 q 519 49 594 106 q 321 -8 445 -8 z "},"t":{"ha":477,"x_min":43,"x_max":422,"o":"m 335 0 q 199 50 248 0 q 149 186 149 100 l 149 620 l 43 620 l 43 709 l 149 709 l 149 865 l 270 914 l 270 709 l 422 709 l 422 620 l 270 620 l 270 193 q 354 104 270 104 l 410 104 l 410 0 l 335 0 z "},"u":{"ha":723,"x_min":95,"x_max":629,"o":"m 361 -8 q 161 62 228 -8 q 95 269 95 133 l 95 709 l 214 709 l 214 281 q 247 144 214 190 q 362 99 279 99 q 476 143 444 99 q 509 281 509 187 l 509 709 l 629 709 l 629 269 q 563 62 629 133 q 361 -8 496 -8 z "},"v":{"ha":628,"x_min":16,"x_max":612,"o":"m 263 0 l 16 709 l 146 709 l 315 180 l 483 709 l 612 709 l 366 0 l 263 0 z "},"w":{"ha":1001,"x_min":16,"x_max":985,"o":"m 231 0 l 16 709 l 146 709 l 289 182 l 453 709 l 548 709 l 711 182 l 854 709 l 985 709 l 772 0 l 666 0 l 500 534 l 335 0 l 231 0 z "},"x":{"ha":602,"x_min":16,"x_max":586,"o":"m 16 0 l 237 365 l 31 709 l 159 709 l 305 468 l 444 709 l 572 709 l 362 372 l 586 0 l 458 0 l 298 264 l 145 0 l 16 0 z "},"y":{"ha":629,"x_min":16,"x_max":612,"o":"m 98 -213 l 98 -103 l 138 -103 q 210 -85 186 -103 q 250 -22 235 -66 l 260 11 l 16 709 l 146 709 l 316 186 l 487 709 l 612 709 l 342 -72 q 269 -179 316 -145 q 145 -213 221 -213 l 98 -213 z "},"z":{"ha":632,"x_min":75,"x_max":557,"o":"m 75 0 l 75 107 l 423 604 l 75 604 l 75 709 l 557 709 l 557 604 l 208 107 l 557 107 l 557 0 l 75 0 z "},"{":{"ha":481,"x_min":75,"x_max":407,"o":"m 328 -117 q 175 42 175 -117 l 175 292 q 153 377 175 351 q 75 404 130 403 l 75 514 q 153 541 130 515 q 175 625 175 567 l 175 869 q 328 1028 175 1028 l 407 1028 l 407 925 l 358 925 q 296 857 296 925 l 296 628 q 276 513 296 549 q 206 458 256 476 q 276 405 256 441 q 296 290 296 369 l 296 54 q 358 -15 296 -15 l 407 -15 l 407 -117 l 328 -117 z "},"|":{"ha":420,"x_min":153,"x_max":267,"o":"m 153 -115 l 153 1028 l 267 1028 l 267 -115 l 153 -115 z "},"}":{"ha":481,"x_min":75,"x_max":407,"o":"m 75 -117 l 75 -15 l 123 -15 q 186 54 186 -15 l 186 290 q 205 405 186 369 q 275 458 225 441 q 205 513 225 476 q 186 628 186 549 l 186 857 q 123 925 186 925 l 75 925 l 75 1028 l 155 1028 q 307 869 307 1028 l 307 625 q 330 541 307 567 q 407 514 353 515 l 407 404 q 330 377 353 403 q 307 292 307 351 l 307 42 q 155 -117 307 -117 l 75 -117 z "},"~":{"ha":719,"x_min":61,"x_max":656,"o":"m 144 290 l 61 342 q 140 443 92 408 q 245 477 187 477 q 309 466 281 477 q 376 430 338 454 q 427 403 407 412 q 471 393 448 393 q 526 412 502 393 q 575 475 551 430 l 656 423 q 578 321 627 357 q 472 286 529 286 q 408 298 437 286 q 342 334 378 311 q 290 363 309 354 q 247 373 270 373 q 193 354 216 373 q 144 290 171 335 z "}," ":{"ha":301,"x_min":0,"x_max":0,"o":""},"¡":{"ha":335,"x_min":96,"x_max":241,"o":"m 98 -213 l 121 422 l 217 422 l 240 -213 l 98 -213 m 96 563 l 96 709 l 241 709 l 241 563 l 96 563 z "},"¢":{"ha":719,"x_min":75,"x_max":624,"o":"m 316 -138 l 316 -5 q 140 76 205 5 q 75 285 75 146 l 75 426 q 140 636 75 566 q 316 716 205 707 l 316 856 l 397 856 l 397 716 q 564 643 505 707 q 624 477 624 579 l 624 468 l 509 468 l 509 475 q 469 576 509 540 q 359 612 429 612 q 238 568 281 612 q 195 422 195 524 l 195 289 q 239 142 195 186 q 358 99 282 99 q 469 134 429 99 q 509 233 509 170 l 509 240 l 624 240 l 624 233 q 563 68 624 132 q 397 -5 502 5 l 397 -138 l 316 -138 z "},"£":{"ha":618,"x_min":42,"x_max":578,"o":"m 69 0 l 69 107 q 117 159 102 126 q 132 245 132 191 l 132 396 l 42 396 l 42 510 l 132 510 l 132 726 q 191 907 132 842 q 357 972 251 972 q 515 915 457 972 q 574 754 574 857 l 450 754 q 426 830 450 803 q 357 857 401 857 q 286 828 311 857 q 260 743 260 799 l 260 510 l 449 510 l 449 396 l 260 396 l 260 260 q 216 115 260 164 l 578 115 l 578 0 l 69 0 z "},"¤":{"ha":842,"x_min":94,"x_max":749,"o":"m 170 122 l 94 201 l 189 296 q 145 449 145 362 q 156 530 145 492 q 190 602 167 568 l 95 699 l 171 776 l 267 681 q 420 726 335 726 q 574 681 507 726 l 670 776 l 747 699 l 651 604 q 697 449 697 533 q 652 296 697 363 l 749 201 l 671 122 l 575 218 q 420 172 509 172 q 266 218 334 172 l 170 122 m 420 274 q 544 324 495 274 q 593 449 593 374 q 544 574 593 525 q 420 624 495 624 q 299 574 347 624 q 251 449 251 525 q 299 324 251 374 q 420 274 347 274 z "},"¥":{"ha":650,"x_min":12,"x_max":639,"o":"m 262 0 l 262 198 l 71 198 l 71 290 l 262 290 l 262 378 l 71 378 l 71 471 l 235 471 l 12 959 l 151 959 l 327 529 l 502 959 l 639 959 l 418 471 l 581 471 l 581 378 l 389 378 l 389 290 l 581 290 l 581 198 l 389 198 l 389 0 l 262 0 z "},"¦":{"ha":420,"x_min":153,"x_max":267,"o":"m 153 -115 l 153 376 l 267 376 l 267 -115 l 153 -115 m 153 538 l 153 1028 l 267 1028 l 267 538 l 153 538 z "},"§":{"ha":709,"x_min":102,"x_max":608,"o":"m 351 -233 q 179 -174 239 -233 q 119 -1 119 -114 l 236 -1 q 350 -126 236 -126 q 433 -98 404 -126 q 463 -18 463 -69 q 426 74 463 42 q 297 129 389 106 q 102 382 102 176 q 136 518 102 461 q 235 601 171 575 q 155 673 179 629 q 132 781 132 718 q 194 933 132 873 q 358 993 256 993 q 527 932 471 993 q 583 768 583 872 l 468 768 q 359 887 468 887 q 282 859 311 887 q 254 781 254 830 q 288 692 254 723 q 414 637 323 661 q 561 551 514 613 q 608 384 608 488 q 573 248 608 307 q 477 165 538 189 q 559 94 534 138 q 585 -20 585 49 q 520 -174 585 -115 q 351 -233 456 -233 m 355 235 q 452 273 418 235 q 487 382 487 312 q 452 493 487 454 q 355 532 418 532 q 258 493 293 532 q 224 382 224 454 q 258 273 224 312 q 355 235 293 235 z "},"¨":{"ha":694,"x_min":163,"x_max":530,"o":"m 163 807 l 163 940 l 283 940 l 283 807 l 163 807 m 410 807 l 410 940 l 530 940 l 530 807 l 410 807 z "},"©":{"ha":1147,"x_min":92,"x_max":1047,"o":"m 568 -14 q 320 49 427 -14 q 153 221 213 111 q 92 473 92 331 q 153 727 92 617 q 320 899 213 837 q 568 960 427 960 q 817 898 709 960 q 986 726 925 836 q 1047 473 1047 617 q 986 221 1047 331 q 817 49 925 111 q 568 -14 709 -14 m 568 72 q 773 121 686 72 q 908 261 860 171 q 956 473 956 351 q 908 686 956 595 q 773 825 860 776 q 568 875 686 875 q 364 825 452 875 q 229 686 277 776 q 182 473 182 595 q 229 261 182 351 q 364 121 277 171 q 568 72 452 72 m 574 206 q 422 258 479 206 q 365 423 365 309 l 365 528 q 422 693 365 640 q 574 746 479 746 q 719 699 666 746 q 772 567 772 651 l 772 559 l 684 559 l 684 563 q 655 637 684 610 q 576 663 627 663 q 488 631 519 663 q 457 524 457 600 l 457 426 q 488 318 457 349 q 576 288 519 288 q 655 314 627 288 q 684 387 684 340 l 684 392 l 772 392 l 772 385 q 719 254 772 302 q 574 206 666 206 z "},"ª":{"ha":468,"x_min":49,"x_max":396,"o":"m 191 591 q 87 629 125 591 q 49 728 49 666 q 90 821 49 788 q 199 854 130 854 l 294 854 l 294 891 q 222 962 294 962 q 155 906 155 962 l 155 903 l 61 903 l 61 906 q 105 1003 61 967 q 224 1039 149 1039 q 352 1001 308 1039 q 396 887 396 963 l 396 597 l 298 597 l 298 637 q 252 603 277 614 q 191 591 227 591 m 146 731 q 214 674 146 674 q 276 694 258 674 q 294 751 294 713 l 294 785 l 216 785 q 146 731 146 785 z "},"«":{"ha":685,"x_min":31,"x_max":591,"o":"m 591 79 l 305 366 l 591 655 l 591 518 l 442 366 l 591 216 l 591 79 m 316 79 l 31 366 l 316 655 l 316 518 l 168 366 l 316 216 l 316 79 z "},"¬":{"ha":719,"x_min":75,"x_max":643,"o":"m 522 176 l 522 362 l 75 362 l 75 471 l 643 471 l 643 176 l 522 176 z "},"®":{"ha":686,"x_min":81,"x_max":605,"o":"m 342 426 q 210 461 269 426 q 116 557 151 496 q 81 693 81 618 q 116 829 81 769 q 210 924 151 888 q 342 959 269 959 q 477 924 418 959 q 570 828 536 888 q 605 693 605 768 q 570 556 605 617 q 477 460 536 495 q 342 426 418 426 m 134 693 q 193 536 134 598 q 345 473 251 473 q 495 536 438 473 q 552 693 552 598 q 495 849 552 788 q 345 910 438 910 q 193 849 251 910 q 134 693 134 788 m 243 545 l 243 842 l 359 842 q 458 753 458 842 q 406 671 458 694 l 467 545 l 404 545 l 349 663 l 300 663 l 300 545 l 243 545 m 300 713 l 357 713 q 403 753 403 713 q 357 792 403 792 l 300 792 l 300 713 z "},"¯":{"ha":694,"x_min":161,"x_max":533,"o":"m 161 819 l 161 928 l 533 928 l 533 819 l 161 819 z "},"°":{"ha":562,"x_min":84,"x_max":479,"o":"m 282 578 q 140 634 195 578 q 84 774 84 690 q 110 876 84 831 q 180 947 136 921 q 282 972 225 972 q 382 947 338 972 q 452 876 426 921 q 479 774 479 831 q 452 674 479 719 q 382 604 426 629 q 282 578 338 578 m 168 774 q 200 690 168 723 q 282 658 232 658 q 363 691 331 658 q 395 774 395 724 q 363 860 395 826 q 282 894 331 894 q 200 860 232 894 q 168 774 168 826 z "},"±":{"ha":719,"x_min":75,"x_max":644,"o":"m 302 161 l 302 389 l 75 389 l 75 502 l 302 502 l 302 730 l 416 730 l 416 502 l 644 502 l 644 389 l 416 389 l 416 161 l 302 161 m 75 -20 l 75 94 l 644 94 l 644 -20 l 75 -20 z "},"²":{"ha":422,"x_min":31,"x_max":392,"o":"m 33 578 l 33 658 l 241 926 q 275 1010 275 974 l 275 1024 q 271 1050 275 1035 q 253 1077 267 1065 q 209 1089 239 1089 q 167 1076 189 1089 q 145 1020 145 1063 l 145 990 l 31 990 l 31 1024 q 82 1141 31 1097 q 213 1185 133 1185 q 341 1141 290 1185 q 392 1025 392 1097 l 392 1012 q 376 940 392 975 q 334 871 361 905 l 183 675 l 392 675 l 392 578 l 33 578 z "},"³":{"ha":441,"x_min":33,"x_max":406,"o":"m 217 570 q 87 608 142 570 q 33 724 33 647 l 33 754 l 145 754 l 145 727 q 217 666 145 666 q 244 670 227 666 q 277 690 262 674 q 292 741 292 707 l 292 760 q 285 793 292 774 q 261 826 278 812 q 212 840 244 840 l 163 840 l 163 936 l 212 936 q 239 940 222 936 q 269 960 255 944 q 282 1006 282 975 l 282 1021 q 270 1065 282 1040 q 214 1089 258 1089 q 173 1078 197 1089 q 149 1028 149 1067 l 149 998 l 39 998 l 39 1028 q 54 1093 39 1055 q 106 1158 68 1130 q 217 1185 144 1185 q 350 1139 305 1185 q 395 1027 395 1093 l 395 1010 q 386 959 395 994 q 336 895 377 924 q 380 854 355 884 q 406 762 406 823 l 406 743 q 353 616 406 662 q 217 570 300 570 z "},"´":{"ha":694,"x_min":216,"x_max":498,"o":"m 216 802 l 357 979 l 498 979 l 324 802 l 216 802 z "},"µ":{"ha":718,"x_min":95,"x_max":624,"o":"m 95 -213 l 95 709 l 214 709 l 214 255 q 253 138 214 178 q 355 98 292 98 q 460 139 419 98 q 502 255 502 180 l 502 709 l 624 709 l 624 0 l 505 0 l 505 77 q 336 -9 448 -9 q 214 34 259 -9 l 214 -213 l 95 -213 z "},"¶":{"ha":865,"x_min":102,"x_max":713,"o":"m 366 -213 l 366 369 q 228 415 288 376 q 135 519 168 454 q 102 665 102 583 q 138 814 102 747 q 243 920 175 880 q 407 959 312 959 l 713 959 l 713 -213 l 602 -213 l 602 852 l 480 852 l 480 -213 l 366 -213 z "},"·":{"ha":278,"x_min":66,"x_max":212,"o":"m 66 304 l 66 454 l 212 454 l 212 304 l 66 304 z "},"¸":{"ha":694,"x_min":247,"x_max":438,"o":"m 247 -212 l 336 16 l 438 16 l 365 -212 l 247 -212 z "},"¹":{"ha":297,"x_min":23,"x_max":243,"o":"m 129 578 l 129 1046 l 23 974 l 23 1096 l 140 1177 l 243 1177 l 243 578 l 129 578 z "},"º":{"ha":469,"x_min":58,"x_max":412,"o":"m 235 591 q 105 636 152 591 q 58 774 58 681 l 58 857 q 105 995 58 951 q 235 1039 152 1039 q 366 995 319 1039 q 412 857 412 951 l 412 774 q 366 636 412 681 q 235 591 319 591 m 159 774 q 235 682 159 682 q 311 774 311 682 l 311 856 q 235 948 311 948 q 159 856 159 948 l 159 774 z "},"»":{"ha":685,"x_min":95,"x_max":654,"o":"m 368 79 l 368 216 l 518 366 l 368 518 l 368 655 l 654 366 l 368 79 m 95 79 l 95 216 l 244 366 l 95 518 l 95 655 l 380 366 l 95 79 z "},"¼":{"ha":1047,"x_min":27,"x_max":1020,"o":"m 133 374 l 133 842 l 27 770 l 27 892 l 144 974 l 247 974 l 247 374 l 133 374 m 175 0 l 699 962 l 802 962 l 278 0 l 175 0 m 849 -15 l 849 90 l 613 90 l 613 176 l 799 585 l 917 585 l 735 189 l 849 189 l 849 336 l 959 336 l 959 189 l 1020 189 l 1020 90 l 959 90 l 959 -15 l 849 -15 z "},"½":{"ha":1038,"x_min":27,"x_max":991,"o":"m 133 374 l 133 842 l 27 770 l 27 892 l 144 974 l 247 974 l 247 374 l 133 374 m 130 0 l 654 962 l 757 962 l 233 0 l 130 0 m 632 -15 l 632 65 l 841 334 q 875 418 875 381 l 875 431 q 871 457 875 442 q 852 484 867 472 q 808 496 838 496 q 766 484 788 496 q 745 427 745 471 l 745 397 l 631 397 l 631 431 q 682 549 631 505 q 812 593 732 593 q 941 549 890 593 q 991 433 991 505 l 991 419 q 976 347 991 382 q 933 278 960 312 l 783 83 l 991 83 l 991 -15 l 632 -15 z "},"¾":{"ha":1177,"x_min":38,"x_max":1156,"o":"m 222 369 q 93 408 148 369 q 38 524 38 446 l 38 553 l 151 553 l 151 526 q 222 465 151 465 q 250 469 232 465 q 282 490 267 473 q 297 540 297 506 l 297 559 q 290 593 297 574 q 267 625 283 612 q 217 639 250 639 l 168 639 l 168 735 l 217 735 q 244 739 228 735 q 274 759 260 743 q 288 806 288 774 l 288 821 q 275 864 288 840 q 220 888 263 888 q 178 878 202 888 q 155 827 155 867 l 155 798 l 45 798 l 45 827 q 59 892 45 854 q 111 957 73 929 q 222 985 149 985 q 355 939 311 985 q 400 826 400 892 l 400 810 q 391 758 400 793 q 342 694 382 723 q 386 653 361 684 q 411 562 411 623 l 411 543 q 358 415 411 461 q 222 369 305 369 m 279 0 l 803 962 l 906 962 l 382 0 l 279 0 m 985 -15 l 985 90 l 749 90 l 749 176 l 935 585 l 1053 585 l 871 189 l 985 189 l 985 336 l 1095 336 l 1095 189 l 1156 189 l 1156 90 l 1095 90 l 1095 -15 l 985 -15 z "},"¿":{"ha":605,"x_min":60,"x_max":559,"o":"m 308 -227 q 127 -161 194 -227 q 60 8 60 -95 q 77 104 60 61 q 137 202 94 148 l 202 282 q 240 344 232 319 q 248 411 248 369 l 248 457 l 374 457 l 374 406 q 370 342 374 369 q 351 290 365 315 q 311 233 338 266 l 245 153 q 199 80 212 111 q 186 12 186 49 q 218 -80 186 -46 q 312 -114 251 -114 q 435 24 434 -114 l 559 24 q 493 -162 557 -98 q 308 -227 429 -227 m 241 564 l 241 709 l 384 709 l 384 564 l 241 564 z "},"À":{"ha":814,"x_min":8,"x_max":807,"o":"m 8 0 l 354 959 l 461 959 l 807 0 l 671 0 l 597 216 l 216 216 l 144 0 l 8 0 m 252 323 l 562 323 l 407 780 l 252 323 m 393 1050 l 218 1227 l 359 1227 l 500 1050 l 393 1050 z "},"Á":{"ha":814,"x_min":8,"x_max":807,"o":"m 8 0 l 354 959 l 461 959 l 807 0 l 671 0 l 597 216 l 216 216 l 144 0 l 8 0 m 252 323 l 562 323 l 407 780 l 252 323 m 313 1050 l 456 1227 l 597 1227 l 422 1050 l 313 1050 z "},"Â":{"ha":814,"x_min":8,"x_max":807,"o":"m 8 0 l 354 959 l 461 959 l 807 0 l 671 0 l 597 216 l 216 216 l 144 0 l 8 0 m 252 323 l 562 323 l 407 780 l 252 323 m 209 1035 l 361 1238 l 454 1238 l 606 1035 l 505 1035 l 408 1160 l 311 1035 l 209 1035 z "},"Ã":{"ha":814,"x_min":8,"x_max":807,"o":"m 8 0 l 354 959 l 461 959 l 807 0 l 671 0 l 597 216 l 216 216 l 144 0 l 8 0 m 252 323 l 562 323 l 407 780 l 252 323 m 228 1044 l 228 1142 q 277 1185 255 1173 q 330 1198 300 1198 q 373 1192 354 1198 q 418 1171 392 1185 q 455 1151 438 1158 q 491 1143 472 1143 q 536 1156 517 1143 q 587 1199 556 1168 l 587 1100 q 486 1046 537 1046 q 441 1052 460 1046 q 396 1074 423 1058 q 358 1093 376 1088 q 326 1099 340 1099 q 279 1087 298 1099 q 228 1044 259 1076 z "},"Ä":{"ha":814,"x_min":8,"x_max":807,"o":"m 8 0 l 354 959 l 461 959 l 807 0 l 671 0 l 597 216 l 216 216 l 144 0 l 8 0 m 252 323 l 562 323 l 407 780 l 252 323 m 224 1055 l 224 1188 l 345 1188 l 345 1055 l 224 1055 m 471 1055 l 471 1188 l 591 1188 l 591 1055 l 471 1055 z "},"Å":{"ha":814,"x_min":8,"x_max":807,"o":"m 8 0 l 354 959 l 461 959 l 807 0 l 671 0 l 597 216 l 216 216 l 144 0 l 8 0 m 252 323 l 562 323 l 407 780 l 252 323 m 408 945 q 314 983 351 945 q 277 1078 277 1021 q 314 1174 277 1137 q 408 1211 351 1211 q 503 1174 465 1211 q 540 1078 540 1137 q 503 983 540 1021 q 408 945 465 945 m 339 1078 q 359 1027 339 1047 q 408 1006 380 1006 q 459 1027 439 1006 q 479 1078 479 1047 q 459 1130 479 1109 q 408 1150 439 1150 q 359 1130 378 1150 q 339 1078 339 1109 z "},"Æ":{"ha":1210,"x_min":8,"x_max":1150,"o":"m 8 0 l 513 959 l 1150 959 l 1150 845 l 716 845 l 716 543 l 1081 543 l 1081 430 l 716 430 l 716 114 l 1150 114 l 1150 0 l 587 0 l 587 224 l 262 224 l 145 0 l 8 0 m 317 332 l 587 332 l 587 849 l 317 332 z "},"Ç":{"ha":842,"x_min":84,"x_max":758,"o":"m 425 -11 q 174 79 264 -11 q 84 361 84 170 l 84 600 q 174 881 84 791 q 426 971 264 971 q 601 935 526 971 q 717 831 675 898 q 758 674 758 764 l 758 669 l 629 669 l 629 674 q 575 808 629 758 q 426 857 521 857 q 266 795 319 857 q 213 593 213 734 l 213 358 q 427 104 213 104 q 576 153 522 104 q 629 281 629 202 l 629 288 l 755 288 l 755 281 q 669 69 755 149 q 425 -11 582 -11 m 321 -212 l 411 16 l 513 16 l 439 -212 l 321 -212 z "},"È":{"ha":753,"x_min":102,"x_max":692,"o":"m 102 0 l 102 959 l 692 959 l 692 845 l 231 845 l 231 543 l 625 543 l 625 430 l 231 430 l 231 114 l 692 114 l 692 0 l 102 0 m 369 1050 l 194 1227 l 335 1227 l 476 1050 l 369 1050 z "},"É":{"ha":753,"x_min":102,"x_max":692,"o":"m 102 0 l 102 959 l 692 959 l 692 845 l 231 845 l 231 543 l 625 543 l 625 430 l 231 430 l 231 114 l 692 114 l 692 0 l 102 0 m 288 1050 l 430 1227 l 571 1227 l 396 1050 l 288 1050 z "},"Ê":{"ha":753,"x_min":102,"x_max":692,"o":"m 102 0 l 102 959 l 692 959 l 692 845 l 231 845 l 231 543 l 625 543 l 625 430 l 231 430 l 231 114 l 692 114 l 692 0 l 102 0 m 184 1036 l 336 1240 l 430 1240 l 582 1036 l 480 1036 l 384 1161 l 286 1036 l 184 1036 z "},"Ë":{"ha":753,"x_min":102,"x_max":692,"o":"m 102 0 l 102 959 l 692 959 l 692 845 l 231 845 l 231 543 l 625 543 l 625 430 l 231 430 l 231 114 l 692 114 l 692 0 l 102 0 m 199 1055 l 199 1188 l 320 1188 l 320 1055 l 199 1055 m 446 1055 l 446 1188 l 567 1188 l 567 1055 l 446 1055 z "},"Ì":{"ha":350,"x_min":-14,"x_max":269,"o":"m 111 0 l 111 959 l 240 959 l 240 0 l 111 0 m 161 1050 l -14 1227 l 127 1227 l 269 1050 l 161 1050 z "},"Í":{"ha":350,"x_min":81,"x_max":365,"o":"m 111 0 l 111 959 l 240 959 l 240 0 l 111 0 m 81 1050 l 224 1227 l 365 1227 l 190 1050 l 81 1050 z "},"Î":{"ha":350,"x_min":-23,"x_max":374,"o":"m 111 0 l 111 959 l 240 959 l 240 0 l 111 0 m -23 1035 l 129 1238 l 222 1238 l 374 1035 l 273 1035 l 176 1160 l 79 1035 l -23 1035 z "},"Ï":{"ha":350,"x_min":-8,"x_max":359,"o":"m 111 0 l 111 959 l 240 959 l 240 0 l 111 0 m -8 1055 l -8 1188 l 113 1188 l 113 1055 l -8 1055 m 239 1055 l 239 1188 l 359 1188 l 359 1055 l 239 1055 z "},"Ð":{"ha":929,"x_min":53,"x_max":837,"o":"m 170 0 l 170 429 l 53 429 l 53 543 l 170 543 l 170 959 l 502 959 q 747 871 656 959 q 837 587 837 783 l 837 372 q 746 88 837 176 q 499 0 655 0 l 170 0 m 300 114 l 502 114 q 708 369 708 114 l 708 581 q 655 782 708 719 q 502 845 602 845 l 300 845 l 300 543 l 483 543 l 483 429 l 300 429 l 300 114 z "},"Ñ":{"ha":906,"x_min":102,"x_max":806,"o":"m 102 0 l 102 959 l 231 959 l 678 245 l 678 959 l 806 959 l 806 0 l 678 0 l 231 713 l 231 0 l 102 0 m 273 1044 l 273 1142 q 322 1185 300 1173 q 374 1198 345 1198 q 418 1192 399 1198 q 463 1171 437 1185 q 500 1151 483 1158 q 536 1143 517 1143 q 581 1156 562 1143 q 632 1199 601 1168 l 632 1100 q 530 1046 582 1046 q 486 1052 505 1046 q 441 1074 468 1058 q 403 1093 420 1088 q 370 1099 385 1099 q 323 1087 343 1099 q 273 1044 304 1076 z "},"Ò":{"ha":842,"x_min":84,"x_max":758,"o":"m 419 -11 q 172 79 260 -11 q 84 361 84 170 l 84 600 q 173 881 84 791 q 422 971 262 971 q 667 883 576 971 q 758 600 758 795 l 758 361 q 666 77 758 165 q 419 -11 574 -11 m 213 358 q 265 165 213 225 q 422 104 317 104 q 629 358 629 104 l 629 593 q 422 857 629 857 q 264 795 316 857 q 213 593 213 732 l 213 358 m 407 1050 l 232 1227 l 373 1227 l 514 1050 l 407 1050 z "},"Ó":{"ha":842,"x_min":84,"x_max":758,"o":"m 419 -11 q 172 79 260 -11 q 84 361 84 170 l 84 600 q 173 881 84 791 q 422 971 262 971 q 667 883 576 971 q 758 600 758 795 l 758 361 q 666 77 758 165 q 419 -11 574 -11 m 213 358 q 265 165 213 225 q 422 104 317 104 q 629 358 629 104 l 629 593 q 422 857 629 857 q 264 795 316 857 q 213 593 213 732 l 213 358 m 326 1050 l 468 1227 l 609 1227 l 434 1050 l 326 1050 z "},"Ô":{"ha":842,"x_min":84,"x_max":758,"o":"m 419 -11 q 172 79 260 -11 q 84 361 84 170 l 84 600 q 173 881 84 791 q 422 971 262 971 q 667 883 576 971 q 758 600 758 795 l 758 361 q 666 77 758 165 q 419 -11 574 -11 m 213 358 q 265 165 213 225 q 422 104 317 104 q 629 358 629 104 l 629 593 q 422 857 629 857 q 264 795 316 857 q 213 593 213 732 l 213 358 m 222 1036 l 374 1240 l 468 1240 l 620 1036 l 518 1036 l 422 1161 l 324 1036 l 222 1036 z "},"Õ":{"ha":842,"x_min":84,"x_max":758,"o":"m 419 -11 q 172 79 260 -11 q 84 361 84 170 l 84 600 q 173 881 84 791 q 422 971 262 971 q 667 883 576 971 q 758 600 758 795 l 758 361 q 666 77 758 165 q 419 -11 574 -11 m 213 358 q 265 165 213 225 q 422 104 317 104 q 629 358 629 104 l 629 593 q 422 857 629 857 q 264 795 316 857 q 213 593 213 732 l 213 358 m 240 1044 l 240 1142 q 290 1185 267 1173 q 342 1198 312 1198 q 385 1192 366 1198 q 430 1171 404 1185 q 467 1151 450 1158 q 503 1143 484 1143 q 549 1156 529 1143 q 600 1199 568 1168 l 600 1100 q 498 1046 549 1046 q 454 1052 472 1046 q 408 1074 435 1058 q 370 1093 388 1088 q 338 1099 353 1099 q 291 1087 311 1099 q 240 1044 271 1076 z "},"Ö":{"ha":842,"x_min":84,"x_max":758,"o":"m 419 -11 q 172 79 260 -11 q 84 361 84 170 l 84 600 q 173 881 84 791 q 422 971 262 971 q 667 883 576 971 q 758 600 758 795 l 758 361 q 666 77 758 165 q 419 -11 574 -11 m 213 358 q 265 165 213 225 q 422 104 317 104 q 629 358 629 104 l 629 593 q 422 857 629 857 q 264 795 316 857 q 213 593 213 732 l 213 358 m 236 1054 l 236 1187 l 357 1187 l 357 1054 l 236 1054 m 483 1054 l 483 1187 l 604 1187 l 604 1054 l 483 1054 z "},"×":{"ha":719,"x_min":114,"x_max":605,"o":"m 190 138 l 114 214 l 283 385 l 114 555 l 190 629 l 359 461 l 529 629 l 605 553 l 437 385 l 605 214 l 529 138 l 359 308 l 190 138 z "},"Ø":{"ha":842,"x_min":84,"x_max":758,"o":"m 84 -27 l 156 98 q 84 361 84 191 l 84 600 q 173 881 84 791 q 422 971 262 971 q 629 916 549 971 l 671 989 l 758 989 l 685 863 q 739 752 720 818 q 758 600 758 686 l 758 361 q 666 77 758 165 q 419 -11 574 -11 q 213 45 292 -11 l 171 -27 l 84 -27 m 610 732 l 275 153 q 422 104 326 104 q 629 358 629 104 l 629 593 q 610 732 629 675 m 213 358 q 231 227 213 279 l 566 806 q 422 857 515 857 q 264 795 316 857 q 213 593 213 732 l 213 358 z "},"Ù":{"ha":872,"x_min":102,"x_max":770,"o":"m 437 -8 q 266 33 342 -8 q 146 147 190 75 q 102 313 102 220 l 102 959 l 231 959 l 231 321 q 286 163 231 222 q 437 104 342 104 q 587 163 530 104 q 643 321 643 222 l 643 959 l 770 959 l 770 313 q 726 147 770 220 q 607 33 682 75 q 437 -8 532 -8 m 422 1050 l 247 1227 l 388 1227 l 529 1050 l 422 1050 z "},"Ú":{"ha":872,"x_min":102,"x_max":770,"o":"m 437 -8 q 266 33 342 -8 q 146 147 190 75 q 102 313 102 220 l 102 959 l 231 959 l 231 321 q 286 163 231 222 q 437 104 342 104 q 587 163 530 104 q 643 321 643 222 l 643 959 l 770 959 l 770 313 q 726 147 770 220 q 607 33 682 75 q 437 -8 532 -8 m 340 1050 l 483 1227 l 624 1227 l 449 1050 l 340 1050 z "},"Û":{"ha":872,"x_min":102,"x_max":770,"o":"m 437 -8 q 266 33 342 -8 q 146 147 190 75 q 102 313 102 220 l 102 959 l 231 959 l 231 321 q 286 163 231 222 q 437 104 342 104 q 587 163 530 104 q 643 321 643 222 l 643 959 l 770 959 l 770 313 q 726 147 770 220 q 607 33 682 75 q 437 -8 532 -8 m 237 1035 l 389 1238 l 483 1238 l 635 1035 l 533 1035 l 437 1160 l 339 1035 l 237 1035 z "},"Ü":{"ha":872,"x_min":102,"x_max":770,"o":"m 437 -8 q 266 33 342 -8 q 146 147 190 75 q 102 313 102 220 l 102 959 l 231 959 l 231 321 q 286 163 231 222 q 437 104 342 104 q 587 163 530 104 q 643 321 643 222 l 643 959 l 770 959 l 770 313 q 726 147 770 220 q 607 33 682 75 q 437 -8 532 -8 m 251 1055 l 251 1188 l 372 1188 l 372 1055 l 251 1055 m 498 1055 l 498 1188 l 618 1188 l 618 1055 l 498 1055 z "},"Ý":{"ha":711,"x_min":8,"x_max":704,"o":"m 292 0 l 292 400 l 8 959 l 148 959 l 355 522 l 564 959 l 704 959 l 420 399 l 420 0 l 292 0 m 260 1050 l 403 1227 l 544 1227 l 369 1050 l 260 1050 z "},"Þ":{"ha":796,"x_min":102,"x_max":747,"o":"m 102 0 l 102 959 l 231 959 l 231 789 l 442 789 q 666 713 585 789 q 747 498 747 637 q 665 292 747 368 q 442 217 583 217 l 231 217 l 231 0 l 102 0 m 231 330 l 433 330 q 570 372 521 330 q 618 498 618 415 q 570 631 618 586 q 433 675 521 675 l 231 675 l 231 330 z "},"ß":{"ha":709,"x_min":95,"x_max":635,"o":"m 350 -5 l 350 99 l 389 99 q 473 116 448 99 q 507 180 499 133 q 514 315 514 227 q 506 448 514 401 q 470 513 498 495 q 380 532 442 532 l 349 532 l 349 636 l 389 636 q 475 663 449 636 q 502 747 502 690 q 362 863 502 863 q 250 827 286 863 q 214 712 214 791 l 214 0 l 95 0 l 95 699 q 158 901 95 831 q 361 970 221 970 q 555 913 486 970 q 624 751 624 856 q 537 589 624 637 q 602 538 581 568 q 629 455 623 507 q 635 313 635 403 q 617 121 635 191 q 549 23 600 52 q 396 -5 498 -5 l 350 -5 z "},"à":{"ha":692,"x_min":60,"x_max":598,"o":"m 293 -8 q 121 47 182 -8 q 60 205 60 102 q 123 354 60 300 q 300 408 187 408 l 477 408 l 477 481 q 334 623 477 623 q 233 593 270 623 q 195 511 195 563 l 195 507 l 80 507 l 80 514 q 149 663 80 608 q 332 719 217 719 q 530 658 461 719 q 598 477 598 597 l 598 0 l 480 0 l 480 71 q 402 11 446 30 q 293 -8 358 -8 m 179 206 q 316 88 179 88 q 439 127 401 88 q 477 244 477 167 l 477 323 l 319 323 q 179 206 179 323 m 326 802 l 151 979 l 292 979 l 433 802 l 326 802 z "},"á":{"ha":692,"x_min":60,"x_max":598,"o":"m 293 -8 q 121 47 182 -8 q 60 205 60 102 q 123 354 60 300 q 300 408 187 408 l 477 408 l 477 481 q 334 623 477 623 q 233 593 270 623 q 195 511 195 563 l 195 507 l 80 507 l 80 514 q 149 663 80 608 q 332 719 217 719 q 530 658 461 719 q 598 477 598 597 l 598 0 l 480 0 l 480 71 q 402 11 446 30 q 293 -8 358 -8 m 179 206 q 316 88 179 88 q 439 127 401 88 q 477 244 477 167 l 477 323 l 319 323 q 179 206 179 323 m 244 802 l 387 979 l 528 979 l 353 802 l 244 802 z "},"â":{"ha":692,"x_min":60,"x_max":598,"o":"m 293 -8 q 121 47 182 -8 q 60 205 60 102 q 123 354 60 300 q 300 408 187 408 l 477 408 l 477 481 q 334 623 477 623 q 233 593 270 623 q 195 511 195 563 l 195 507 l 80 507 l 80 514 q 149 663 80 608 q 332 719 217 719 q 530 658 461 719 q 598 477 598 597 l 598 0 l 480 0 l 480 71 q 402 11 446 30 q 293 -8 358 -8 m 179 206 q 316 88 179 88 q 439 127 401 88 q 477 244 477 167 l 477 323 l 319 323 q 179 206 179 323 m 141 787 l 293 990 l 387 990 l 538 787 l 437 787 l 340 911 l 243 787 l 141 787 z "},"ã":{"ha":692,"x_min":60,"x_max":598,"o":"m 293 -8 q 121 47 182 -8 q 60 205 60 102 q 123 354 60 300 q 300 408 187 408 l 477 408 l 477 481 q 334 623 477 623 q 233 593 270 623 q 195 511 195 563 l 195 507 l 80 507 l 80 514 q 149 663 80 608 q 332 719 217 719 q 530 658 461 719 q 598 477 598 597 l 598 0 l 480 0 l 480 71 q 402 11 446 30 q 293 -8 358 -8 m 179 206 q 316 88 179 88 q 439 127 401 88 q 477 244 477 167 l 477 323 l 319 323 q 179 206 179 323 m 160 796 l 160 894 q 210 937 187 925 q 262 949 232 949 q 305 943 286 949 q 350 922 324 937 q 387 903 370 910 q 423 895 404 895 q 469 907 449 895 q 519 951 488 920 l 519 852 q 418 798 469 798 q 374 804 392 798 q 328 826 355 810 q 290 845 308 840 q 258 850 273 850 q 211 839 231 850 q 160 796 191 827 z "},"ä":{"ha":692,"x_min":60,"x_max":598,"o":"m 293 -8 q 121 47 182 -8 q 60 205 60 102 q 123 354 60 300 q 300 408 187 408 l 477 408 l 477 481 q 334 623 477 623 q 233 593 270 623 q 195 511 195 563 l 195 507 l 80 507 l 80 514 q 149 663 80 608 q 332 719 217 719 q 530 658 461 719 q 598 477 598 597 l 598 0 l 480 0 l 480 71 q 402 11 446 30 q 293 -8 358 -8 m 179 206 q 316 88 179 88 q 439 127 401 88 q 477 244 477 167 l 477 323 l 319 323 q 179 206 179 323 m 156 807 l 156 940 l 277 940 l 277 807 l 156 807 m 403 807 l 403 940 l 524 940 l 524 807 l 403 807 z "},"å":{"ha":692,"x_min":60,"x_max":598,"o":"m 293 -8 q 121 47 182 -8 q 60 205 60 102 q 123 354 60 300 q 300 408 187 408 l 477 408 l 477 481 q 334 623 477 623 q 233 593 270 623 q 195 511 195 563 l 195 507 l 80 507 l 80 514 q 149 663 80 608 q 332 719 217 719 q 530 658 461 719 q 598 477 598 597 l 598 0 l 480 0 l 480 71 q 402 11 446 30 q 293 -8 358 -8 m 179 206 q 316 88 179 88 q 439 127 401 88 q 477 244 477 167 l 477 323 l 319 323 q 179 206 179 323 m 332 784 q 238 822 275 784 q 201 917 201 860 q 238 1013 201 975 q 332 1050 275 1050 q 427 1013 389 1050 q 464 917 464 975 q 427 822 464 860 q 332 784 389 784 m 263 917 q 283 865 263 886 q 332 845 302 845 q 382 865 362 845 q 401 917 401 886 q 382 968 401 948 q 332 989 362 989 q 283 968 302 989 q 263 917 263 948 z "},"æ":{"ha":1107,"x_min":60,"x_max":1032,"o":"m 307 -8 q 126 47 193 -8 q 60 205 60 103 q 123 354 60 300 q 300 408 187 408 l 477 408 l 477 481 q 334 623 477 623 q 233 593 270 623 q 195 511 195 563 l 195 507 l 80 507 l 80 514 q 149 663 80 608 q 332 719 217 719 q 548 635 480 719 q 755 719 618 719 q 956 643 880 719 q 1032 412 1032 567 l 1032 326 l 598 326 l 598 292 q 642 141 598 184 q 765 98 686 98 q 871 130 833 98 q 910 216 909 161 l 910 220 l 1027 220 l 1027 213 q 959 55 1027 118 q 768 -8 891 -8 q 635 17 693 -8 q 540 96 578 42 q 307 -8 463 -8 m 179 206 q 316 88 179 88 q 477 252 477 88 l 477 323 l 319 323 q 179 206 179 323 m 598 412 l 910 412 l 910 434 q 871 572 910 530 q 755 613 831 613 q 640 570 682 613 q 598 423 598 528 l 598 412 z "},"ç":{"ha":700,"x_min":75,"x_max":624,"o":"m 357 -8 q 151 62 227 -8 q 75 285 75 133 l 75 426 q 151 648 75 578 q 355 719 228 719 q 552 654 480 719 q 624 477 624 590 l 624 468 l 509 468 l 509 475 q 469 576 509 540 q 359 612 429 612 q 238 568 281 612 q 195 422 195 524 l 195 289 q 239 142 195 186 q 358 99 282 99 q 469 134 429 99 q 509 233 509 170 l 509 240 l 624 240 l 624 233 q 552 57 624 122 q 357 -8 480 -8 m 247 -212 l 336 16 l 438 16 l 365 -212 l 247 -212 z "},"è":{"ha":705,"x_min":75,"x_max":629,"o":"m 357 -8 q 151 68 228 -8 q 75 302 75 144 l 75 412 q 151 643 75 567 q 353 719 227 719 q 554 643 479 719 q 629 412 629 567 l 629 326 l 195 326 l 195 292 q 240 141 195 184 q 363 98 285 98 q 469 130 431 98 q 507 216 507 161 l 509 220 l 624 220 l 624 213 q 553 53 624 114 q 357 -8 481 -8 m 195 412 l 509 412 l 509 434 q 469 572 509 530 q 353 613 429 613 q 237 570 279 613 q 195 423 195 528 l 195 412 m 338 802 l 163 979 l 304 979 l 445 802 l 338 802 z "},"é":{"ha":705,"x_min":75,"x_max":629,"o":"m 357 -8 q 151 68 228 -8 q 75 302 75 144 l 75 412 q 151 643 75 567 q 353 719 227 719 q 554 643 479 719 q 629 412 629 567 l 629 326 l 195 326 l 195 292 q 240 141 195 184 q 363 98 285 98 q 469 130 431 98 q 507 216 507 161 l 509 220 l 624 220 l 624 213 q 553 53 624 114 q 357 -8 481 -8 m 195 412 l 509 412 l 509 434 q 469 572 509 530 q 353 613 429 613 q 237 570 279 613 q 195 423 195 528 l 195 412 m 258 802 l 400 979 l 541 979 l 366 802 l 258 802 z "},"ê":{"ha":705,"x_min":75,"x_max":629,"o":"m 357 -8 q 151 68 228 -8 q 75 302 75 144 l 75 412 q 151 643 75 567 q 353 719 227 719 q 554 643 479 719 q 629 412 629 567 l 629 326 l 195 326 l 195 292 q 240 141 195 184 q 363 98 285 98 q 469 130 431 98 q 507 216 507 161 l 509 220 l 624 220 l 624 213 q 553 53 624 114 q 357 -8 481 -8 m 195 412 l 509 412 l 509 434 q 469 572 509 530 q 353 613 429 613 q 237 570 279 613 q 195 423 195 528 l 195 412 m 153 787 l 305 990 l 399 990 l 551 787 l 449 787 l 353 911 l 255 787 l 153 787 z "},"ë":{"ha":705,"x_min":75,"x_max":629,"o":"m 357 -8 q 151 68 228 -8 q 75 302 75 144 l 75 412 q 151 643 75 567 q 353 719 227 719 q 554 643 479 719 q 629 412 629 567 l 629 326 l 195 326 l 195 292 q 240 141 195 184 q 363 98 285 98 q 469 130 431 98 q 507 216 507 161 l 509 220 l 624 220 l 624 213 q 553 53 624 114 q 357 -8 481 -8 m 195 412 l 509 412 l 509 434 q 469 572 509 530 q 353 613 429 613 q 237 570 279 613 q 195 423 195 528 l 195 412 m 168 807 l 168 940 l 289 940 l 289 807 l 168 807 m 415 807 l 415 940 l 536 940 l 536 807 l 415 807 z "},"ì":{"ha":327,"x_min":-54,"x_max":228,"o":"m 104 0 l 104 709 l 224 709 l 224 0 l 104 0 m 121 802 l -54 979 l 87 979 l 228 802 l 121 802 z "},"í":{"ha":327,"x_min":79,"x_max":362,"o":"m 104 0 l 104 709 l 224 709 l 224 0 l 104 0 m 79 802 l 221 979 l 362 979 l 187 802 l 79 802 z "},"î":{"ha":327,"x_min":-35,"x_max":362,"o":"m 104 0 l 104 709 l 224 709 l 224 0 l 104 0 m -35 787 l 117 990 l 210 990 l 362 787 l 260 787 l 164 911 l 66 787 l -35 787 z "},"ï":{"ha":327,"x_min":-20,"x_max":347,"o":"m 104 0 l 104 709 l 224 709 l 224 0 l 104 0 m -20 807 l -20 940 l 100 940 l 100 807 l -20 807 m 227 807 l 227 940 l 347 940 l 347 807 l 227 807 z "},"ð":{"ha":694,"x_min":75,"x_max":618,"o":"m 346 -14 q 146 65 217 -14 q 75 289 75 144 l 75 359 q 139 576 75 499 q 316 654 203 654 q 368 650 343 654 q 412 635 392 646 l 321 761 l 179 718 l 153 804 l 266 838 l 179 962 l 313 962 l 378 872 l 514 914 l 540 827 l 434 795 l 498 707 q 590 538 562 620 q 618 366 618 456 l 618 297 q 548 66 618 145 q 346 -14 477 -14 m 191 289 q 349 96 191 96 q 502 289 502 96 l 502 361 q 349 549 502 549 q 191 363 191 549 l 191 289 z "},"ñ":{"ha":723,"x_min":95,"x_max":629,"o":"m 95 0 l 95 709 l 212 709 l 212 631 q 291 696 243 674 q 396 719 339 719 q 569 652 509 719 q 629 465 629 585 l 629 0 l 509 0 l 509 449 q 470 570 509 529 q 363 612 431 612 q 256 569 297 612 q 214 449 214 526 l 214 0 l 95 0 m 183 796 l 183 894 q 233 937 210 925 q 285 949 255 949 q 328 943 309 949 q 373 922 347 937 q 410 903 393 910 q 446 895 427 895 q 492 907 472 895 q 543 951 511 920 l 543 852 q 441 798 492 798 q 397 804 415 798 q 351 826 378 810 q 313 845 331 840 q 281 850 296 850 q 234 839 254 850 q 183 796 214 827 z "},"ò":{"ha":704,"x_min":75,"x_max":628,"o":"m 354 -8 q 151 62 227 -8 q 75 285 75 133 l 75 426 q 151 648 75 578 q 354 719 227 719 q 553 648 479 719 q 628 426 628 578 l 628 285 q 553 62 628 133 q 354 -8 479 -8 m 195 289 q 237 143 195 187 q 354 99 279 99 q 467 143 426 99 q 509 289 509 187 l 509 422 q 467 568 509 524 q 354 612 426 612 q 237 568 279 612 q 195 422 195 524 l 195 289 m 336 802 l 161 979 l 302 979 l 444 802 l 336 802 z "},"ó":{"ha":704,"x_min":75,"x_max":628,"o":"m 354 -8 q 151 62 227 -8 q 75 285 75 133 l 75 426 q 151 648 75 578 q 354 719 227 719 q 553 648 479 719 q 628 426 628 578 l 628 285 q 553 62 628 133 q 354 -8 479 -8 m 195 289 q 237 143 195 187 q 354 99 279 99 q 467 143 426 99 q 509 289 509 187 l 509 422 q 467 568 509 524 q 354 612 426 612 q 237 568 279 612 q 195 422 195 524 l 195 289 m 256 802 l 399 979 l 540 979 l 365 802 l 256 802 z "},"ô":{"ha":704,"x_min":75,"x_max":628,"o":"m 354 -8 q 151 62 227 -8 q 75 285 75 133 l 75 426 q 151 648 75 578 q 354 719 227 719 q 553 648 479 719 q 628 426 628 578 l 628 285 q 553 62 628 133 q 354 -8 479 -8 m 195 289 q 237 143 195 187 q 354 99 279 99 q 467 143 426 99 q 509 289 509 187 l 509 422 q 467 568 509 524 q 354 612 426 612 q 237 568 279 612 q 195 422 195 524 l 195 289 m 152 787 l 304 990 l 397 990 l 549 787 l 448 787 l 351 911 l 254 787 l 152 787 z "},"õ":{"ha":704,"x_min":75,"x_max":628,"o":"m 354 -8 q 151 62 227 -8 q 75 285 75 133 l 75 426 q 151 648 75 578 q 354 719 227 719 q 553 648 479 719 q 628 426 628 578 l 628 285 q 553 62 628 133 q 354 -8 479 -8 m 195 289 q 237 143 195 187 q 354 99 279 99 q 467 143 426 99 q 509 289 509 187 l 509 422 q 467 568 509 524 q 354 612 426 612 q 237 568 279 612 q 195 422 195 524 l 195 289 m 171 796 l 171 894 q 220 937 198 925 q 273 949 243 949 q 316 943 297 949 q 361 922 335 937 q 398 903 381 910 q 434 895 415 895 q 479 907 460 895 q 530 951 499 920 l 530 852 q 429 798 480 798 q 385 804 403 798 q 339 826 366 810 q 301 845 319 840 q 269 850 283 850 q 222 839 241 850 q 171 796 202 827 z "},"ö":{"ha":704,"x_min":75,"x_max":628,"o":"m 354 -8 q 151 62 227 -8 q 75 285 75 133 l 75 426 q 151 648 75 578 q 354 719 227 719 q 553 648 479 719 q 628 426 628 578 l 628 285 q 553 62 628 133 q 354 -8 479 -8 m 195 289 q 237 143 195 187 q 354 99 279 99 q 467 143 426 99 q 509 289 509 187 l 509 422 q 467 568 509 524 q 354 612 426 612 q 237 568 279 612 q 195 422 195 524 l 195 289 m 167 807 l 167 940 l 288 940 l 288 807 l 167 807 m 414 807 l 414 940 l 534 940 l 534 807 l 414 807 z "},"÷":{"ha":719,"x_min":75,"x_max":644,"o":"m 75 327 l 75 439 l 644 439 l 644 327 l 75 327 m 359 102 q 306 123 327 102 q 285 176 285 145 q 306 231 285 209 q 359 252 327 252 q 412 231 391 252 q 434 176 434 209 q 413 123 434 145 q 359 102 392 102 m 359 517 q 306 538 327 517 q 285 593 285 560 q 306 646 285 624 q 359 667 327 667 q 412 646 391 667 q 434 593 434 624 q 412 538 434 560 q 359 517 391 517 z "},"ø":{"ha":704,"x_min":75,"x_max":628,"o":"m 75 -42 l 144 69 q 92 159 110 106 q 75 285 75 213 l 75 426 q 151 648 75 578 q 354 719 227 719 q 517 677 452 719 l 559 746 l 628 746 l 562 639 q 611 549 594 602 q 628 426 628 496 l 628 285 q 553 62 628 133 q 354 -8 479 -8 q 190 31 255 -8 l 145 -42 l 75 -42 m 195 289 q 213 183 195 225 l 456 579 q 354 612 419 612 q 237 568 279 612 q 195 422 195 524 l 195 289 m 492 525 l 251 130 q 354 99 289 99 q 467 143 426 99 q 509 289 509 187 l 509 422 q 492 525 509 483 z "},"ù":{"ha":723,"x_min":95,"x_max":629,"o":"m 361 -8 q 161 62 228 -8 q 95 269 95 133 l 95 709 l 214 709 l 214 281 q 247 144 214 190 q 362 99 279 99 q 476 143 444 99 q 509 281 509 187 l 509 709 l 629 709 l 629 269 q 563 62 629 133 q 361 -8 496 -8 m 347 802 l 172 979 l 313 979 l 454 802 l 347 802 z "},"ú":{"ha":723,"x_min":95,"x_max":629,"o":"m 361 -8 q 161 62 228 -8 q 95 269 95 133 l 95 709 l 214 709 l 214 281 q 247 144 214 190 q 362 99 279 99 q 476 143 444 99 q 509 281 509 187 l 509 709 l 629 709 l 629 269 q 563 62 629 133 q 361 -8 496 -8 m 267 802 l 410 979 l 551 979 l 376 802 l 267 802 z "},"û":{"ha":723,"x_min":95,"x_max":629,"o":"m 361 -8 q 161 62 228 -8 q 95 269 95 133 l 95 709 l 214 709 l 214 281 q 247 144 214 190 q 362 99 279 99 q 476 143 444 99 q 509 281 509 187 l 509 709 l 629 709 l 629 269 q 563 62 629 133 q 361 -8 496 -8 m 163 787 l 315 990 l 408 990 l 560 787 l 458 787 l 362 911 l 264 787 l 163 787 z "},"ü":{"ha":723,"x_min":95,"x_max":629,"o":"m 361 -8 q 161 62 228 -8 q 95 269 95 133 l 95 709 l 214 709 l 214 281 q 247 144 214 190 q 362 99 279 99 q 476 143 444 99 q 509 281 509 187 l 509 709 l 629 709 l 629 269 q 563 62 629 133 q 361 -8 496 -8 m 178 807 l 178 940 l 298 940 l 298 807 l 178 807 m 425 807 l 425 940 l 545 940 l 545 807 l 425 807 z "},"ý":{"ha":629,"x_min":16,"x_max":612,"o":"m 98 -213 l 98 -103 l 138 -103 q 210 -85 186 -103 q 250 -22 235 -66 l 260 11 l 16 709 l 146 709 l 316 186 l 487 709 l 612 709 l 342 -72 q 269 -179 316 -145 q 145 -213 221 -213 l 98 -213 m 220 802 l 362 979 l 503 979 l 328 802 l 220 802 z "},"þ":{"ha":711,"x_min":95,"x_max":635,"o":"m 95 -213 l 95 959 l 214 959 l 214 620 q 391 719 273 719 q 567 648 499 719 q 635 427 635 576 l 635 283 q 568 64 635 136 q 397 -8 502 -8 q 213 84 273 -8 l 213 -213 l 95 -213 m 214 290 q 255 151 214 203 q 373 99 296 99 q 514 289 514 99 l 514 422 q 368 612 514 612 q 254 559 293 612 q 214 416 214 506 l 214 290 z "},"ÿ":{"ha":629,"x_min":16,"x_max":612,"o":"m 98 -213 l 98 -103 l 138 -103 q 210 -85 186 -103 q 250 -22 235 -66 l 260 11 l 16 709 l 146 709 l 316 186 l 487 709 l 612 709 l 342 -72 q 269 -179 316 -145 q 145 -213 221 -213 l 98 -213 m 130 807 l 130 940 l 251 940 l 251 807 l 130 807 m 377 807 l 377 940 l 498 940 l 498 807 l 377 807 z "},"Ā":{"ha":814,"x_min":8,"x_max":807,"o":"m 8 0 l 354 959 l 461 959 l 807 0 l 671 0 l 597 216 l 216 216 l 144 0 l 8 0 m 252 323 l 562 323 l 407 780 l 252 323 m 221 1073 l 221 1181 l 593 1181 l 593 1073 l 221 1073 z "},"ā":{"ha":692,"x_min":60,"x_max":598,"o":"m 293 -8 q 121 47 182 -8 q 60 205 60 102 q 123 354 60 300 q 300 408 187 408 l 477 408 l 477 481 q 334 623 477 623 q 233 593 270 623 q 195 511 195 563 l 195 507 l 80 507 l 80 514 q 149 663 80 608 q 332 719 217 719 q 530 658 461 719 q 598 477 598 597 l 598 0 l 480 0 l 480 71 q 402 11 446 30 q 293 -8 358 -8 m 179 206 q 316 88 179 88 q 439 127 401 88 q 477 244 477 167 l 477 323 l 319 323 q 179 206 179 323 m 160 819 l 160 928 l 532 928 l 532 819 l 160 819 z "},"Ă":{"ha":814,"x_min":8,"x_max":807,"o":"m 8 0 l 354 959 l 461 959 l 807 0 l 671 0 l 597 216 l 216 216 l 144 0 l 8 0 m 252 323 l 562 323 l 407 780 l 252 323 m 407 1028 q 270 1078 316 1028 q 224 1222 224 1128 l 224 1245 l 309 1245 l 309 1222 q 336 1137 309 1168 q 407 1107 362 1107 q 478 1137 452 1107 q 505 1222 505 1168 l 505 1245 l 590 1245 l 590 1222 q 544 1078 590 1128 q 407 1028 498 1028 z "},"ă":{"ha":692,"x_min":60,"x_max":598,"o":"m 293 -8 q 121 47 182 -8 q 60 205 60 102 q 123 354 60 300 q 300 408 187 408 l 477 408 l 477 481 q 334 623 477 623 q 233 593 270 623 q 195 511 195 563 l 195 507 l 80 507 l 80 514 q 149 663 80 608 q 332 719 217 719 q 530 658 461 719 q 598 477 598 597 l 598 0 l 480 0 l 480 71 q 402 11 446 30 q 293 -8 358 -8 m 179 206 q 316 88 179 88 q 439 127 401 88 q 477 244 477 167 l 477 323 l 319 323 q 179 206 179 323 m 346 774 q 209 825 255 774 q 163 968 163 875 l 163 991 l 248 991 l 248 968 q 275 884 248 914 q 346 853 301 853 q 417 884 391 853 q 444 968 444 914 l 444 991 l 529 991 l 529 968 q 483 825 529 875 q 346 774 437 774 z "},"Ą":{"ha":814,"x_min":8,"x_max":807,"o":"m 8 0 l 354 959 l 461 959 l 807 0 l 671 0 l 597 216 l 216 216 l 144 0 l 8 0 m 252 323 l 562 323 l 407 780 l 252 323 m 781 -298 q 664 -280 708 -297 q 582 -229 620 -263 q 549 -189 563 -212 q 526 -138 536 -165 l 686 15 l 781 15 l 781 0 l 635 -146 q 698 -195 666 -187 q 781 -202 730 -202 l 781 -298 z "},"ą":{"ha":692,"x_min":60,"x_max":598,"o":"m 293 -8 q 121 47 182 -8 q 60 205 60 102 q 123 354 60 300 q 300 408 187 408 l 477 408 l 477 481 q 334 623 477 623 q 233 593 270 623 q 195 511 195 563 l 195 507 l 80 507 l 80 514 q 149 663 80 608 q 332 719 217 719 q 530 658 461 719 q 598 477 598 597 l 598 0 l 480 0 l 480 71 q 402 11 446 30 q 293 -8 358 -8 m 179 206 q 316 88 179 88 q 439 127 401 88 q 477 244 477 167 l 477 323 l 319 323 q 179 206 179 323 m 594 -298 q 477 -280 521 -297 q 395 -229 433 -263 q 362 -189 376 -212 q 339 -138 349 -165 l 499 15 l 594 15 l 594 0 l 448 -146 q 511 -195 479 -187 q 594 -202 543 -202 l 594 -298 z "},"Ć":{"ha":842,"x_min":84,"x_max":758,"o":"m 425 -11 q 174 79 264 -11 q 84 361 84 170 l 84 600 q 174 881 84 791 q 426 971 264 971 q 601 935 526 971 q 717 831 675 898 q 758 674 758 764 l 758 669 l 629 669 l 629 674 q 575 808 629 758 q 426 857 521 857 q 266 795 319 857 q 213 593 213 734 l 213 358 q 427 104 213 104 q 576 153 522 104 q 629 281 629 202 l 629 288 l 755 288 l 755 281 q 669 69 755 149 q 425 -11 582 -11 m 326 1055 l 468 1233 l 609 1233 l 434 1055 l 326 1055 z "},"ć":{"ha":700,"x_min":75,"x_max":624,"o":"m 357 -8 q 151 62 227 -8 q 75 285 75 133 l 75 426 q 151 648 75 578 q 355 719 228 719 q 552 654 480 719 q 624 477 624 590 l 624 468 l 509 468 l 509 475 q 469 576 509 540 q 359 612 429 612 q 238 568 281 612 q 195 422 195 524 l 195 289 q 239 142 195 186 q 358 99 282 99 q 469 134 429 99 q 509 233 509 170 l 509 240 l 624 240 l 624 233 q 552 57 624 122 q 357 -8 480 -8 m 255 802 l 397 979 l 538 979 l 363 802 l 255 802 z "},"Ĉ":{"ha":836,"x_min":84,"x_max":758,"o":"m 425 -11 q 174 79 264 -11 q 84 361 84 170 l 84 600 q 174 881 84 791 q 426 971 264 971 q 601 935 526 971 q 717 831 675 898 q 758 674 758 764 l 758 669 l 629 669 l 629 674 q 575 808 629 758 q 426 857 521 857 q 266 795 319 857 q 213 593 213 734 l 213 358 q 427 104 213 104 q 576 153 522 104 q 629 281 629 202 l 629 288 l 755 288 l 755 281 q 669 69 755 149 q 425 -11 582 -11 m 225 1035 l 377 1238 l 471 1238 l 623 1035 l 521 1035 l 425 1160 l 327 1035 l 225 1035 z "},"ĉ":{"ha":700,"x_min":75,"x_max":624,"o":"m 357 -8 q 151 62 227 -8 q 75 285 75 133 l 75 426 q 151 648 75 578 q 355 719 228 719 q 552 654 480 719 q 624 477 624 590 l 624 468 l 509 468 l 509 475 q 469 576 509 540 q 359 612 429 612 q 238 568 281 612 q 195 422 195 524 l 195 289 q 239 142 195 186 q 358 99 282 99 q 469 134 429 99 q 509 233 509 170 l 509 240 l 624 240 l 624 233 q 552 57 624 122 q 357 -8 480 -8 m 157 787 l 309 990 l 403 990 l 555 787 l 453 787 l 357 911 l 259 787 l 157 787 z "},"Ċ":{"ha":842,"x_min":84,"x_max":758,"o":"m 425 -11 q 174 79 264 -11 q 84 361 84 170 l 84 600 q 174 881 84 791 q 426 971 264 971 q 601 935 526 971 q 717 831 675 898 q 758 674 758 764 l 758 669 l 629 669 l 629 674 q 575 808 629 758 q 426 857 521 857 q 266 795 319 857 q 213 593 213 734 l 213 358 q 427 104 213 104 q 576 153 522 104 q 629 281 629 202 l 629 288 l 755 288 l 755 281 q 669 69 755 149 q 425 -11 582 -11 m 358 1076 l 358 1204 l 486 1204 l 486 1076 l 358 1076 z "},"ċ":{"ha":700,"x_min":75,"x_max":624,"o":"m 357 -8 q 151 62 227 -8 q 75 285 75 133 l 75 426 q 151 648 75 578 q 355 719 228 719 q 552 654 480 719 q 624 477 624 590 l 624 468 l 509 468 l 509 475 q 469 576 509 540 q 359 612 429 612 q 238 568 281 612 q 195 422 195 524 l 195 289 q 239 142 195 186 q 358 99 282 99 q 469 134 429 99 q 509 233 509 170 l 509 240 l 624 240 l 624 233 q 552 57 624 122 q 357 -8 480 -8 m 288 822 l 288 951 l 415 951 l 415 822 l 288 822 z "},"Č":{"ha":842,"x_min":84,"x_max":758,"o":"m 425 -11 q 174 79 264 -11 q 84 361 84 170 l 84 600 q 174 881 84 791 q 426 971 264 971 q 601 935 526 971 q 717 831 675 898 q 758 674 758 764 l 758 669 l 629 669 l 629 674 q 575 808 629 758 q 426 857 521 857 q 266 795 319 857 q 213 593 213 734 l 213 358 q 427 104 213 104 q 576 153 522 104 q 629 281 629 202 l 629 288 l 755 288 l 755 281 q 669 69 755 149 q 425 -11 582 -11 m 373 1039 l 221 1242 l 323 1242 l 420 1118 l 517 1242 l 618 1242 l 467 1039 l 373 1039 z "},"č":{"ha":700,"x_min":75,"x_max":624,"o":"m 357 -8 q 151 62 227 -8 q 75 285 75 133 l 75 426 q 151 648 75 578 q 355 719 228 719 q 552 654 480 719 q 624 477 624 590 l 624 468 l 509 468 l 509 475 q 469 576 509 540 q 359 612 429 612 q 238 568 281 612 q 195 422 195 524 l 195 289 q 239 142 195 186 q 358 99 282 99 q 469 134 429 99 q 509 233 509 170 l 509 240 l 624 240 l 624 233 q 552 57 624 122 q 357 -8 480 -8 m 302 785 l 151 989 l 252 989 l 350 864 l 446 989 l 548 989 l 396 785 l 302 785 z "},"Ď":{"ha":852,"x_min":102,"x_max":768,"o":"m 102 0 l 102 959 l 433 959 q 678 871 589 959 q 768 587 768 783 l 768 372 q 677 88 768 176 q 431 0 586 0 l 102 0 m 231 114 l 433 114 q 640 369 640 114 l 640 581 q 587 782 640 719 q 433 845 534 845 l 231 845 l 231 114 m 361 1039 l 209 1242 l 311 1242 l 408 1118 l 505 1242 l 606 1242 l 454 1039 l 361 1039 z "},"ď":{"ha":806,"x_min":75,"x_max":766,"o":"m 313 -8 q 142 64 210 -8 q 75 283 75 136 l 75 427 q 142 648 75 576 q 315 719 209 719 q 496 620 434 719 l 496 959 l 616 959 l 616 0 l 496 0 l 496 84 q 313 -8 439 -8 m 197 289 q 338 99 197 99 q 456 151 416 99 q 496 290 496 203 l 496 416 q 458 559 496 506 q 343 612 419 612 q 197 422 197 612 l 197 289 m 663 700 l 663 959 l 766 959 l 766 792 l 663 700 z "},"Đ":{"ha":929,"x_min":53,"x_max":837,"o":"m 170 0 l 170 429 l 53 429 l 53 543 l 170 543 l 170 959 l 502 959 q 747 871 656 959 q 837 587 837 783 l 837 372 q 746 88 837 176 q 499 0 655 0 l 170 0 m 300 114 l 502 114 q 708 369 708 114 l 708 581 q 655 782 708 719 q 502 845 602 845 l 300 845 l 300 543 l 483 543 l 483 429 l 300 429 l 300 114 z "},"đ":{"ha":711,"x_min":75,"x_max":711,"o":"m 340 798 l 340 869 l 496 869 l 496 959 l 616 959 l 616 869 l 711 869 l 711 798 l 616 798 l 616 0 l 496 0 l 496 84 q 313 -8 439 -8 q 142 64 210 -8 q 75 283 75 136 l 75 427 q 142 648 75 576 q 315 719 209 719 q 496 620 434 719 l 496 798 l 340 798 m 197 289 q 338 99 197 99 q 456 151 416 99 q 496 290 496 203 l 496 416 q 458 559 496 506 q 343 612 419 612 q 197 422 197 612 l 197 289 z "},"Ē":{"ha":753,"x_min":102,"x_max":692,"o":"m 102 0 l 102 959 l 692 959 l 692 845 l 231 845 l 231 543 l 625 543 l 625 430 l 231 430 l 231 114 l 692 114 l 692 0 l 102 0 m 190 1073 l 190 1181 l 562 1181 l 562 1073 l 190 1073 z "},"ē":{"ha":705,"x_min":75,"x_max":629,"o":"m 357 -8 q 151 68 228 -8 q 75 302 75 144 l 75 412 q 151 643 75 567 q 353 719 227 719 q 554 643 479 719 q 629 412 629 567 l 629 326 l 195 326 l 195 292 q 240 141 195 184 q 363 98 285 98 q 469 130 431 98 q 507 216 507 161 l 509 220 l 624 220 l 624 213 q 553 53 624 114 q 357 -8 481 -8 m 195 412 l 509 412 l 509 434 q 469 572 509 530 q 353 613 429 613 q 237 570 279 613 q 195 423 195 528 l 195 412 m 167 819 l 167 928 l 538 928 l 538 819 l 167 819 z "},"Ĕ":{"ha":753,"x_min":102,"x_max":692,"o":"m 102 0 l 102 959 l 692 959 l 692 845 l 231 845 l 231 543 l 625 543 l 625 430 l 231 430 l 231 114 l 692 114 l 692 0 l 102 0 m 400 1044 q 263 1095 309 1044 q 217 1238 217 1145 l 217 1261 l 302 1261 l 302 1238 q 329 1154 302 1184 q 400 1123 355 1123 q 471 1154 445 1123 q 498 1238 498 1184 l 498 1261 l 583 1261 l 583 1238 q 537 1095 583 1145 q 400 1044 491 1044 z "},"ĕ":{"ha":705,"x_min":75,"x_max":629,"o":"m 357 -8 q 151 68 228 -8 q 75 302 75 144 l 75 412 q 151 643 75 567 q 353 719 227 719 q 554 643 479 719 q 629 412 629 567 l 629 326 l 195 326 l 195 292 q 240 141 195 184 q 363 98 285 98 q 469 130 431 98 q 507 216 507 161 l 509 220 l 624 220 l 624 213 q 553 53 624 114 q 357 -8 481 -8 m 195 412 l 509 412 l 509 434 q 469 572 509 530 q 353 613 429 613 q 237 570 279 613 q 195 423 195 528 l 195 412 m 353 796 q 216 846 262 796 q 170 990 170 897 l 170 1013 l 255 1013 l 255 990 q 281 905 255 936 q 353 875 308 875 q 424 905 397 875 q 450 990 450 936 l 450 1013 l 536 1013 l 536 990 q 490 846 536 897 q 353 796 444 796 z "},"Ė":{"ha":753,"x_min":102,"x_max":692,"o":"m 102 0 l 102 959 l 692 959 l 692 845 l 231 845 l 231 543 l 625 543 l 625 430 l 231 430 l 231 114 l 692 114 l 692 0 l 102 0 m 313 1076 l 313 1204 l 441 1204 l 441 1076 l 313 1076 z "},"ė":{"ha":705,"x_min":75,"x_max":629,"o":"m 357 -8 q 151 68 228 -8 q 75 302 75 144 l 75 412 q 151 643 75 567 q 353 719 227 719 q 554 643 479 719 q 629 412 629 567 l 629 326 l 195 326 l 195 292 q 240 141 195 184 q 363 98 285 98 q 469 130 431 98 q 507 216 507 161 l 509 220 l 624 220 l 624 213 q 553 53 624 114 q 357 -8 481 -8 m 195 412 l 509 412 l 509 434 q 469 572 509 530 q 353 613 429 613 q 237 570 279 613 q 195 423 195 528 l 195 412 m 290 822 l 290 951 l 418 951 l 418 822 l 290 822 z "},"Ę":{"ha":753,"x_min":102,"x_max":692,"o":"m 102 0 l 102 959 l 692 959 l 692 845 l 231 845 l 231 543 l 625 543 l 625 430 l 231 430 l 231 114 l 692 114 l 692 0 l 102 0 m 692 -298 q 574 -280 618 -297 q 492 -229 530 -263 q 460 -189 473 -212 q 437 -138 446 -165 l 597 15 l 692 15 l 692 0 l 545 -146 q 608 -195 576 -187 q 692 -202 640 -202 l 692 -298 z "},"ę":{"ha":705,"x_min":75,"x_max":629,"o":"m 567 -285 q 448 -267 492 -283 q 368 -216 404 -250 q 334 -175 347 -198 q 311 -125 320 -152 l 418 -4 q 357 -8 389 -8 q 151 68 228 -8 q 75 302 75 144 l 75 412 q 151 643 75 567 q 353 719 227 719 q 554 643 479 719 q 629 412 629 567 l 629 326 l 195 326 l 195 292 q 240 141 195 184 q 363 98 285 98 q 469 130 431 98 q 507 216 507 161 l 509 220 l 624 220 l 624 213 q 545 47 624 107 l 419 -133 q 483 -181 452 -174 q 567 -189 514 -189 l 567 -285 m 195 412 l 509 412 l 509 434 q 469 572 509 530 q 353 613 429 613 q 237 570 279 613 q 195 423 195 528 l 195 412 z "},"Ě":{"ha":753,"x_min":102,"x_max":692,"o":"m 102 0 l 102 959 l 692 959 l 692 845 l 231 845 l 231 543 l 625 543 l 625 430 l 231 430 l 231 114 l 692 114 l 692 0 l 102 0 m 355 1039 l 203 1242 l 305 1242 l 403 1118 l 499 1242 l 601 1242 l 449 1039 l 355 1039 z "},"ě":{"ha":705,"x_min":75,"x_max":629,"o":"m 357 -8 q 151 68 228 -8 q 75 302 75 144 l 75 412 q 151 643 75 567 q 353 719 227 719 q 554 643 479 719 q 629 412 629 567 l 629 326 l 195 326 l 195 292 q 240 141 195 184 q 363 98 285 98 q 469 130 431 98 q 507 216 507 161 l 509 220 l 624 220 l 624 213 q 553 53 624 114 q 357 -8 481 -8 m 195 412 l 509 412 l 509 434 q 469 572 509 530 q 353 613 429 613 q 237 570 279 613 q 195 423 195 528 l 195 412 m 305 785 l 153 989 l 255 989 l 353 864 l 449 989 l 551 989 l 399 785 l 305 785 z "},"Ĝ":{"ha":837,"x_min":84,"x_max":758,"o":"m 423 -11 q 174 79 263 -11 q 84 361 84 170 l 84 600 q 174 881 84 791 q 425 971 264 971 q 600 935 525 971 q 715 831 674 898 q 757 674 757 764 l 757 667 l 628 667 l 628 674 q 574 807 628 757 q 425 857 519 857 q 265 795 317 857 q 213 593 213 732 l 213 358 q 267 167 213 229 q 427 104 320 104 q 580 159 529 104 q 631 330 631 214 l 631 393 l 422 393 l 422 503 l 758 503 l 758 353 q 669 77 758 164 q 423 -11 581 -11 m 224 1035 l 376 1238 l 469 1238 l 621 1035 l 519 1035 l 423 1160 l 326 1035 l 224 1035 z "},"ĝ":{"ha":711,"x_min":75,"x_max":616,"o":"m 345 -222 q 161 -171 229 -222 q 87 -30 94 -119 l 205 -30 q 249 -97 212 -72 q 347 -122 286 -122 q 496 46 496 -122 l 496 141 q 313 47 439 47 q 142 119 210 47 q 75 340 75 190 l 75 431 q 142 651 75 581 q 315 722 209 722 q 420 698 374 722 q 496 624 467 674 l 496 713 l 616 713 l 616 54 q 545 -148 616 -73 q 345 -222 473 -222 m 197 346 q 338 156 197 156 q 456 208 416 156 q 496 347 496 260 l 496 419 q 458 562 496 509 q 343 614 419 614 q 197 425 197 614 l 197 346 m 140 787 l 292 990 l 385 990 l 537 787 l 435 787 l 339 911 l 241 787 l 140 787 z "},"Ğ":{"ha":842,"x_min":84,"x_max":758,"o":"m 423 -11 q 174 79 263 -11 q 84 361 84 170 l 84 600 q 174 881 84 791 q 425 971 264 971 q 600 935 525 971 q 715 831 674 898 q 757 674 757 764 l 757 667 l 628 667 l 628 674 q 574 807 628 757 q 425 857 519 857 q 265 795 317 857 q 213 593 213 732 l 213 358 q 267 167 213 229 q 427 104 320 104 q 580 159 529 104 q 631 330 631 214 l 631 393 l 422 393 l 422 503 l 758 503 l 758 353 q 669 77 758 164 q 423 -11 581 -11 m 427 1020 q 290 1070 336 1020 q 244 1214 244 1120 l 244 1237 l 330 1237 l 330 1214 q 356 1129 330 1160 q 427 1099 382 1099 q 498 1129 472 1099 q 525 1214 525 1160 l 525 1237 l 610 1237 l 610 1214 q 564 1070 610 1120 q 427 1020 518 1020 z "},"ğ":{"ha":711,"x_min":75,"x_max":616,"o":"m 345 -222 q 161 -171 229 -222 q 87 -30 94 -119 l 205 -30 q 249 -97 212 -72 q 347 -122 286 -122 q 496 46 496 -122 l 496 141 q 313 47 439 47 q 142 119 210 47 q 75 340 75 190 l 75 431 q 142 651 75 581 q 315 722 209 722 q 420 698 374 722 q 496 624 467 674 l 496 713 l 616 713 l 616 54 q 545 -148 616 -73 q 345 -222 473 -222 m 197 346 q 338 156 197 156 q 456 208 416 156 q 496 347 496 260 l 496 419 q 458 562 496 509 q 343 614 419 614 q 197 425 197 614 l 197 346 m 368 773 q 231 823 277 773 q 184 967 184 873 l 184 990 l 270 990 l 270 967 q 296 882 270 913 q 368 852 323 852 q 439 882 412 852 q 465 967 465 913 l 465 990 l 551 990 l 551 967 q 505 823 551 873 q 368 773 458 773 z "},"Ġ":{"ha":842,"x_min":84,"x_max":758,"o":"m 423 -11 q 174 79 263 -11 q 84 361 84 170 l 84 600 q 174 881 84 791 q 425 971 264 971 q 600 935 525 971 q 715 831 674 898 q 757 674 757 764 l 757 667 l 628 667 l 628 674 q 574 807 628 757 q 425 857 519 857 q 265 795 317 857 q 213 593 213 732 l 213 358 q 267 167 213 229 q 427 104 320 104 q 580 159 529 104 q 631 330 631 214 l 631 393 l 422 393 l 422 503 l 758 503 l 758 353 q 669 77 758 164 q 423 -11 581 -11 m 358 1076 l 358 1204 l 486 1204 l 486 1076 l 358 1076 z "},"ġ":{"ha":711,"x_min":75,"x_max":616,"o":"m 345 -222 q 161 -171 229 -222 q 87 -30 94 -119 l 205 -30 q 249 -97 212 -72 q 347 -122 286 -122 q 496 46 496 -122 l 496 141 q 313 47 439 47 q 142 119 210 47 q 75 340 75 190 l 75 431 q 142 651 75 581 q 315 722 209 722 q 420 698 374 722 q 496 624 467 674 l 496 713 l 616 713 l 616 54 q 545 -148 616 -73 q 345 -222 473 -222 m 197 346 q 338 156 197 156 q 456 208 416 156 q 496 347 496 260 l 496 419 q 458 562 496 509 q 343 614 419 614 q 197 425 197 614 l 197 346 m 293 822 l 293 951 l 420 951 l 420 822 l 293 822 z "},"Ģ":{"ha":842,"x_min":84,"x_max":758,"o":"m 423 -11 q 174 79 263 -11 q 84 361 84 170 l 84 600 q 174 881 84 791 q 425 971 264 971 q 600 935 525 971 q 715 831 674 898 q 757 674 757 764 l 757 667 l 628 667 l 628 674 q 574 807 628 757 q 425 857 519 857 q 265 795 317 857 q 213 593 213 732 l 213 358 q 267 167 213 229 q 427 104 320 104 q 580 159 529 104 q 631 330 631 214 l 631 393 l 422 393 l 422 503 l 758 503 l 758 353 q 669 77 758 164 q 423 -11 581 -11 m 369 -235 l 369 -50 l 472 -50 l 472 -142 l 369 -235 z "},"ģ":{"ha":711,"x_min":75,"x_max":616,"o":"m 345 -222 q 161 -171 229 -222 q 87 -30 94 -119 l 205 -30 q 249 -97 212 -72 q 347 -122 286 -122 q 496 46 496 -122 l 496 141 q 313 47 439 47 q 142 119 210 47 q 75 340 75 190 l 75 431 q 142 651 75 581 q 315 722 209 722 q 420 698 374 722 q 496 624 467 674 l 496 713 l 616 713 l 616 54 q 545 -148 616 -73 q 345 -222 473 -222 m 197 346 q 338 156 197 156 q 456 208 416 156 q 496 347 496 260 l 496 419 q 458 562 496 509 q 343 614 419 614 q 197 425 197 614 l 197 346 m 290 774 l 290 867 l 393 959 l 393 774 l 290 774 z "},"Ĥ":{"ha":864,"x_min":102,"x_max":762,"o":"m 102 0 l 102 959 l 231 959 l 231 545 l 635 545 l 635 959 l 762 959 l 762 0 l 635 0 l 635 431 l 231 431 l 231 0 l 102 0 m 233 1035 l 385 1238 l 479 1238 l 631 1035 l 529 1035 l 433 1160 l 335 1035 l 233 1035 z "},"ĥ":{"ha":723,"x_min":95,"x_max":629,"o":"m 95 0 l 95 959 l 214 959 l 214 632 q 396 719 278 719 q 568 652 507 719 q 629 465 629 586 l 629 0 l 509 0 l 509 449 q 470 570 509 529 q 363 612 431 612 q 256 569 297 612 q 214 449 214 526 l 214 0 l 95 0 m 180 1035 l 332 1238 l 426 1238 l 578 1035 l 476 1035 l 380 1160 l 282 1035 l 180 1035 z "},"Ħ":{"ha":864,"x_min":41,"x_max":821,"o":"m 41 686 l 41 800 l 102 800 l 102 959 l 231 959 l 231 800 l 635 800 l 635 959 l 762 959 l 762 800 l 821 800 l 821 686 l 762 686 l 762 0 l 635 0 l 635 431 l 231 431 l 231 0 l 102 0 l 102 686 l 41 686 m 635 686 l 231 686 l 231 545 l 635 545 l 635 686 z "},"ħ":{"ha":723,"x_min":14,"x_max":629,"o":"m 14 791 l 14 873 l 95 873 l 95 959 l 214 959 l 214 873 l 396 873 l 396 791 l 214 791 l 214 632 q 396 719 278 719 q 568 652 507 719 q 629 465 629 586 l 629 0 l 509 0 l 509 449 q 470 570 509 529 q 363 612 431 612 q 256 569 297 612 q 214 449 214 526 l 214 0 l 95 0 l 95 791 l 14 791 z "},"Ĩ":{"ha":346,"x_min":-8,"x_max":351,"o":"m 109 0 l 109 959 l 237 959 l 237 0 l 109 0 m -8 1044 l -8 1142 q 41 1185 19 1173 q 94 1198 64 1198 q 137 1192 118 1198 q 182 1171 156 1185 q 219 1151 202 1158 q 255 1143 236 1143 q 300 1156 281 1143 q 351 1199 320 1168 l 351 1100 q 250 1046 301 1046 q 205 1052 224 1046 q 160 1074 187 1058 q 122 1093 140 1088 q 90 1099 104 1099 q 43 1087 62 1099 q -8 1044 23 1076 z "},"ĩ":{"ha":327,"x_min":-16,"x_max":343,"o":"m 104 0 l 104 709 l 224 709 l 224 0 l 104 0 m -16 796 l -16 894 q 33 937 11 925 q 85 949 56 949 q 129 943 110 949 q 174 922 148 937 q 211 903 194 910 q 247 895 228 895 q 292 907 273 895 q 343 951 312 920 l 343 852 q 241 798 293 798 q 197 804 216 798 q 152 826 179 810 q 114 845 132 840 q 81 850 96 850 q 35 839 54 850 q -16 796 15 827 z "},"Ī":{"ha":345,"x_min":-14,"x_max":358,"o":"m 109 0 l 109 959 l 237 959 l 237 0 l 109 0 m -14 1073 l -14 1181 l 358 1181 l 358 1073 l -14 1073 z "},"ī":{"ha":327,"x_min":-22,"x_max":350,"o":"m 104 0 l 104 709 l 224 709 l 224 0 l 104 0 m -22 819 l -22 928 l 350 928 l 350 819 l -22 819 z "},"Ĭ":{"ha":346,"x_min":-11,"x_max":355,"o":"m 109 0 l 109 959 l 237 959 l 237 0 l 109 0 m 172 1044 q 35 1095 81 1044 q -11 1238 -11 1145 l -11 1261 l 75 1261 l 75 1238 q 101 1154 75 1184 q 172 1123 127 1123 q 243 1154 217 1123 q 270 1238 270 1184 l 270 1261 l 355 1261 l 355 1238 q 309 1095 355 1145 q 172 1044 263 1044 z "},"ĭ":{"ha":327,"x_min":-19,"x_max":347,"o":"m 104 0 l 104 709 l 224 709 l 224 0 l 104 0 m 164 796 q 27 846 73 796 q -19 990 -19 897 l -19 1013 l 66 1013 l 66 990 q 93 905 66 936 q 164 875 119 875 q 235 905 209 875 q 262 990 262 936 l 262 1013 l 347 1013 l 347 990 q 301 846 347 897 q 164 796 255 796 z "},"Į":{"ha":345,"x_min":-19,"x_max":237,"o":"m 109 0 l 109 959 l 237 959 l 237 0 l 109 0 m 236 -298 q 119 -280 163 -297 q 37 -229 75 -263 q 4 -189 18 -212 q -19 -138 -9 -165 l 141 15 l 236 15 l 236 0 l 90 -146 q 153 -195 121 -187 q 236 -202 184 -202 l 236 -298 z "},"į":{"ha":327,"x_min":-37,"x_max":221,"o":"m 99 0 l 99 709 l 218 709 l 218 0 l 99 0 m 96 830 l 96 959 l 221 959 l 221 830 l 96 830 m 220 -298 q 101 -280 145 -297 q 20 -229 57 -263 q -14 -189 0 -212 q -37 -138 -27 -165 l 118 1 l 220 15 l 220 0 l 72 -146 q 136 -195 104 -187 q 220 -202 167 -202 l 220 -298 z "},"İ":{"ha":345,"x_min":109,"x_max":237,"o":"m 109 0 l 109 959 l 237 959 l 237 0 l 109 0 m 109 1093 l 109 1222 l 236 1222 l 236 1093 l 109 1093 z "},"ı":{"ha":327,"x_min":104,"x_max":224,"o":"m 104 0 l 104 709 l 224 709 l 224 0 l 104 0 z "},"Ĳ":{"ha":872,"x_min":102,"x_max":770,"o":"m 437 -8 q 286 23 355 -8 q 172 111 217 54 q 111 241 126 167 l 243 241 q 307 142 262 179 q 437 104 353 104 q 587 163 530 104 q 643 321 643 222 l 643 959 l 770 959 l 770 313 q 726 147 770 220 q 607 33 682 75 q 437 -8 532 -8 m 102 477 l 102 959 l 231 959 l 231 477 l 102 477 z "},"ĳ":{"ha":675,"x_min":95,"x_max":582,"o":"m 346 -222 q 182 -173 250 -222 q 107 -30 114 -123 l 224 -30 q 264 -98 231 -73 q 339 -122 297 -122 q 463 46 463 -122 l 463 141 q 404 73 441 94 q 315 52 368 52 q 214 82 264 52 q 129 176 163 113 q 95 340 95 240 l 95 709 l 216 709 l 216 346 q 247 209 216 251 q 335 167 278 167 q 431 216 400 167 q 461 347 461 266 l 461 709 l 582 709 l 582 54 q 522 -145 582 -68 q 346 -222 463 -222 m 461 829 l 461 959 l 582 959 l 582 829 l 461 829 m 98 830 l 98 959 l 218 959 l 218 830 l 98 830 z "},"Ĵ":{"ha":442,"x_min":41,"x_max":465,"o":"m 41 0 l 41 115 l 118 115 q 184 138 164 115 q 203 214 203 160 l 203 959 l 331 959 l 331 197 q 283 51 331 102 q 142 0 235 0 l 41 0 m 68 1035 l 220 1238 l 313 1238 l 465 1035 l 363 1035 l 267 1160 l 170 1035 l 68 1035 z "},"ĵ":{"ha":320,"x_min":-43,"x_max":354,"o":"m -43 -213 l -43 -106 l 14 -106 q 77 -83 57 -106 q 96 -9 96 -60 l 96 709 l 216 709 l 216 -16 q 168 -162 216 -111 q 28 -213 121 -213 l -43 -213 m -43 787 l 109 990 l 202 990 l 354 787 l 252 787 l 156 911 l 58 787 l -43 787 z "},"Ķ":{"ha":836,"x_min":102,"x_max":826,"o":"m 102 0 l 102 959 l 231 959 l 231 437 l 635 959 l 788 959 l 484 581 l 826 0 l 677 0 l 403 479 l 231 266 l 231 0 l 102 0 m 366 -235 l 366 -50 l 469 -50 l 469 -142 l 366 -235 z "},"ķ":{"ha":697,"x_min":95,"x_max":674,"o":"m 95 0 l 95 959 l 214 959 l 214 361 l 498 709 l 642 709 l 408 437 l 674 0 l 528 0 l 328 345 l 214 212 l 214 0 l 95 0 m 297 -235 l 297 -50 l 400 -50 l 400 -142 l 297 -235 z "},"Ĺ":{"ha":728,"x_min":102,"x_max":688,"o":"m 102 0 l 102 959 l 231 959 l 231 114 l 688 114 l 688 0 l 102 0 m 134 1055 l 277 1233 l 418 1233 l 243 1055 l 134 1055 z "},"ĺ":{"ha":385,"x_min":95,"x_max":381,"o":"m 283 0 q 144 51 193 0 q 95 197 95 102 l 95 959 l 214 959 l 214 203 q 234 130 214 152 q 297 107 254 107 l 354 107 l 354 0 l 283 0 m 98 1055 l 240 1233 l 381 1233 l 206 1055 l 98 1055 z "},"Ļ":{"ha":728,"x_min":102,"x_max":688,"o":"m 102 0 l 102 959 l 231 959 l 231 114 l 688 114 l 688 0 l 102 0 m 312 -235 l 312 -50 l 415 -50 l 415 -142 l 312 -235 z "},"ļ":{"ha":385,"x_min":95,"x_max":354,"o":"m 283 0 q 144 51 193 0 q 95 197 95 102 l 95 959 l 214 959 l 214 203 q 234 130 214 152 q 297 107 254 107 l 354 107 l 354 0 l 283 0 m 141 -235 l 141 -50 l 244 -50 l 244 -142 l 141 -235 z "},"Ľ":{"ha":728,"x_min":102,"x_max":688,"o":"m 102 0 l 102 959 l 231 959 l 231 114 l 688 114 l 688 0 l 102 0 m 326 700 l 326 959 l 429 959 l 429 792 l 326 700 z "},"ľ":{"ha":397,"x_min":95,"x_max":404,"o":"m 283 0 q 144 51 193 0 q 95 197 95 102 l 95 959 l 214 959 l 214 203 q 234 130 214 152 q 297 107 254 107 l 354 107 l 354 0 l 283 0 m 301 700 l 301 959 l 404 959 l 404 792 l 301 700 z "},"Ł":{"ha":728,"x_min":56,"x_max":688,"o":"m 56 434 l 57 537 l 102 556 l 102 959 l 231 959 l 231 609 l 357 662 l 357 559 l 231 506 l 231 114 l 688 114 l 688 0 l 102 0 l 102 453 l 56 434 z "},"ł":{"ha":385,"x_min":15,"x_max":354,"o":"m 15 444 l 16 547 l 95 579 l 95 959 l 214 959 l 214 629 l 316 671 l 316 568 l 214 526 l 214 203 q 234 130 214 152 q 297 107 254 107 l 354 107 l 354 0 l 283 0 q 144 51 193 0 q 95 197 95 102 l 95 476 l 15 444 z "},"Ń":{"ha":906,"x_min":102,"x_max":806,"o":"m 102 0 l 102 959 l 231 959 l 678 245 l 678 959 l 806 959 l 806 0 l 678 0 l 231 713 l 231 0 l 102 0 m 358 1055 l 500 1233 l 642 1233 l 467 1055 l 358 1055 z "},"ń":{"ha":723,"x_min":95,"x_max":629,"o":"m 95 0 l 95 709 l 212 709 l 212 631 q 291 696 243 674 q 396 719 339 719 q 569 652 509 719 q 629 465 629 585 l 629 0 l 509 0 l 509 449 q 470 570 509 529 q 363 612 431 612 q 256 569 297 612 q 214 449 214 526 l 214 0 l 95 0 m 267 802 l 410 979 l 551 979 l 376 802 l 267 802 z "},"Ņ":{"ha":906,"x_min":102,"x_max":806,"o":"m 102 0 l 102 959 l 231 959 l 678 245 l 678 959 l 806 959 l 806 0 l 678 0 l 231 713 l 231 0 l 102 0 m 401 -235 l 401 -50 l 505 -50 l 505 -142 l 401 -235 z "},"ņ":{"ha":723,"x_min":95,"x_max":629,"o":"m 95 0 l 95 709 l 212 709 l 212 631 q 291 696 243 674 q 396 719 339 719 q 569 652 509 719 q 629 465 629 585 l 629 0 l 509 0 l 509 449 q 470 570 509 529 q 363 612 431 612 q 256 569 297 612 q 214 449 214 526 l 214 0 l 95 0 m 311 -235 l 311 -50 l 414 -50 l 414 -142 l 311 -235 z "},"Ň":{"ha":906,"x_min":102,"x_max":806,"o":"m 102 0 l 102 959 l 231 959 l 678 245 l 678 959 l 806 959 l 806 0 l 678 0 l 231 713 l 231 0 l 102 0 m 406 1039 l 254 1242 l 355 1242 l 453 1118 l 549 1242 l 651 1242 l 499 1039 l 406 1039 z "},"ň":{"ha":723,"x_min":95,"x_max":629,"o":"m 95 0 l 95 709 l 212 709 l 212 631 q 291 696 243 674 q 396 719 339 719 q 569 652 509 719 q 629 465 629 585 l 629 0 l 509 0 l 509 449 q 470 570 509 529 q 363 612 431 612 q 256 569 297 612 q 214 449 214 526 l 214 0 l 95 0 m 315 785 l 163 989 l 264 989 l 362 864 l 458 989 l 560 989 l 408 785 l 315 785 z "},"Ŋ":{"ha":906,"x_min":102,"x_max":806,"o":"m 547 -235 l 547 -127 l 618 -127 q 666 -113 654 -127 q 678 -56 678 -98 l 678 0 l 231 713 l 231 0 l 102 0 l 102 959 l 231 959 l 678 245 l 678 959 l 806 959 l 806 -34 q 758 -186 806 -137 q 617 -235 709 -235 l 547 -235 z "},"ŋ":{"ha":723,"x_min":95,"x_max":631,"o":"m 372 -235 l 372 -127 l 430 -127 q 491 -105 473 -127 q 509 -30 509 -83 l 509 449 q 470 570 509 529 q 363 612 431 612 q 256 569 297 612 q 214 449 214 526 l 214 0 l 95 0 l 95 709 l 212 709 l 212 631 q 291 696 243 674 q 396 719 339 719 q 570 652 509 719 q 631 465 631 585 l 631 -34 q 585 -192 631 -149 q 442 -235 538 -235 l 372 -235 z "},"Ō":{"ha":842,"x_min":84,"x_max":758,"o":"m 419 -11 q 172 79 260 -11 q 84 361 84 170 l 84 600 q 173 881 84 791 q 422 971 262 971 q 667 883 576 971 q 758 600 758 795 l 758 361 q 666 77 758 165 q 419 -11 574 -11 m 213 358 q 265 165 213 225 q 422 104 317 104 q 629 358 629 104 l 629 593 q 422 857 629 857 q 264 795 316 857 q 213 593 213 732 l 213 358 m 235 1073 l 235 1181 l 606 1181 l 606 1073 l 235 1073 z "},"ō":{"ha":704,"x_min":75,"x_max":628,"o":"m 354 -8 q 151 62 227 -8 q 75 285 75 133 l 75 426 q 151 648 75 578 q 354 719 227 719 q 553 648 479 719 q 628 426 628 578 l 628 285 q 553 62 628 133 q 354 -8 479 -8 m 195 289 q 237 143 195 187 q 354 99 279 99 q 467 143 426 99 q 509 289 509 187 l 509 422 q 467 568 509 524 q 354 612 426 612 q 237 568 279 612 q 195 422 195 524 l 195 289 m 165 819 l 165 928 l 537 928 l 537 819 l 165 819 z "},"Ŏ":{"ha":842,"x_min":84,"x_max":758,"o":"m 419 -11 q 172 79 260 -11 q 84 361 84 170 l 84 600 q 173 881 84 791 q 422 971 262 971 q 667 883 576 971 q 758 600 758 795 l 758 361 q 666 77 758 165 q 419 -11 574 -11 m 213 358 q 265 165 213 225 q 422 104 317 104 q 629 358 629 104 l 629 593 q 422 857 629 857 q 264 795 316 857 q 213 593 213 732 l 213 358 m 416 1044 q 279 1095 326 1044 q 233 1238 233 1145 l 233 1261 l 319 1261 l 319 1238 q 345 1154 319 1184 q 416 1123 372 1123 q 488 1154 461 1123 q 514 1238 514 1184 l 514 1261 l 600 1261 l 600 1238 q 553 1095 600 1145 q 416 1044 507 1044 z "},"ŏ":{"ha":704,"x_min":75,"x_max":628,"o":"m 354 -8 q 151 62 227 -8 q 75 285 75 133 l 75 426 q 151 648 75 578 q 354 719 227 719 q 553 648 479 719 q 628 426 628 578 l 628 285 q 553 62 628 133 q 354 -8 479 -8 m 195 289 q 237 143 195 187 q 354 99 279 99 q 467 143 426 99 q 509 289 509 187 l 509 422 q 467 568 509 524 q 354 612 426 612 q 237 568 279 612 q 195 422 195 524 l 195 289 m 354 796 q 217 846 263 796 q 171 990 171 897 l 171 1013 l 256 1013 l 256 990 q 283 905 256 936 q 354 875 309 875 q 425 905 399 875 q 452 990 452 936 l 452 1013 l 537 1013 l 537 990 q 491 846 537 897 q 354 796 445 796 z "},"Ő":{"ha":842,"x_min":84,"x_max":758,"o":"m 419 -11 q 172 79 260 -11 q 84 361 84 170 l 84 600 q 173 881 84 791 q 422 971 262 971 q 667 883 576 971 q 758 600 758 795 l 758 361 q 666 77 758 165 q 419 -11 574 -11 m 213 358 q 265 165 213 225 q 422 104 317 104 q 629 358 629 104 l 629 593 q 422 857 629 857 q 264 795 316 857 q 213 593 213 732 l 213 358 m 252 1055 l 393 1233 l 534 1233 l 361 1055 l 252 1055 m 469 1055 l 610 1233 l 751 1233 l 578 1055 l 469 1055 z "},"ő":{"ha":704,"x_min":75,"x_max":684,"o":"m 354 -8 q 151 62 227 -8 q 75 285 75 133 l 75 426 q 151 648 75 578 q 354 719 227 719 q 553 648 479 719 q 628 426 628 578 l 628 285 q 553 62 628 133 q 354 -8 479 -8 m 195 289 q 237 143 195 187 q 354 99 279 99 q 467 143 426 99 q 509 289 509 187 l 509 422 q 467 568 509 524 q 354 612 426 612 q 237 568 279 612 q 195 422 195 524 l 195 289 m 184 802 l 326 979 l 467 979 l 293 802 l 184 802 m 401 802 l 543 979 l 684 979 l 510 802 l 401 802 z "},"Œ":{"ha":1229,"x_min":84,"x_max":1169,"o":"m 415 -11 q 174 77 263 -11 q 84 361 84 165 l 84 600 q 175 882 84 793 q 416 971 266 971 q 635 899 551 971 l 635 959 l 1169 959 l 1169 845 l 757 845 l 758 543 l 1101 543 l 1101 430 l 758 430 l 757 114 l 1169 114 l 1169 0 l 635 0 l 635 60 q 415 -11 551 -11 m 213 358 q 265 165 213 225 q 422 104 317 104 q 629 358 629 104 l 629 593 q 422 857 629 857 q 264 795 316 857 q 213 593 213 732 l 213 358 z "},"œ":{"ha":1137,"x_min":75,"x_max":1062,"o":"m 354 -8 q 151 62 227 -8 q 75 285 75 133 l 75 426 q 151 648 75 578 q 354 719 227 719 q 571 627 503 719 q 661 696 606 674 q 785 719 716 719 q 987 643 911 719 q 1062 412 1062 567 l 1062 326 l 628 326 l 628 292 q 673 141 628 184 q 796 98 718 98 q 902 130 864 98 q 941 216 940 161 l 941 220 l 1057 220 l 1057 213 q 985 53 1057 114 q 789 -8 914 -8 q 571 85 643 -8 q 354 -8 502 -8 m 195 289 q 237 143 195 187 q 354 99 279 99 q 467 143 426 99 q 509 289 509 187 l 509 422 q 467 568 509 524 q 354 612 426 612 q 237 568 279 612 q 195 422 195 524 l 195 289 m 628 412 l 941 412 l 941 434 q 901 572 941 530 q 787 613 860 613 q 672 575 716 613 q 628 434 628 537 l 628 412 z "},"Ŕ":{"ha":831,"x_min":102,"x_max":781,"o":"m 102 0 l 102 959 l 460 959 q 675 886 597 959 q 754 684 754 812 q 704 517 754 583 q 562 426 654 450 l 781 0 l 633 0 l 429 410 l 231 410 l 231 0 l 102 0 m 231 519 l 452 519 q 581 562 536 519 q 627 682 627 605 q 581 804 627 762 q 452 845 536 845 l 231 845 l 231 519 m 320 1055 l 463 1233 l 604 1233 l 429 1055 l 320 1055 z "},"ŕ":{"ha":477,"x_min":95,"x_max":446,"o":"m 95 0 l 95 709 l 212 709 l 212 623 q 288 698 240 674 q 393 722 335 722 q 446 718 420 722 l 446 601 q 369 613 408 613 q 258 567 301 613 q 214 442 214 521 l 214 0 l 95 0 m 144 802 l 286 979 l 427 979 l 252 802 l 144 802 z "},"Ŗ":{"ha":831,"x_min":102,"x_max":781,"o":"m 102 0 l 102 959 l 460 959 q 675 886 597 959 q 754 684 754 812 q 704 517 754 583 q 562 426 654 450 l 781 0 l 633 0 l 429 410 l 231 410 l 231 0 l 102 0 m 231 519 l 452 519 q 581 562 536 519 q 627 682 627 605 q 581 804 627 762 q 452 845 536 845 l 231 845 l 231 519 m 363 -235 l 363 -50 l 467 -50 l 467 -142 l 363 -235 z "},"ŗ":{"ha":477,"x_min":95,"x_max":446,"o":"m 95 0 l 95 709 l 212 709 l 212 623 q 288 698 240 674 q 393 722 335 722 q 446 718 420 722 l 446 601 q 369 613 408 613 q 258 567 301 613 q 214 442 214 521 l 214 0 l 95 0 m 104 -235 l 104 -50 l 208 -50 l 208 -142 l 104 -235 z "},"Ř":{"ha":831,"x_min":102,"x_max":781,"o":"m 102 0 l 102 959 l 460 959 q 675 886 597 959 q 754 684 754 812 q 704 517 754 583 q 562 426 654 450 l 781 0 l 633 0 l 429 410 l 231 410 l 231 0 l 102 0 m 231 519 l 452 519 q 581 562 536 519 q 627 682 627 605 q 581 804 627 762 q 452 845 536 845 l 231 845 l 231 519 m 369 1039 l 217 1242 l 319 1242 l 416 1118 l 513 1242 l 614 1242 l 463 1039 l 369 1039 z "},"ř":{"ha":477,"x_min":39,"x_max":446,"o":"m 95 0 l 95 709 l 212 709 l 212 623 q 288 698 240 674 q 393 722 335 722 q 446 718 420 722 l 446 601 q 369 613 408 613 q 258 567 301 613 q 214 442 214 521 l 214 0 l 95 0 m 191 785 l 39 989 l 141 989 l 239 864 l 335 989 l 437 989 l 285 785 l 191 785 z "},"Ś":{"ha":760,"x_min":42,"x_max":700,"o":"m 368 -8 q 137 64 220 -8 q 42 274 54 137 l 42 288 l 167 288 l 167 274 q 229 146 178 189 q 376 103 279 103 q 574 264 574 103 q 534 374 574 336 q 412 425 494 411 l 309 441 q 125 524 189 461 q 62 696 62 586 q 149 898 62 825 q 374 971 235 971 q 589 902 507 971 q 685 699 671 833 l 685 669 l 560 669 l 560 699 q 373 861 547 861 q 235 820 283 861 q 187 705 187 779 q 227 606 187 642 q 345 555 266 570 l 453 536 q 637 451 574 515 q 700 274 700 387 q 610 65 700 138 q 368 -8 521 -8 m 285 1055 l 427 1233 l 568 1233 l 393 1055 l 285 1055 z "},"ś":{"ha":647,"x_min":60,"x_max":594,"o":"m 321 -8 q 131 50 202 -8 q 60 202 60 107 l 60 209 l 175 209 l 175 203 q 216 121 175 151 q 326 91 256 91 q 438 119 397 91 q 479 201 479 148 q 450 270 479 247 q 357 304 420 293 l 273 319 q 119 382 168 338 q 71 511 71 427 q 142 663 71 608 q 324 719 213 719 q 513 663 442 719 q 585 521 585 608 l 585 513 l 471 513 l 471 517 q 432 594 471 566 q 326 623 393 623 q 222 594 259 623 q 186 518 186 566 q 212 453 186 476 q 297 420 239 430 l 388 406 q 543 340 492 387 q 594 209 594 294 q 519 49 594 106 q 321 -8 445 -8 m 228 802 l 370 979 l 511 979 l 336 802 l 228 802 z "},"Ŝ":{"ha":760,"x_min":42,"x_max":700,"o":"m 368 -8 q 137 64 220 -8 q 42 274 54 137 l 42 288 l 167 288 l 167 274 q 229 146 178 189 q 376 103 279 103 q 574 264 574 103 q 534 374 574 336 q 412 425 494 411 l 309 441 q 125 524 189 461 q 62 696 62 586 q 149 898 62 825 q 374 971 235 971 q 589 902 507 971 q 685 699 671 833 l 685 669 l 560 669 l 560 699 q 373 861 547 861 q 235 820 283 861 q 187 705 187 779 q 227 606 187 642 q 345 555 266 570 l 453 536 q 637 451 574 515 q 700 274 700 387 q 610 65 700 138 q 368 -8 521 -8 m 167 1035 l 319 1238 l 412 1238 l 564 1035 l 463 1035 l 366 1160 l 269 1035 l 167 1035 z "},"ŝ":{"ha":647,"x_min":60,"x_max":594,"o":"m 321 -8 q 131 50 202 -8 q 60 202 60 107 l 60 209 l 175 209 l 175 203 q 216 121 175 151 q 326 91 256 91 q 438 119 397 91 q 479 201 479 148 q 450 270 479 247 q 357 304 420 293 l 273 319 q 119 382 168 338 q 71 511 71 427 q 142 663 71 608 q 324 719 213 719 q 513 663 442 719 q 585 521 585 608 l 585 513 l 471 513 l 471 517 q 432 594 471 566 q 326 623 393 623 q 222 594 259 623 q 186 518 186 566 q 212 453 186 476 q 297 420 239 430 l 388 406 q 543 340 492 387 q 594 209 594 294 q 519 49 594 106 q 321 -8 445 -8 m 126 787 l 278 990 l 372 990 l 524 787 l 422 787 l 326 911 l 228 787 l 126 787 z "},"Ş":{"ha":760,"x_min":42,"x_max":700,"o":"m 368 -8 q 137 64 220 -8 q 42 274 54 137 l 42 288 l 167 288 l 167 274 q 229 146 178 189 q 376 103 279 103 q 574 264 574 103 q 534 374 574 336 q 412 425 494 411 l 309 441 q 125 524 189 461 q 62 696 62 586 q 149 898 62 825 q 374 971 235 971 q 589 902 507 971 q 685 699 671 833 l 685 669 l 560 669 l 560 699 q 373 861 547 861 q 235 820 283 861 q 187 705 187 779 q 227 606 187 642 q 345 555 266 570 l 453 536 q 637 451 574 515 q 700 274 700 387 q 610 65 700 138 q 368 -8 521 -8 m 247 -212 l 336 16 l 438 16 l 365 -212 l 247 -212 z "},"ş":{"ha":647,"x_min":60,"x_max":594,"o":"m 321 -8 q 131 50 202 -8 q 60 202 60 107 l 60 209 l 175 209 l 175 203 q 216 121 175 151 q 326 91 256 91 q 438 119 397 91 q 479 201 479 148 q 450 270 479 247 q 357 304 420 293 l 273 319 q 119 382 168 338 q 71 511 71 427 q 142 663 71 608 q 324 719 213 719 q 513 663 442 719 q 585 521 585 608 l 585 513 l 471 513 l 471 517 q 432 594 471 566 q 326 623 393 623 q 222 594 259 623 q 186 518 186 566 q 212 453 186 476 q 297 420 239 430 l 388 406 q 543 340 492 387 q 594 209 594 294 q 519 49 594 106 q 321 -8 445 -8 m 209 -212 l 298 16 l 400 16 l 327 -212 l 209 -212 z "},"Š":{"ha":760,"x_min":42,"x_max":700,"o":"m 368 -8 q 137 64 220 -8 q 42 274 54 137 l 42 288 l 167 288 l 167 274 q 229 146 178 189 q 376 103 279 103 q 574 264 574 103 q 534 374 574 336 q 412 425 494 411 l 309 441 q 125 524 189 461 q 62 696 62 586 q 149 898 62 825 q 374 971 235 971 q 589 902 507 971 q 685 699 671 833 l 685 669 l 560 669 l 560 699 q 373 861 547 861 q 235 820 283 861 q 187 705 187 779 q 227 606 187 642 q 345 555 266 570 l 453 536 q 637 451 574 515 q 700 274 700 387 q 610 65 700 138 q 368 -8 521 -8 m 332 1032 l 180 1236 l 282 1236 l 380 1111 l 476 1236 l 578 1236 l 426 1032 l 332 1032 z "},"š":{"ha":647,"x_min":60,"x_max":594,"o":"m 321 -8 q 131 50 202 -8 q 60 202 60 107 l 60 209 l 175 209 l 175 203 q 216 121 175 151 q 326 91 256 91 q 438 119 397 91 q 479 201 479 148 q 450 270 479 247 q 357 304 420 293 l 273 319 q 119 382 168 338 q 71 511 71 427 q 142 663 71 608 q 324 719 213 719 q 513 663 442 719 q 585 521 585 608 l 585 513 l 471 513 l 471 517 q 432 594 471 566 q 326 623 393 623 q 222 594 259 623 q 186 518 186 566 q 212 453 186 476 q 297 420 239 430 l 388 406 q 543 340 492 387 q 594 209 594 294 q 519 49 594 106 q 321 -8 445 -8 m 277 785 l 125 989 l 227 989 l 324 864 l 420 989 l 522 989 l 370 785 l 277 785 z "},"Ţ":{"ha":675,"x_min":9,"x_max":666,"o":"m 274 0 l 274 845 l 9 845 l 9 959 l 666 959 l 666 845 l 403 845 l 403 0 l 274 0 m 203 -212 l 293 16 l 395 16 l 321 -212 l 203 -212 z "},"ţ":{"ha":477,"x_min":43,"x_max":422,"o":"m 335 0 q 199 50 248 0 q 149 186 149 100 l 149 620 l 43 620 l 43 709 l 149 709 l 149 865 l 270 914 l 270 709 l 422 709 l 422 620 l 270 620 l 270 193 q 354 104 270 104 l 410 104 l 410 0 l 335 0 m 202 -212 l 292 16 l 393 16 l 320 -212 l 202 -212 z "},"Ť":{"ha":675,"x_min":9,"x_max":666,"o":"m 274 0 l 274 845 l 9 845 l 9 959 l 666 959 l 666 845 l 403 845 l 403 0 l 274 0 m 290 1039 l 138 1242 l 240 1242 l 338 1118 l 434 1242 l 536 1242 l 384 1039 l 290 1039 z "},"ť":{"ha":477,"x_min":43,"x_max":453,"o":"m 335 0 q 199 50 248 0 q 149 186 149 100 l 149 620 l 43 620 l 43 709 l 149 709 l 149 865 l 270 914 l 270 709 l 422 709 l 422 620 l 270 620 l 270 193 q 354 104 270 104 l 410 104 l 410 0 l 335 0 m 350 742 l 350 1001 l 453 1001 l 453 834 l 350 742 z "},"Ŧ":{"ha":675,"x_min":9,"x_max":666,"o":"m 274 0 l 274 845 l 9 845 l 9 959 l 666 959 l 666 845 l 403 845 l 403 0 l 274 0 m 152 403 l 152 511 l 524 511 l 524 403 l 152 403 z "},"ŧ":{"ha":477,"x_min":43,"x_max":422,"o":"m 43 403 l 43 494 l 149 494 l 149 620 l 43 620 l 43 709 l 149 709 l 149 865 l 270 914 l 270 709 l 422 709 l 422 620 l 270 620 l 270 494 l 422 494 l 422 403 l 270 403 l 270 193 q 354 104 270 104 l 410 104 l 410 0 l 335 0 q 199 50 248 0 q 149 186 149 100 l 149 403 l 43 403 z "},"Ũ":{"ha":868,"x_min":102,"x_max":770,"o":"m 437 -8 q 266 33 342 -8 q 146 147 190 75 q 102 313 102 220 l 102 959 l 231 959 l 231 321 q 286 163 231 222 q 437 104 342 104 q 587 163 530 104 q 643 321 643 222 l 643 959 l 770 959 l 770 313 q 726 147 770 220 q 607 33 682 75 q 437 -8 532 -8 m 254 1044 l 254 1142 q 303 1185 281 1173 q 355 1198 326 1198 q 399 1192 380 1198 q 444 1171 418 1185 q 481 1151 464 1158 q 517 1143 498 1143 q 562 1156 543 1143 q 613 1199 582 1168 l 613 1100 q 511 1046 563 1046 q 467 1052 486 1046 q 422 1074 449 1058 q 384 1093 401 1088 q 351 1099 366 1099 q 304 1087 324 1099 q 254 1044 285 1076 z "},"ũ":{"ha":723,"x_min":95,"x_max":629,"o":"m 361 -8 q 161 62 228 -8 q 95 269 95 133 l 95 709 l 214 709 l 214 281 q 247 144 214 190 q 362 99 279 99 q 476 143 444 99 q 509 281 509 187 l 509 709 l 629 709 l 629 269 q 563 62 629 133 q 361 -8 496 -8 m 182 796 l 182 894 q 231 937 209 925 q 283 949 254 949 q 327 943 308 949 q 372 922 346 937 q 409 903 392 910 q 445 895 426 895 q 490 907 471 895 q 541 951 510 920 l 541 852 q 439 798 491 798 q 395 804 414 798 q 350 826 377 810 q 312 845 330 840 q 279 850 294 850 q 233 839 252 850 q 182 796 213 827 z "},"Ū":{"ha":872,"x_min":102,"x_max":770,"o":"m 437 -8 q 266 33 342 -8 q 146 147 190 75 q 102 313 102 220 l 102 959 l 231 959 l 231 321 q 286 163 231 222 q 437 104 342 104 q 587 163 530 104 q 643 321 643 222 l 643 959 l 770 959 l 770 313 q 726 147 770 220 q 607 33 682 75 q 437 -8 532 -8 m 250 1073 l 250 1181 l 621 1181 l 621 1073 l 250 1073 z "},"ū":{"ha":723,"x_min":95,"x_max":629,"o":"m 361 -8 q 161 62 228 -8 q 95 269 95 133 l 95 709 l 214 709 l 214 281 q 247 144 214 190 q 362 99 279 99 q 476 143 444 99 q 509 281 509 187 l 509 709 l 629 709 l 629 269 q 563 62 629 133 q 361 -8 496 -8 m 176 819 l 176 928 l 548 928 l 548 819 l 176 819 z "},"Ŭ":{"ha":872,"x_min":102,"x_max":770,"o":"m 437 -8 q 266 33 342 -8 q 146 147 190 75 q 102 313 102 220 l 102 959 l 231 959 l 231 321 q 286 163 231 222 q 437 104 342 104 q 587 163 530 104 q 643 321 643 222 l 643 959 l 770 959 l 770 313 q 726 147 770 220 q 607 33 682 75 q 437 -8 532 -8 m 437 1034 q 300 1084 346 1034 q 254 1227 254 1134 l 254 1251 l 339 1251 l 339 1227 q 366 1143 339 1173 q 437 1112 392 1112 q 508 1143 481 1112 q 534 1227 534 1173 l 534 1251 l 620 1251 l 620 1227 q 574 1084 620 1134 q 437 1034 528 1034 z "},"ŭ":{"ha":723,"x_min":95,"x_max":629,"o":"m 361 -8 q 161 62 228 -8 q 95 269 95 133 l 95 709 l 214 709 l 214 281 q 247 144 214 190 q 362 99 279 99 q 476 143 444 99 q 509 281 509 187 l 509 709 l 629 709 l 629 269 q 563 62 629 133 q 361 -8 496 -8 m 361 789 q 224 840 270 789 q 178 983 178 890 l 178 1006 l 263 1006 l 263 983 q 290 899 263 929 q 361 868 316 868 q 432 899 406 868 q 458 983 458 929 l 458 1006 l 544 1006 l 544 983 q 498 840 544 890 q 361 789 452 789 z "},"Ů":{"ha":872,"x_min":102,"x_max":770,"o":"m 437 -8 q 266 33 342 -8 q 146 147 190 75 q 102 313 102 220 l 102 959 l 231 959 l 231 321 q 286 163 231 222 q 437 104 342 104 q 587 163 530 104 q 643 321 643 222 l 643 959 l 770 959 l 770 313 q 726 147 770 220 q 607 33 682 75 q 437 -8 532 -8 m 435 996 q 341 1034 378 996 q 304 1128 304 1072 q 341 1224 304 1187 q 435 1261 378 1261 q 530 1224 492 1261 q 567 1128 567 1187 q 530 1034 567 1072 q 435 996 492 996 m 366 1128 q 386 1077 366 1097 q 435 1057 406 1057 q 485 1077 465 1057 q 505 1128 505 1097 q 485 1180 505 1160 q 435 1200 465 1200 q 386 1180 406 1200 q 366 1128 366 1160 z "},"ů":{"ha":723,"x_min":95,"x_max":629,"o":"m 361 -8 q 161 62 228 -8 q 95 269 95 133 l 95 709 l 214 709 l 214 281 q 247 144 214 190 q 362 99 279 99 q 476 143 444 99 q 509 281 509 187 l 509 709 l 629 709 l 629 269 q 563 62 629 133 q 361 -8 496 -8 m 362 784 q 268 822 305 784 q 231 917 231 860 q 268 1013 231 975 q 362 1050 305 1050 q 456 1013 419 1050 q 494 917 494 975 q 456 822 494 860 q 362 784 419 784 m 293 917 q 313 865 293 886 q 362 845 332 845 q 412 865 392 845 q 431 917 431 886 q 412 968 431 948 q 362 989 392 989 q 313 968 332 989 q 293 917 293 948 z "},"Ű":{"ha":872,"x_min":102,"x_max":770,"o":"m 437 -8 q 266 33 342 -8 q 146 147 190 75 q 102 313 102 220 l 102 959 l 231 959 l 231 321 q 286 163 231 222 q 437 104 342 104 q 587 163 530 104 q 643 321 643 222 l 643 959 l 770 959 l 770 313 q 726 147 770 220 q 607 33 682 75 q 437 -8 532 -8 m 267 1055 l 408 1233 l 549 1233 l 376 1055 l 267 1055 m 484 1055 l 625 1233 l 766 1233 l 593 1055 l 484 1055 z "},"ű":{"ha":723,"x_min":95,"x_max":693,"o":"m 361 -8 q 161 62 228 -8 q 95 269 95 133 l 95 709 l 214 709 l 214 281 q 247 144 214 190 q 362 99 279 99 q 476 143 444 99 q 509 281 509 187 l 509 709 l 629 709 l 629 269 q 563 62 629 133 q 361 -8 496 -8 m 194 802 l 335 979 l 476 979 l 302 802 l 194 802 m 411 802 l 552 979 l 693 979 l 519 802 l 411 802 z "},"Ų":{"ha":872,"x_min":102,"x_max":770,"o":"m 600 -290 q 481 -272 525 -289 q 400 -221 437 -255 q 366 -180 380 -203 q 343 -130 353 -157 l 484 -5 q 437 -8 461 -8 q 266 33 342 -8 q 146 147 190 75 q 102 313 102 220 l 102 959 l 231 959 l 231 321 q 286 163 231 222 q 437 104 342 104 q 587 163 530 104 q 643 321 643 222 l 643 959 l 770 959 l 770 313 q 732 157 770 227 q 628 46 693 88 l 452 -138 q 515 -186 484 -179 q 600 -194 547 -194 l 600 -290 z "},"ų":{"ha":723,"x_min":95,"x_max":629,"o":"m 506 -290 q 388 -272 433 -289 q 307 -221 343 -255 q 274 -180 288 -203 q 250 -130 260 -157 l 378 -8 q 361 -8 370 -8 q 161 62 228 -8 q 95 269 95 133 l 95 709 l 214 709 l 214 281 q 247 144 214 190 q 362 99 279 99 q 476 143 444 99 q 509 281 509 187 l 509 709 l 629 709 l 629 269 q 530 35 629 102 l 358 -138 q 422 -186 391 -179 q 506 -194 454 -194 l 506 -290 z "},"Ŵ":{"ha":1122,"x_min":8,"x_max":1115,"o":"m 251 0 l 8 959 l 134 959 l 312 203 l 484 959 l 646 959 l 825 203 l 994 959 l 1115 959 l 878 0 l 762 0 l 563 791 l 366 0 l 251 0 m 362 1039 l 514 1242 l 608 1242 l 760 1039 l 658 1039 l 562 1164 l 464 1039 l 362 1039 z "},"ŵ":{"ha":1001,"x_min":16,"x_max":985,"o":"m 231 0 l 16 709 l 146 709 l 289 182 l 453 709 l 548 709 l 711 182 l 854 709 l 985 709 l 772 0 l 666 0 l 500 534 l 335 0 l 231 0 m 301 787 l 453 990 l 547 990 l 699 787 l 597 787 l 500 911 l 403 787 l 301 787 z "},"Ŷ":{"ha":711,"x_min":8,"x_max":704,"o":"m 292 0 l 292 400 l 8 959 l 148 959 l 355 522 l 564 959 l 704 959 l 420 399 l 420 0 l 292 0 m 156 1039 l 308 1242 l 401 1242 l 553 1039 l 452 1039 l 355 1164 l 258 1039 l 156 1039 z "},"ŷ":{"ha":629,"x_min":16,"x_max":612,"o":"m 98 -213 l 98 -103 l 138 -103 q 210 -85 186 -103 q 250 -22 235 -66 l 260 11 l 16 709 l 146 709 l 316 186 l 487 709 l 612 709 l 342 -72 q 269 -179 316 -145 q 145 -213 221 -213 l 98 -213 m 114 787 l 266 990 l 359 990 l 511 787 l 410 787 l 313 911 l 216 787 l 114 787 z "},"Ÿ":{"ha":711,"x_min":8,"x_max":704,"o":"m 292 0 l 292 400 l 8 959 l 148 959 l 355 522 l 564 959 l 704 959 l 420 399 l 420 0 l 292 0 m 172 1055 l 172 1188 l 293 1188 l 293 1055 l 172 1055 m 419 1055 l 419 1188 l 540 1188 l 540 1055 l 419 1055 z "},"Ź":{"ha":711,"x_min":52,"x_max":666,"o":"m 52 0 l 52 115 l 515 845 l 65 845 l 65 959 l 658 959 l 658 845 l 194 115 l 666 115 l 666 0 l 52 0 m 260 1055 l 403 1233 l 544 1233 l 369 1055 l 260 1055 z "},"ź":{"ha":632,"x_min":75,"x_max":557,"o":"m 75 0 l 75 107 l 423 604 l 75 604 l 75 709 l 557 709 l 557 604 l 208 107 l 557 107 l 557 0 l 75 0 m 221 802 l 363 979 l 505 979 l 330 802 l 221 802 z "},"Ż":{"ha":711,"x_min":52,"x_max":666,"o":"m 52 0 l 52 115 l 515 845 l 65 845 l 65 959 l 658 959 l 658 845 l 194 115 l 666 115 l 666 0 l 52 0 m 293 1076 l 293 1204 l 420 1204 l 420 1076 l 293 1076 z "},"ż":{"ha":632,"x_min":75,"x_max":557,"o":"m 75 0 l 75 107 l 423 604 l 75 604 l 75 709 l 557 709 l 557 604 l 208 107 l 557 107 l 557 0 l 75 0 m 254 822 l 254 951 l 381 951 l 381 822 l 254 822 z "},"Ž":{"ha":711,"x_min":52,"x_max":666,"o":"m 52 0 l 52 115 l 515 845 l 65 845 l 65 959 l 658 959 l 658 845 l 194 115 l 666 115 l 666 0 l 52 0 m 308 1034 l 156 1237 l 258 1237 l 355 1112 l 452 1237 l 553 1237 l 401 1034 l 308 1034 z "},"ž":{"ha":632,"x_min":75,"x_max":557,"o":"m 75 0 l 75 107 l 423 604 l 75 604 l 75 709 l 557 709 l 557 604 l 208 107 l 557 107 l 557 0 l 75 0 m 269 785 l 117 989 l 218 989 l 316 864 l 412 989 l 514 989 l 362 785 l 269 785 z "},"ƒ":{"ha":570,"x_min":16,"x_max":553,"o":"m 16 -213 l 16 -98 l 56 -98 q 132 -76 107 -98 q 167 8 157 -54 l 235 467 l 119 467 l 119 575 l 251 575 l 277 746 q 347 909 294 859 q 500 959 399 959 l 553 959 l 553 845 l 507 845 q 433 822 458 845 q 400 741 408 799 l 373 575 l 517 575 l 517 467 l 357 467 l 288 3 q 218 -164 270 -115 q 62 -213 167 -213 l 16 -213 z "},"ƚ":{"ha":385,"x_min":23,"x_max":354,"o":"m 23 425 l 23 538 l 95 538 l 95 959 l 214 959 l 214 538 l 351 538 l 351 425 l 214 425 l 214 203 q 234 130 214 152 q 297 107 254 107 l 354 107 l 354 0 l 283 0 q 144 51 193 0 q 95 197 95 102 l 95 425 l 23 425 z "},"Ɵ":{"ha":842,"x_min":84,"x_max":758,"o":"m 419 -11 q 172 79 260 -11 q 84 361 84 170 l 84 600 q 173 881 84 791 q 422 971 262 971 q 667 883 576 971 q 758 600 758 795 l 758 361 q 666 77 758 165 q 419 -11 574 -11 m 213 358 q 265 165 213 225 q 422 104 317 104 q 629 358 629 104 l 629 593 q 422 857 629 857 q 264 795 316 857 q 213 593 213 732 l 213 358 m 145 425 l 145 538 l 701 538 l 701 425 l 145 425 z "},"Ǎ":{"ha":814,"x_min":8,"x_max":807,"o":"m 8 0 l 354 959 l 461 959 l 807 0 l 671 0 l 597 216 l 216 216 l 144 0 l 8 0 m 252 323 l 562 323 l 407 780 l 252 323 m 359 1039 l 208 1242 l 309 1242 l 407 1118 l 503 1242 l 605 1242 l 453 1039 l 359 1039 z "},"ǎ":{"ha":692,"x_min":60,"x_max":598,"o":"m 293 -8 q 121 47 182 -8 q 60 205 60 102 q 123 354 60 300 q 300 408 187 408 l 477 408 l 477 481 q 334 623 477 623 q 233 593 270 623 q 195 511 195 563 l 195 507 l 80 507 l 80 514 q 149 663 80 608 q 332 719 217 719 q 530 658 461 719 q 598 477 598 597 l 598 0 l 480 0 l 480 71 q 402 11 446 30 q 293 -8 358 -8 m 179 206 q 316 88 179 88 q 439 127 401 88 q 477 244 477 167 l 477 323 l 319 323 q 179 206 179 323 m 298 785 l 146 989 l 248 989 l 346 864 l 442 989 l 544 989 l 392 785 l 298 785 z "},"Ǐ":{"ha":345,"x_min":-27,"x_max":370,"o":"m 109 0 l 109 959 l 237 959 l 237 0 l 109 0 m 125 1039 l -27 1242 l 75 1242 l 172 1118 l 269 1242 l 370 1242 l 218 1039 l 125 1039 z "},"ǐ":{"ha":327,"x_min":-35,"x_max":362,"o":"m 117 785 l -35 989 l 66 989 l 164 864 l 260 989 l 362 989 l 210 785 l 117 785 m 104 0 l 104 709 l 224 709 l 224 0 l 104 0 z "},"Ǒ":{"ha":842,"x_min":84,"x_max":758,"o":"m 419 -11 q 172 79 260 -11 q 84 361 84 170 l 84 600 q 173 881 84 791 q 422 971 262 971 q 667 883 576 971 q 758 600 758 795 l 758 361 q 666 77 758 165 q 419 -11 574 -11 m 213 358 q 265 165 213 225 q 422 104 317 104 q 629 358 629 104 l 629 593 q 422 857 629 857 q 264 795 316 857 q 213 593 213 732 l 213 358 m 373 1039 l 221 1242 l 323 1242 l 420 1118 l 517 1242 l 618 1242 l 467 1039 l 373 1039 z "},"ǒ":{"ha":704,"x_min":75,"x_max":628,"o":"m 354 -8 q 151 62 227 -8 q 75 285 75 133 l 75 426 q 151 648 75 578 q 354 719 227 719 q 553 648 479 719 q 628 426 628 578 l 628 285 q 553 62 628 133 q 354 -8 479 -8 m 195 289 q 237 143 195 187 q 354 99 279 99 q 467 143 426 99 q 509 289 509 187 l 509 422 q 467 568 509 524 q 354 612 426 612 q 237 568 279 612 q 195 422 195 524 l 195 289 m 305 785 l 153 989 l 255 989 l 353 864 l 449 989 l 551 989 l 399 785 l 305 785 z "},"Ǔ":{"ha":872,"x_min":102,"x_max":770,"o":"m 437 -8 q 266 33 342 -8 q 146 147 190 75 q 102 313 102 220 l 102 959 l 231 959 l 231 321 q 286 163 231 222 q 437 104 342 104 q 587 163 530 104 q 643 321 643 222 l 643 959 l 770 959 l 770 313 q 726 147 770 220 q 607 33 682 75 q 437 -8 532 -8 m 388 1039 l 236 1242 l 338 1242 l 435 1118 l 532 1242 l 633 1242 l 481 1039 l 388 1039 z "},"ǔ":{"ha":723,"x_min":95,"x_max":629,"o":"m 361 -8 q 161 62 228 -8 q 95 269 95 133 l 95 709 l 214 709 l 214 281 q 247 144 214 190 q 362 99 279 99 q 476 143 444 99 q 509 281 509 187 l 509 709 l 629 709 l 629 269 q 563 62 629 133 q 361 -8 496 -8 m 315 785 l 163 989 l 264 989 l 362 864 l 458 989 l 560 989 l 408 785 l 315 785 z "},"Ǧ":{"ha":842,"x_min":84,"x_max":758,"o":"m 423 -11 q 174 79 263 -11 q 84 361 84 170 l 84 600 q 174 881 84 791 q 425 971 264 971 q 600 935 525 971 q 715 831 674 898 q 757 674 757 764 l 757 667 l 628 667 l 628 674 q 574 807 628 757 q 425 857 519 857 q 265 795 317 857 q 213 593 213 732 l 213 358 q 267 167 213 229 q 427 104 320 104 q 580 159 529 104 q 631 330 631 214 l 631 393 l 422 393 l 422 503 l 758 503 l 758 353 q 669 77 758 164 q 423 -11 581 -11 m 373 1039 l 221 1242 l 323 1242 l 420 1118 l 517 1242 l 618 1242 l 467 1039 l 373 1039 z "},"ǧ":{"ha":711,"x_min":75,"x_max":616,"o":"m 345 -222 q 161 -171 229 -222 q 87 -30 94 -119 l 205 -30 q 249 -97 212 -72 q 347 -122 286 -122 q 496 46 496 -122 l 496 141 q 313 47 439 47 q 142 119 210 47 q 75 340 75 190 l 75 431 q 142 651 75 581 q 315 722 209 722 q 420 698 374 722 q 496 624 467 674 l 496 713 l 616 713 l 616 54 q 545 -148 616 -73 q 345 -222 473 -222 m 197 346 q 338 156 197 156 q 456 208 416 156 q 496 347 496 260 l 496 419 q 458 562 496 509 q 343 614 419 614 q 197 425 197 614 l 197 346 m 300 785 l 148 989 l 250 989 l 347 864 l 444 989 l 545 989 l 393 785 l 300 785 z "},"Ǩ":{"ha":836,"x_min":102,"x_max":826,"o":"m 102 0 l 102 959 l 231 959 l 231 437 l 635 959 l 788 959 l 484 581 l 826 0 l 677 0 l 403 479 l 231 266 l 231 0 l 102 0 m 370 1039 l 218 1242 l 320 1242 l 418 1118 l 514 1242 l 616 1242 l 464 1039 l 370 1039 z "},"ǩ":{"ha":697,"x_min":-45,"x_max":674,"o":"m 95 0 l 95 959 l 214 959 l 214 361 l 498 709 l 642 709 l 408 437 l 674 0 l 528 0 l 328 345 l 214 212 l 214 0 l 95 0 m 107 1039 l -45 1242 l 57 1242 l 155 1118 l 251 1242 l 353 1242 l 201 1039 l 107 1039 z "},"Ǫ":{"ha":842,"x_min":84,"x_max":758,"o":"m 419 -11 q 172 79 260 -11 q 84 361 84 170 l 84 600 q 173 881 84 791 q 422 971 262 971 q 667 883 576 971 q 758 600 758 795 l 758 361 q 666 77 758 165 q 419 -11 574 -11 m 213 358 q 265 165 213 225 q 422 104 317 104 q 629 358 629 104 l 629 593 q 422 857 629 857 q 264 795 316 857 q 213 593 213 732 l 213 358 m 483 -298 q 364 -280 408 -297 q 283 -229 320 -263 q 250 -189 263 -212 q 227 -138 236 -165 l 381 1 l 483 15 l 483 0 l 335 -146 q 399 -195 368 -187 q 483 -202 430 -202 l 483 -298 z "},"ǫ":{"ha":704,"x_min":75,"x_max":628,"o":"m 435 -297 q 317 -278 361 -296 q 236 -227 273 -260 q 202 -186 216 -209 q 179 -137 189 -164 l 324 -7 q 142 71 209 0 q 75 285 75 141 l 75 426 q 151 648 75 578 q 354 719 227 719 q 553 648 479 719 q 628 426 628 578 l 628 285 q 576 90 628 159 q 433 0 524 20 l 288 -145 q 351 -193 320 -186 q 435 -201 382 -201 l 435 -297 m 195 289 q 237 143 195 187 q 354 99 279 99 q 467 143 426 99 q 509 289 509 187 l 509 422 q 467 568 509 524 q 354 612 426 612 q 237 568 279 612 q 195 422 195 524 l 195 289 z "},"Ǭ":{"ha":842,"x_min":84,"x_max":758,"o":"m 243 1023 l 243 1131 l 614 1131 l 614 1023 l 243 1023 m 419 -11 q 172 79 260 -11 q 84 361 84 170 l 84 600 q 173 881 84 791 q 422 971 262 971 q 667 883 576 971 q 758 600 758 795 l 758 361 q 666 77 758 165 q 419 -11 574 -11 m 213 358 q 265 165 213 225 q 422 104 317 104 q 629 358 629 104 l 629 593 q 422 857 629 857 q 264 795 316 857 q 213 593 213 732 l 213 358 m 456 -298 q 337 -280 381 -297 q 256 -229 293 -263 q 222 -189 236 -212 q 199 -138 209 -165 l 354 1 l 456 15 l 456 0 l 308 -146 q 372 -195 340 -187 q 456 -202 403 -202 l 456 -298 z "},"ǭ":{"ha":704,"x_min":75,"x_max":628,"o":"m 435 -297 q 317 -278 361 -296 q 236 -227 273 -260 q 202 -186 216 -209 q 179 -137 189 -164 l 324 -7 q 142 71 209 0 q 75 285 75 141 l 75 426 q 151 648 75 578 q 354 719 227 719 q 553 648 479 719 q 628 426 628 578 l 628 285 q 576 90 628 159 q 433 0 524 20 l 288 -145 q 351 -193 320 -186 q 435 -201 382 -201 l 435 -297 m 195 289 q 237 143 195 187 q 354 99 279 99 q 467 143 426 99 q 509 289 509 187 l 509 422 q 467 568 509 524 q 354 612 426 612 q 237 568 279 612 q 195 422 195 524 l 195 289 m 157 819 l 157 928 l 529 928 l 529 819 l 157 819 z "},"ǰ":{"ha":320,"x_min":-43,"x_max":355,"o":"m -43 -213 l -43 -106 l 14 -106 q 77 -83 57 -106 q 96 -9 96 -60 l 96 709 l 216 709 l 216 -16 q 168 -162 216 -111 q 28 -213 121 -213 l -43 -213 m 110 785 l -42 989 l 60 989 l 157 864 l 254 989 l 355 989 l 203 785 l 110 785 z "},"Ǵ":{"ha":842,"x_min":84,"x_max":758,"o":"m 423 -11 q 174 79 263 -11 q 84 361 84 170 l 84 600 q 174 881 84 791 q 425 971 264 971 q 600 935 525 971 q 715 831 674 898 q 757 674 757 764 l 757 667 l 628 667 l 628 674 q 574 807 628 757 q 425 857 519 857 q 265 795 317 857 q 213 593 213 732 l 213 358 q 267 167 213 229 q 427 104 320 104 q 580 159 529 104 q 631 330 631 214 l 631 393 l 422 393 l 422 503 l 758 503 l 758 353 q 669 77 758 164 q 423 -11 581 -11 m 326 1055 l 468 1233 l 609 1233 l 434 1055 l 326 1055 z "},"ǵ":{"ha":711,"x_min":75,"x_max":616,"o":"m 345 -222 q 161 -171 229 -222 q 87 -30 94 -119 l 205 -30 q 249 -97 212 -72 q 347 -122 286 -122 q 496 46 496 -122 l 496 141 q 313 47 439 47 q 142 119 210 47 q 75 340 75 190 l 75 431 q 142 651 75 581 q 315 722 209 722 q 420 698 374 722 q 496 624 467 674 l 496 713 l 616 713 l 616 54 q 545 -148 616 -73 q 345 -222 473 -222 m 197 346 q 338 156 197 156 q 456 208 416 156 q 496 347 496 260 l 496 419 q 458 562 496 509 q 343 614 419 614 q 197 425 197 614 l 197 346 m 260 802 l 403 979 l 544 979 l 369 802 l 260 802 z "},"Ș":{"ha":760,"x_min":42,"x_max":700,"o":"m 368 -8 q 137 64 220 -8 q 42 274 54 137 l 42 288 l 167 288 l 167 274 q 229 146 178 189 q 376 103 279 103 q 574 264 574 103 q 534 374 574 336 q 412 425 494 411 l 309 441 q 125 524 189 461 q 62 696 62 586 q 149 898 62 825 q 374 971 235 971 q 589 902 507 971 q 685 699 671 833 l 685 669 l 560 669 l 560 699 q 373 861 547 861 q 235 820 283 861 q 187 705 187 779 q 227 606 187 642 q 345 555 266 570 l 453 536 q 637 451 574 515 q 700 274 700 387 q 610 65 700 138 q 368 -8 521 -8 m 328 -235 l 328 -50 l 431 -50 l 431 -142 l 328 -235 z "},"ș":{"ha":647,"x_min":60,"x_max":594,"o":"m 321 -8 q 131 50 202 -8 q 60 202 60 107 l 60 209 l 175 209 l 175 203 q 216 121 175 151 q 326 91 256 91 q 438 119 397 91 q 479 201 479 148 q 450 270 479 247 q 357 304 420 293 l 273 319 q 119 382 168 338 q 71 511 71 427 q 142 663 71 608 q 324 719 213 719 q 513 663 442 719 q 585 521 585 608 l 585 513 l 471 513 l 471 517 q 432 594 471 566 q 326 623 393 623 q 222 594 259 623 q 186 518 186 566 q 212 453 186 476 q 297 420 239 430 l 388 406 q 543 340 492 387 q 594 209 594 294 q 519 49 594 106 q 321 -8 445 -8 m 271 -235 l 271 -50 l 374 -50 l 374 -142 l 271 -235 z "},"Ț":{"ha":675,"x_min":9,"x_max":666,"o":"m 274 0 l 274 845 l 9 845 l 9 959 l 666 959 l 666 845 l 403 845 l 403 0 l 274 0 m 286 -235 l 286 -50 l 389 -50 l 389 -142 l 286 -235 z "},"ț":{"ha":477,"x_min":43,"x_max":422,"o":"m 335 0 q 199 50 248 0 q 149 186 149 100 l 149 620 l 43 620 l 43 709 l 149 709 l 149 865 l 270 914 l 270 709 l 422 709 l 422 620 l 270 620 l 270 193 q 354 104 270 104 l 410 104 l 410 0 l 335 0 m 229 -235 l 229 -50 l 332 -50 l 332 -142 l 229 -235 z "},"ȷ":{"ha":320,"x_min":-43,"x_max":216,"o":"m -43 -213 l -43 -106 l 14 -106 q 77 -83 57 -106 q 96 -9 96 -60 l 96 709 l 216 709 l 216 -16 q 168 -162 216 -111 q 28 -213 121 -213 l -43 -213 z "},"Ƚ":{"ha":728,"x_min":23,"x_max":688,"o":"m 102 0 l 102 959 l 231 959 l 231 114 l 688 114 l 688 0 l 102 0 m 23 488 l 23 602 l 406 602 l 406 488 l 23 488 z "},"ɵ":{"ha":704,"x_min":75,"x_max":628,"o":"m 354 -8 q 151 62 227 -8 q 75 285 75 133 l 75 426 q 151 648 75 578 q 354 719 227 719 q 553 648 479 719 q 628 426 628 578 l 628 285 q 553 62 628 133 q 354 -8 479 -8 m 195 289 q 237 143 195 187 q 354 99 279 99 q 467 143 426 99 q 509 289 509 187 l 509 422 q 467 568 509 524 q 354 612 426 612 q 237 568 279 612 q 195 422 195 524 l 195 289 m 164 301 l 164 415 l 547 415 l 547 301 l 164 301 z "},"ʼ":{"ha":0,"x_min":-58,"x_max":57,"o":"m -58 606 l -58 959 l 57 959 l 57 711 l -58 606 z "},"ˆ":{"ha":694,"x_min":148,"x_max":545,"o":"m 148 787 l 300 990 l 393 990 l 545 787 l 444 787 l 347 911 l 250 787 l 148 787 z "},"ˇ":{"ha":694,"x_min":148,"x_max":545,"o":"m 300 785 l 148 989 l 250 989 l 347 864 l 444 989 l 545 989 l 393 785 l 300 785 z "},"˘":{"ha":694,"x_min":163,"x_max":529,"o":"m 346 774 q 209 825 255 774 q 163 968 163 875 l 163 991 l 248 991 l 248 968 q 275 884 248 914 q 346 853 301 853 q 417 884 391 853 q 444 968 444 914 l 444 991 l 529 991 l 529 968 q 483 825 529 875 q 346 774 437 774 z "},"˙":{"ha":694,"x_min":285,"x_max":412,"o":"m 285 822 l 285 951 l 412 951 l 412 822 l 285 822 z "},"˚":{"ha":694,"x_min":214,"x_max":477,"o":"m 346 784 q 252 822 289 784 q 214 917 214 860 q 252 1013 214 975 q 346 1050 289 1050 q 440 1013 403 1050 q 477 917 477 975 q 440 822 477 860 q 346 784 403 784 m 277 917 q 297 865 277 886 q 346 845 317 845 q 397 865 377 845 q 416 917 416 886 q 397 968 416 948 q 346 989 377 989 q 296 968 316 989 q 277 917 277 948 z "},"˛":{"ha":694,"x_min":320,"x_max":575,"o":"m 575 -298 q 458 -280 502 -297 q 376 -229 414 -263 q 343 -189 357 -212 q 320 -138 330 -165 l 480 15 l 575 15 l 575 0 l 429 -146 q 492 -195 460 -187 q 575 -202 524 -202 l 575 -298 z "},"˜":{"ha":694,"x_min":167,"x_max":526,"o":"m 167 796 l 167 894 q 216 937 194 925 q 269 949 239 949 q 312 943 293 949 q 357 922 331 937 q 394 903 377 910 q 430 895 411 895 q 475 907 456 895 q 526 951 495 920 l 526 852 q 425 798 476 798 q 380 804 399 798 q 335 826 362 810 q 297 845 315 840 q 264 850 279 850 q 218 839 237 850 q 167 796 198 827 z "},"˝":{"ha":694,"x_min":180,"x_max":680,"o":"m 180 802 l 321 979 l 463 979 l 289 802 l 180 802 m 397 802 l 538 979 l 680 979 l 506 802 l 397 802 z "},"̀":{"ha":0,"x_min":-190,"x_max":92,"o":"m -15 802 l -190 979 l -49 979 l 92 802 l -15 802 z "},"́":{"ha":0,"x_min":-95,"x_max":189,"o":"m -95 802 l 47 979 l 189 979 l 14 802 l -95 802 z "},"̂":{"ha":0,"x_min":-199,"x_max":198,"o":"m -199 787 l -47 990 l 46 990 l 198 787 l 96 787 l 0 911 l -98 787 l -199 787 z "},"̃":{"ha":0,"x_min":-180,"x_max":179,"o":"m -180 796 l -180 894 q -131 937 -153 925 q -79 949 -109 949 q -35 943 -54 949 q 9 922 -16 937 q 47 903 30 910 q 83 895 64 895 q 128 907 109 895 q 179 951 148 920 l 179 852 q 77 798 129 798 q 33 804 52 798 q -12 826 15 810 q -50 845 -33 840 q -83 850 -68 850 q -130 839 -110 850 q -180 796 -149 827 z "},"̄":{"ha":0,"x_min":-186,"x_max":186,"o":"m -186 819 l -186 928 l 186 928 l 186 819 l -186 819 z "},"̆":{"ha":0,"x_min":-183,"x_max":183,"o":"m 0 774 q -137 825 -91 774 q -183 968 -183 875 l -183 991 l -98 991 l -98 968 q -71 884 -98 914 q 0 853 -45 853 q 71 884 45 853 q 98 968 98 914 l 98 991 l 183 991 l 183 968 q 137 825 183 875 q 0 774 91 774 z "},"̇":{"ha":0,"x_min":-62,"x_max":65,"o":"m -62 822 l -62 951 l 65 951 l 65 822 l -62 822 z "},"̈":{"ha":0,"x_min":-184,"x_max":183,"o":"m -184 807 l -184 940 l -64 940 l -64 807 l -184 807 m 62 807 l 62 940 l 183 940 l 183 807 l 62 807 z "},"̊":{"ha":0,"x_min":-132,"x_max":132,"o":"m 0 784 q -94 822 -57 784 q -132 917 -132 860 q -94 1013 -132 975 q 0 1050 -57 1050 q 94 1013 57 1050 q 132 917 132 975 q 94 822 132 860 q 0 784 57 784 m -69 917 q -50 865 -69 886 q 0 845 -30 845 q 50 865 30 845 q 69 917 69 886 q 50 968 69 948 q 0 989 30 989 q -50 968 -30 989 q -69 917 -69 948 z "},"̋":{"ha":0,"x_min":-168,"x_max":331,"o":"m -168 802 l -27 979 l 114 979 l -60 802 l -168 802 m 49 802 l 190 979 l 331 979 l 157 802 l 49 802 z "},"̌":{"ha":0,"x_min":-199,"x_max":198,"o":"m -47 785 l -199 989 l -98 989 l 0 864 l 96 989 l 198 989 l 46 785 l -47 785 z "},"̒":{"ha":0,"x_min":-113,"x_max":171,"o":"m -113 802 l 62 979 l 171 979 l 28 802 l -113 802 z "},"̣":{"ha":0,"x_min":-62,"x_max":65,"o":"m -62 -245 l -62 -117 l 65 -117 l 65 -245 l -62 -245 z "},"̦":{"ha":0,"x_min":-52,"x_max":52,"o":"m -52 -235 l -52 -50 l 52 -50 l 52 -142 l -52 -235 z "},"̧":{"ha":0,"x_min":247,"x_max":438,"o":"m 247 -212 l 336 16 l 438 16 l 365 -212 l 247 -212 z "},"̨":{"ha":0,"x_min":-171,"x_max":85,"o":"m 85 -298 q -33 -280 11 -297 q -114 -229 -77 -263 q -148 -189 -134 -212 q -171 -138 -161 -165 l -16 1 l 85 15 l 85 0 l -62 -146 q 1 -195 -30 -187 q 85 -202 33 -202 l 85 -298 z "},"Α":{"ha":814,"x_min":8,"x_max":807,"o":"m 8 0 l 354 959 l 461 959 l 807 0 l 671 0 l 597 216 l 216 216 l 144 0 l 8 0 m 252 323 l 562 323 l 407 780 l 252 323 z "},"α":{"ha":873,"x_min":75,"x_max":793,"o":"m 354 -8 q 151 62 227 -8 q 75 285 75 133 l 75 426 q 151 648 75 578 q 354 719 227 719 q 496 690 434 719 q 590 601 559 661 q 793 690 659 689 l 793 586 q 689 545 728 585 q 650 415 650 506 l 650 296 q 690 165 650 205 q 793 123 730 126 l 793 20 q 589 111 659 22 q 495 21 556 50 q 354 -8 434 -8 m 195 289 q 237 143 195 187 q 354 99 279 99 q 474 143 426 99 q 522 289 522 187 l 522 422 q 474 568 522 524 q 354 612 426 612 q 237 568 279 612 q 195 422 195 524 l 195 289 z "},"Ѐ":{"ha":753,"x_min":102,"x_max":692,"o":"m 385 1050 l 210 1227 l 351 1227 l 492 1050 l 385 1050 m 102 0 l 102 959 l 692 959 l 692 845 l 231 845 l 231 543 l 625 543 l 625 430 l 231 430 l 231 114 l 692 114 l 692 0 l 102 0 z "},"Ё":{"ha":753,"x_min":102,"x_max":692,"o":"m 216 1055 l 216 1188 l 336 1188 l 336 1055 l 216 1055 m 463 1055 l 463 1188 l 583 1188 l 583 1055 l 463 1055 m 102 0 l 102 959 l 692 959 l 692 845 l 231 845 l 231 543 l 625 543 l 625 430 l 231 430 l 231 114 l 692 114 l 692 0 l 102 0 z "},"Ђ":{"ha":970,"x_min":9,"x_max":887,"o":"m 274 0 l 274 845 l 9 845 l 9 959 l 666 959 l 666 845 l 403 845 l 403 574 l 582 574 q 805 498 723 574 q 887 292 887 422 q 806 77 887 155 q 582 0 726 0 l 528 0 l 528 114 l 572 114 q 758 292 758 117 q 710 416 758 373 q 572 460 662 460 l 403 460 l 403 0 l 274 0 z "},"Ѓ":{"ha":703,"x_min":102,"x_max":692,"o":"m 102 0 l 102 959 l 692 959 l 692 845 l 231 845 l 231 0 l 102 0 m 328 1050 l 471 1227 l 612 1227 l 437 1050 l 328 1050 z "},"Є":{"ha":836,"x_min":84,"x_max":758,"o":"m 425 -11 q 165 90 247 -11 q 84 361 84 191 l 84 600 q 165 870 84 769 q 426 971 247 971 q 595 938 519 971 q 714 839 670 905 q 758 677 758 773 l 758 665 l 629 665 l 629 675 q 572 811 629 765 q 426 857 514 857 q 296 822 342 857 q 231 727 250 787 q 213 593 213 667 l 213 545 l 509 545 l 509 431 l 213 431 l 213 358 q 233 228 213 285 q 300 138 254 171 q 427 104 347 104 q 573 153 517 104 q 629 292 629 201 l 629 297 l 755 297 l 755 290 q 712 124 755 191 q 594 23 669 57 q 425 -11 519 -11 z "},"Ѕ":{"ha":760,"x_min":42,"x_max":700,"o":"m 368 -8 q 137 64 220 -8 q 42 274 54 137 l 42 288 l 167 288 l 167 274 q 229 146 178 189 q 376 103 279 103 q 574 264 574 103 q 534 374 574 336 q 412 425 494 411 l 309 441 q 125 524 189 461 q 62 696 62 586 q 149 898 62 825 q 374 971 235 971 q 589 902 507 971 q 685 699 671 833 l 685 669 l 560 669 l 560 699 q 373 861 547 861 q 235 820 283 861 q 187 705 187 779 q 227 606 187 642 q 345 555 266 570 l 453 536 q 637 451 574 515 q 700 274 700 387 q 610 65 700 138 q 368 -8 521 -8 z "},"І":{"ha":346,"x_min":109,"x_max":237,"o":"m 109 0 l 109 959 l 237 959 l 237 0 l 109 0 z "},"Ї":{"ha":346,"x_min":-12,"x_max":355,"o":"m -12 1055 l -12 1188 l 109 1188 l 109 1055 l -12 1055 m 235 1055 l 235 1188 l 355 1188 l 355 1055 l 235 1055 m 109 0 l 109 959 l 237 959 l 237 0 l 109 0 z "},"Ј":{"ha":442,"x_min":41,"x_max":331,"o":"m 41 0 l 41 115 l 118 115 q 184 138 164 115 q 203 214 203 160 l 203 959 l 331 959 l 331 197 q 283 51 331 102 q 142 0 235 0 l 41 0 z "},"Љ":{"ha":1270,"x_min":27,"x_max":1185,"o":"m 27 -11 l 27 114 q 79 160 62 114 q 106 321 96 206 l 156 959 l 693 959 l 693 556 l 880 556 q 1042 520 974 556 q 1148 422 1111 484 q 1185 282 1185 361 q 1105 73 1185 146 q 880 0 1024 0 l 564 0 l 564 845 l 277 845 l 235 277 q 174 59 225 129 q 27 -11 123 -11 m 693 114 l 872 114 q 1010 155 963 114 q 1057 282 1057 195 q 1009 396 1057 350 q 872 442 962 442 l 693 442 l 693 114 z "},"Њ":{"ha":1341,"x_min":102,"x_max":1257,"o":"m 102 0 l 102 959 l 231 959 l 231 545 l 635 545 l 635 959 l 762 959 l 762 556 l 952 556 q 1115 520 1047 556 q 1220 422 1183 484 q 1257 282 1257 361 q 1177 73 1257 146 q 952 0 1096 0 l 635 0 l 635 431 l 231 431 l 231 0 l 102 0 m 762 114 l 944 114 q 1083 155 1036 114 q 1130 282 1130 195 q 1082 396 1130 350 q 944 442 1034 442 l 762 442 l 762 114 z "},"Ћ":{"ha":1002,"x_min":9,"x_max":918,"o":"m 274 0 l 274 845 l 9 845 l 9 959 l 666 959 l 666 845 l 403 845 l 403 574 q 508 595 454 589 q 613 601 562 601 q 776 559 708 601 q 881 448 844 518 q 918 292 918 378 l 918 0 l 791 0 l 791 292 q 743 430 791 373 q 605 487 694 487 q 504 481 555 487 q 403 460 453 475 l 403 0 l 274 0 z "},"Ќ":{"ha":836,"x_min":102,"x_max":826,"o":"m 102 0 l 102 959 l 231 959 l 231 545 l 316 545 l 635 959 l 788 959 l 441 528 l 826 0 l 677 0 l 354 431 l 231 431 l 231 0 l 102 0 m 300 1050 l 442 1227 l 583 1227 l 408 1050 l 300 1050 z "},"Ѝ":{"ha":907,"x_min":102,"x_max":806,"o":"m 102 0 l 102 959 l 229 959 l 229 245 l 677 959 l 806 959 l 806 0 l 677 0 l 677 713 l 229 0 l 102 0 m 419 1050 l 244 1227 l 385 1227 l 526 1050 l 419 1050 z "},"Ў":{"ha":712,"x_min":8,"x_max":704,"o":"m 115 -11 l 115 109 l 145 109 q 256 195 224 111 l 279 254 l 8 959 l 148 959 l 346 429 l 564 959 l 704 959 l 372 148 q 288 31 340 72 q 170 -11 236 -11 l 115 -11 m 346 1044 q 209 1095 255 1044 q 163 1238 163 1145 l 163 1261 l 248 1261 l 248 1238 q 275 1154 248 1184 q 346 1123 301 1123 q 417 1154 391 1123 q 444 1238 444 1184 l 444 1261 l 529 1261 l 529 1238 q 483 1095 529 1145 q 346 1044 437 1044 z "},"Џ":{"ha":825,"x_min":102,"x_max":723,"o":"m 349 -231 l 349 0 l 102 0 l 102 959 l 229 959 l 229 114 l 595 114 l 595 959 l 723 959 l 723 0 l 476 0 l 476 -231 l 349 -231 z "},"А":{"ha":815,"x_min":8,"x_max":807,"o":"m 8 0 l 354 959 l 461 959 l 807 0 l 671 0 l 597 216 l 216 216 l 144 0 l 8 0 m 252 323 l 562 323 l 407 780 l 252 323 z "},"Б":{"ha":840,"x_min":102,"x_max":755,"o":"m 102 0 l 102 959 l 692 959 l 692 845 l 231 845 l 231 574 l 450 574 q 673 498 591 574 q 755 292 755 422 q 675 77 755 155 q 450 0 594 0 l 102 0 m 231 114 l 442 114 q 581 159 534 114 q 628 292 628 205 q 580 416 628 373 q 442 460 532 460 l 231 460 l 231 114 z "},"В":{"ha":845,"x_min":102,"x_max":761,"o":"m 102 0 l 102 959 l 458 959 q 671 891 595 959 q 747 701 747 823 q 710 574 747 631 q 608 494 673 518 q 722 409 684 468 q 761 267 761 350 q 683 71 761 141 q 469 0 605 0 l 102 0 m 231 114 l 456 114 q 587 155 541 114 q 632 275 632 197 q 587 392 632 351 q 456 433 541 433 l 231 433 l 231 114 m 231 545 l 448 545 q 573 583 528 545 q 618 693 618 620 q 574 807 618 769 q 448 845 530 845 l 231 845 l 231 545 z "},"Г":{"ha":703,"x_min":102,"x_max":692,"o":"m 102 0 l 102 959 l 692 959 l 692 845 l 231 845 l 231 0 l 102 0 z "},"Д":{"ha":906,"x_min":14,"x_max":891,"o":"m 14 -231 l 14 114 l 69 114 q 123 169 98 114 q 169 315 149 224 q 203 517 189 407 q 222 739 217 628 l 233 959 l 788 959 l 788 114 l 891 114 l 891 -231 l 764 -231 l 764 0 l 142 0 l 142 -231 l 14 -231 m 239 114 l 659 114 l 659 845 l 357 845 l 351 736 q 333 470 345 579 q 306 290 321 361 q 273 177 290 218 q 239 114 256 136 z "},"Е":{"ha":753,"x_min":102,"x_max":692,"o":"m 102 0 l 102 959 l 692 959 l 692 845 l 231 845 l 231 543 l 625 543 l 625 430 l 231 430 l 231 114 l 692 114 l 692 0 l 102 0 z "},"Ж":{"ha":1347,"x_min":14,"x_max":1333,"o":"m 14 0 l 399 528 l 50 959 l 203 959 l 524 545 l 609 545 l 609 959 l 738 959 l 738 545 l 823 545 l 1143 959 l 1297 959 l 948 528 l 1333 0 l 1184 0 l 863 431 l 738 431 l 738 0 l 609 0 l 609 431 l 484 431 l 163 0 l 14 0 z "},"З":{"ha":818,"x_min":84,"x_max":735,"o":"m 408 -11 q 239 22 312 -11 q 125 113 165 54 q 84 250 84 171 l 84 260 l 213 260 l 213 251 q 267 144 213 184 q 406 103 321 103 q 505 120 460 103 q 578 171 551 137 q 606 256 606 205 l 606 270 q 555 393 606 354 q 420 433 503 433 l 286 433 l 286 545 l 412 545 q 539 580 487 545 q 591 689 591 614 l 591 699 q 538 819 591 779 q 401 859 486 859 q 266 818 319 859 q 213 709 213 777 l 213 700 l 84 700 l 84 709 q 125 848 84 789 q 239 939 165 907 q 410 971 312 971 q 566 942 496 971 q 678 854 636 913 q 720 707 720 795 l 720 693 q 683 572 720 627 q 582 494 646 517 q 694 412 654 469 q 735 281 735 354 l 735 262 q 690 112 735 172 q 571 20 646 52 q 408 -11 496 -11 z "},"И":{"ha":907,"x_min":102,"x_max":806,"o":"m 102 0 l 102 959 l 229 959 l 229 245 l 677 959 l 806 959 l 806 0 l 677 0 l 677 713 l 229 0 l 102 0 z "},"Й":{"ha":907,"x_min":102,"x_max":806,"o":"m 102 0 l 102 959 l 229 959 l 229 245 l 677 959 l 806 959 l 806 0 l 677 0 l 677 713 l 229 0 l 102 0 m 434 1044 q 297 1095 343 1044 q 251 1238 251 1145 l 251 1261 l 336 1261 l 336 1238 q 363 1154 336 1184 q 434 1123 389 1123 q 505 1154 479 1123 q 532 1238 532 1184 l 532 1261 l 617 1261 l 617 1238 q 571 1095 617 1145 q 434 1044 525 1044 z "},"К":{"ha":836,"x_min":102,"x_max":826,"o":"m 102 0 l 102 959 l 231 959 l 231 545 l 316 545 l 635 959 l 788 959 l 441 528 l 826 0 l 677 0 l 354 431 l 231 431 l 231 0 l 102 0 z "},"Л":{"ha":793,"x_min":27,"x_max":693,"o":"m 27 -11 l 27 114 q 79 160 62 114 q 106 321 96 206 l 156 959 l 693 959 l 693 0 l 564 0 l 564 845 l 277 845 l 235 277 q 174 59 225 129 q 27 -11 123 -11 z "},"М":{"ha":1046,"x_min":106,"x_max":940,"o":"m 106 0 l 106 959 l 235 959 l 524 351 l 811 959 l 940 959 l 940 0 l 811 0 l 811 689 l 571 189 l 477 189 l 235 690 l 235 0 l 106 0 z "},"Н":{"ha":864,"x_min":102,"x_max":762,"o":"m 102 0 l 102 959 l 231 959 l 231 545 l 635 545 l 635 959 l 762 959 l 762 0 l 635 0 l 635 431 l 231 431 l 231 0 l 102 0 z "},"О":{"ha":842,"x_min":84,"x_max":758,"o":"m 419 -11 q 172 79 260 -11 q 84 361 84 170 l 84 600 q 173 881 84 791 q 422 971 262 971 q 667 883 576 971 q 758 600 758 795 l 758 361 q 666 77 758 165 q 419 -11 574 -11 m 213 358 q 265 165 213 225 q 422 104 317 104 q 629 358 629 104 l 629 593 q 422 857 629 857 q 264 795 316 857 q 213 593 213 732 l 213 358 z "},"П":{"ha":852,"x_min":102,"x_max":751,"o":"m 102 0 l 102 959 l 751 959 l 751 0 l 623 0 l 623 845 l 231 845 l 231 0 l 102 0 z "},"Р":{"ha":796,"x_min":102,"x_max":755,"o":"m 102 0 l 102 959 l 450 959 q 674 883 593 959 q 755 667 755 807 q 673 461 755 537 q 450 385 591 385 l 231 385 l 231 0 l 102 0 m 231 499 l 442 499 q 579 542 530 499 q 628 667 628 585 q 579 800 628 755 q 442 845 530 845 l 231 845 l 231 499 z "},"С":{"ha":836,"x_min":84,"x_max":758,"o":"m 425 -11 q 174 79 264 -11 q 84 361 84 170 l 84 600 q 174 881 84 791 q 426 971 264 971 q 601 935 526 971 q 717 831 675 898 q 758 674 758 764 l 758 669 l 629 669 l 629 674 q 575 808 629 758 q 426 857 521 857 q 266 795 319 857 q 213 593 213 734 l 213 358 q 427 104 213 104 q 576 153 522 104 q 629 281 629 202 l 629 288 l 755 288 l 755 281 q 669 69 755 149 q 425 -11 582 -11 z "},"Т":{"ha":675,"x_min":9,"x_max":666,"o":"m 274 0 l 274 845 l 9 845 l 9 959 l 666 959 l 666 845 l 403 845 l 403 0 l 274 0 z "},"У":{"ha":712,"x_min":8,"x_max":704,"o":"m 115 -11 l 115 109 l 145 109 q 256 195 224 111 l 279 254 l 8 959 l 148 959 l 346 429 l 564 959 l 704 959 l 372 148 q 288 31 340 72 q 170 -11 236 -11 l 115 -11 z "},"Ф":{"ha":940,"x_min":84,"x_max":856,"o":"m 406 0 l 406 94 q 167 193 250 98 q 84 464 84 288 l 84 517 q 166 790 84 694 q 406 890 248 886 l 406 959 l 534 959 l 534 890 q 774 791 692 886 q 856 519 856 696 l 856 467 q 774 193 856 289 q 534 94 692 98 l 534 0 l 406 0 m 534 209 q 728 472 728 217 l 728 522 q 534 774 728 766 l 534 209 m 406 209 l 406 774 q 213 511 213 766 l 213 461 q 406 209 213 217 z "},"Х":{"ha":798,"x_min":8,"x_max":789,"o":"m 8 0 l 323 499 l 34 959 l 187 959 l 400 604 l 612 959 l 760 959 l 473 505 l 789 0 l 636 0 l 396 396 l 156 0 l 8 0 z "},"Ц":{"ha":841,"x_min":102,"x_max":826,"o":"m 699 -231 l 699 0 l 102 0 l 102 959 l 229 959 l 229 114 l 594 114 l 594 959 l 723 959 l 723 114 l 826 114 l 826 -231 l 699 -231 z "},"Ч":{"ha":869,"x_min":99,"x_max":768,"o":"m 639 0 l 639 347 q 434 307 564 307 q 257 347 332 307 q 140 459 182 387 q 99 628 99 532 l 99 959 l 229 959 l 229 636 q 284 479 229 538 q 434 419 339 419 q 639 479 575 419 l 639 959 l 768 959 l 768 0 l 639 0 z "},"Ш":{"ha":1133,"x_min":102,"x_max":1032,"o":"m 102 0 l 102 959 l 231 959 l 231 114 l 503 114 l 503 959 l 631 959 l 631 114 l 903 114 l 903 959 l 1032 959 l 1032 0 l 102 0 z "},"Щ":{"ha":1177,"x_min":102,"x_max":1150,"o":"m 1021 -231 l 1021 0 l 102 0 l 102 959 l 231 959 l 231 114 l 502 114 l 502 959 l 631 959 l 631 114 l 902 114 l 902 959 l 1032 959 l 1032 114 l 1150 114 l 1150 -231 l 1021 -231 z "},"Ъ":{"ha":975,"x_min":0,"x_max":891,"o":"m 237 0 l 237 845 l 0 845 l 0 959 l 366 959 l 366 574 l 586 574 q 809 498 727 574 q 891 292 891 422 q 810 77 891 155 q 586 0 730 0 l 237 0 m 366 114 l 578 114 q 717 159 670 114 q 764 292 764 205 q 715 416 764 373 q 578 460 667 460 l 366 460 l 366 114 z "},"Ы":{"ha":1105,"x_min":102,"x_max":1005,"o":"m 102 0 l 102 959 l 231 959 l 231 574 l 450 574 q 673 498 591 574 q 755 292 755 422 q 675 77 755 155 q 450 0 594 0 l 102 0 m 231 114 l 442 114 q 581 159 534 114 q 628 292 628 205 q 580 416 628 373 q 442 460 532 460 l 231 460 l 231 114 m 876 0 l 876 959 l 1005 959 l 1005 0 l 876 0 z "},"Ь":{"ha":840,"x_min":102,"x_max":755,"o":"m 102 0 l 102 959 l 231 959 l 231 574 l 450 574 q 673 498 591 574 q 755 292 755 422 q 675 77 755 155 q 450 0 594 0 l 102 0 m 231 114 l 442 114 q 581 159 534 114 q 628 292 628 205 q 580 416 628 373 q 442 460 532 460 l 231 460 l 231 114 z "},"Э":{"ha":836,"x_min":77,"x_max":751,"o":"m 411 -11 q 170 70 259 -11 q 80 290 80 151 l 80 297 l 206 297 l 206 290 q 260 154 206 203 q 408 104 313 104 q 624 358 624 104 l 624 431 l 327 431 l 327 545 l 624 545 l 624 593 q 570 795 624 734 q 411 857 517 857 q 261 807 316 857 q 206 670 206 757 l 206 665 l 77 665 l 77 670 q 119 829 77 762 q 235 934 160 897 q 410 971 311 971 q 661 881 571 971 q 751 600 751 791 l 751 361 q 662 79 751 170 q 411 -11 572 -11 z "},"Ю":{"ha":1095,"x_min":102,"x_max":1012,"o":"m 102 0 l 102 959 l 231 959 l 231 545 l 338 545 l 338 600 q 427 881 338 791 q 675 971 515 971 q 921 883 830 971 q 1012 600 1012 795 l 1012 361 q 920 77 1012 165 q 673 -11 827 -11 q 426 79 514 -11 q 338 361 338 170 l 338 431 l 231 431 l 231 0 l 102 0 m 467 358 q 519 165 467 225 q 675 104 571 104 q 883 358 883 104 l 883 593 q 675 857 883 857 q 518 795 570 857 q 467 593 467 732 l 467 358 z "},"Я":{"ha":831,"x_min":50,"x_max":731,"o":"m 50 0 l 270 426 q 128 517 179 450 q 77 684 77 583 q 157 886 77 812 q 372 959 236 959 l 731 959 l 731 0 l 602 0 l 602 410 l 403 410 l 198 0 l 50 0 m 206 682 q 252 562 206 605 q 381 519 298 519 l 602 519 l 602 845 l 381 845 q 252 804 298 845 q 206 682 206 762 z "},"а":{"ha":692,"x_min":60,"x_max":598,"o":"m 293 -8 q 121 47 182 -8 q 60 205 60 102 q 123 354 60 300 q 300 408 187 408 l 477 408 l 477 481 q 334 623 477 623 q 233 593 270 623 q 195 511 195 563 l 195 507 l 80 507 l 80 514 q 149 663 80 608 q 332 719 217 719 q 530 658 461 719 q 598 477 598 597 l 598 0 l 480 0 l 480 71 q 402 11 446 30 q 293 -8 358 -8 m 179 206 q 316 88 179 88 q 439 127 401 88 q 477 244 477 167 l 477 323 l 319 323 q 179 206 179 323 z "},"б":{"ha":692,"x_min":76,"x_max":617,"o":"m 346 -8 q 140 81 202 -8 q 76 320 77 171 l 76 597 q 98 750 76 693 q 157 837 119 807 q 242 881 194 867 q 343 905 290 895 q 433 925 388 914 q 521 959 479 936 l 521 838 q 451 814 486 822 q 384 802 416 807 q 311 785 345 795 q 251 755 277 776 q 211 693 225 734 q 197 583 197 652 q 277 640 232 620 q 378 659 321 659 q 517 618 465 659 q 593 512 570 578 q 617 368 617 446 l 617 283 q 585 137 617 203 q 493 31 553 71 q 346 -8 433 -8 m 195 290 q 210 197 195 240 q 257 126 224 153 q 346 99 290 99 q 435 127 403 99 q 482 198 468 155 q 496 289 496 241 l 496 362 q 484 454 496 411 q 440 525 472 498 q 351 552 408 552 q 260 524 294 552 q 211 451 227 495 q 195 357 195 407 l 195 290 z "},"в":{"ha":723,"x_min":95,"x_max":629,"o":"m 95 0 l 95 709 l 423 709 q 553 662 503 709 q 602 537 602 614 q 583 450 602 488 q 521 388 564 412 q 603 320 576 370 q 629 203 629 270 q 572 52 629 104 q 406 0 515 0 l 95 0 m 214 109 l 410 109 q 477 138 452 109 q 502 213 502 167 q 481 285 502 252 q 414 317 460 317 l 214 317 l 214 109 m 214 426 l 391 426 q 458 458 434 426 q 483 515 483 490 q 456 582 483 563 q 391 601 430 601 l 214 601 l 214 426 z "},"г":{"ha":477,"x_min":95,"x_max":446,"o":"m 95 0 l 95 709 l 446 709 l 446 601 l 214 601 l 214 0 l 95 0 z "},"д":{"ha":761,"x_min":27,"x_max":734,"o":"m 27 -231 l 27 109 l 98 109 q 164 234 137 136 q 201 480 191 332 l 220 709 l 656 709 l 656 109 l 734 109 l 734 -231 l 614 -231 l 614 0 l 152 0 l 152 -231 l 27 -231 m 244 109 l 537 109 l 537 610 l 332 610 l 321 473 q 295 256 315 347 q 244 109 275 164 z "},"е":{"ha":705,"x_min":75,"x_max":629,"o":"m 357 -8 q 151 68 228 -8 q 75 302 75 144 l 75 412 q 151 643 75 567 q 353 719 227 719 q 554 643 479 719 q 629 412 629 567 l 629 326 l 195 326 l 195 292 q 240 141 195 184 q 363 98 285 98 q 469 130 431 98 q 507 216 507 161 l 509 220 l 624 220 l 624 213 q 553 53 624 114 q 357 -8 481 -8 m 195 412 l 509 412 l 509 434 q 469 572 509 530 q 353 613 429 613 q 237 570 279 613 q 195 423 195 528 l 195 412 z "},"ж":{"ha":1072,"x_min":16,"x_max":1055,"o":"m 16 0 l 278 400 l 54 709 l 198 709 l 392 426 l 476 426 l 476 709 l 595 709 l 595 426 l 680 426 l 873 709 l 1017 709 l 793 400 l 1055 0 l 909 0 l 700 317 l 595 317 l 595 0 l 476 0 l 476 317 l 372 317 l 163 0 l 16 0 z "},"з":{"ha":658,"x_min":75,"x_max":575,"o":"m 323 -8 q 143 47 212 -8 q 75 194 75 103 l 75 203 l 197 203 l 197 195 q 233 119 197 148 q 328 90 270 90 q 421 117 388 90 q 454 197 454 145 l 454 205 q 321 317 454 317 l 232 317 l 232 407 l 312 407 q 442 513 442 407 l 442 521 q 411 595 442 568 q 321 621 380 621 q 232 590 267 621 q 197 511 197 559 l 197 502 l 75 502 l 75 513 q 106 618 75 571 q 195 692 138 665 q 323 719 251 719 q 501 667 439 719 q 563 522 563 616 l 563 515 q 538 430 563 468 q 471 373 514 392 q 547 309 518 354 q 575 205 575 264 l 575 197 q 506 47 575 103 q 323 -8 437 -8 z "},"и":{"ha":754,"x_min":95,"x_max":659,"o":"m 95 0 l 95 709 l 214 709 l 214 165 l 526 709 l 659 709 l 659 0 l 540 0 l 540 544 l 228 0 l 95 0 z "},"й":{"ha":754,"x_min":95,"x_max":659,"o":"m 95 0 l 95 709 l 214 709 l 214 165 l 526 709 l 659 709 l 659 0 l 540 0 l 540 544 l 228 0 l 95 0 m 370 796 q 233 846 279 796 q 187 990 187 897 l 187 1013 l 273 1013 l 273 990 q 299 905 273 936 q 370 875 326 875 q 441 905 415 875 q 468 990 468 936 l 468 1013 l 553 1013 l 553 990 q 507 846 553 897 q 370 796 461 796 z "},"к":{"ha":690,"x_min":95,"x_max":674,"o":"m 95 0 l 95 709 l 214 709 l 214 426 l 298 426 l 492 709 l 636 709 l 412 400 l 674 0 l 528 0 l 319 317 l 214 317 l 214 0 l 95 0 z "},"л":{"ha":673,"x_min":14,"x_max":578,"o":"m 14 0 l 14 115 q 69 146 49 115 q 98 262 90 178 l 145 709 l 578 709 l 578 0 l 458 0 l 458 610 l 254 610 l 216 208 q 153 52 206 104 q 14 0 99 0 z "},"м":{"ha":925,"x_min":95,"x_max":831,"o":"m 95 0 l 95 709 l 231 709 l 463 274 l 694 709 l 831 709 l 831 0 l 711 0 l 711 526 l 500 109 l 427 109 l 214 526 l 214 0 l 95 0 z "},"н":{"ha":724,"x_min":95,"x_max":629,"o":"m 95 0 l 95 709 l 214 709 l 214 435 l 510 435 l 510 709 l 629 709 l 629 0 l 510 0 l 510 326 l 214 326 l 214 0 l 95 0 z "},"о":{"ha":704,"x_min":75,"x_max":628,"o":"m 354 -8 q 151 62 227 -8 q 75 285 75 133 l 75 426 q 151 648 75 578 q 354 719 227 719 q 553 648 479 719 q 628 426 628 578 l 628 285 q 553 62 628 133 q 354 -8 479 -8 m 195 289 q 237 143 195 187 q 354 99 279 99 q 467 143 426 99 q 509 289 509 187 l 509 422 q 467 568 509 524 q 354 612 426 612 q 237 568 279 612 q 195 422 195 524 l 195 289 z "},"п":{"ha":713,"x_min":95,"x_max":618,"o":"m 95 0 l 95 709 l 618 709 l 618 0 l 499 0 l 499 601 l 214 601 l 214 0 l 95 0 z "},"р":{"ha":711,"x_min":95,"x_max":635,"o":"m 95 -213 l 95 709 l 213 709 l 213 620 q 391 719 273 719 q 567 648 499 719 q 635 427 635 576 l 635 283 q 568 62 635 133 q 397 -8 502 -8 q 214 84 274 -8 l 214 -213 l 95 -213 m 214 290 q 255 151 214 203 q 373 99 296 99 q 514 289 514 99 l 514 420 q 368 612 514 612 q 254 559 293 612 q 214 416 214 506 l 214 290 z "},"с":{"ha":700,"x_min":75,"x_max":624,"o":"m 357 -8 q 151 62 227 -8 q 75 285 75 133 l 75 426 q 151 648 75 578 q 355 719 228 719 q 552 654 480 719 q 624 477 624 590 l 624 468 l 509 468 l 509 475 q 469 576 509 540 q 359 612 429 612 q 238 568 281 612 q 195 422 195 524 l 195 289 q 239 142 195 186 q 358 99 282 99 q 469 134 429 99 q 509 233 509 170 l 509 240 l 624 240 l 624 233 q 552 57 624 122 q 357 -8 480 -8 z "},"т":{"ha":517,"x_min":9,"x_max":507,"o":"m 201 0 l 201 601 l 9 601 l 9 711 l 507 709 l 507 601 l 320 601 l 320 0 l 201 0 z "},"у":{"ha":629,"x_min":16,"x_max":612,"o":"m 98 -213 l 98 -103 l 138 -103 q 210 -85 186 -103 q 250 -22 235 -66 l 260 11 l 16 709 l 146 709 l 316 186 l 487 709 l 612 709 l 342 -72 q 269 -179 316 -145 q 145 -213 221 -213 l 98 -213 z "},"ф":{"ha":1114,"x_min":75,"x_max":1038,"o":"m 496 -213 l 496 84 q 417 14 465 35 q 313 -8 369 -8 q 174 33 227 -8 q 98 140 121 73 q 75 283 75 206 l 75 427 q 99 573 75 507 q 177 679 123 639 q 319 719 231 719 q 498 620 437 719 l 498 959 l 616 959 l 616 620 q 793 719 677 719 q 935 679 882 719 q 1013 573 989 639 q 1038 427 1038 507 l 1038 283 q 1015 140 1038 206 q 940 33 991 73 q 800 -8 888 -8 q 696 14 745 -8 q 617 84 648 35 l 617 -213 l 496 -213 m 614 290 q 631 197 614 240 q 684 126 648 153 q 776 99 720 99 q 863 126 833 99 q 905 197 894 153 q 917 289 917 241 l 917 420 q 905 514 917 471 q 861 585 892 557 q 770 612 829 612 q 680 583 713 612 q 630 510 646 555 q 614 416 614 465 l 614 290 m 195 289 q 208 197 195 241 q 250 126 220 153 q 338 99 281 99 q 429 126 393 99 q 481 197 464 153 q 498 290 498 240 l 498 416 q 483 510 498 465 q 434 583 468 555 q 343 612 400 612 q 253 585 285 612 q 208 514 221 557 q 195 420 195 471 l 195 289 z "},"х":{"ha":602,"x_min":16,"x_max":586,"o":"m 16 0 l 237 365 l 31 709 l 159 709 l 305 468 l 444 709 l 572 709 l 362 372 l 586 0 l 458 0 l 298 264 l 145 0 l 16 0 z "},"ц":{"ha":720,"x_min":95,"x_max":707,"o":"m 587 -231 l 587 0 l 95 0 l 95 709 l 214 709 l 214 109 l 510 109 l 510 709 l 629 709 l 629 109 l 707 109 l 707 -231 l 587 -231 z "},"ч":{"ha":724,"x_min":95,"x_max":629,"o":"m 510 0 l 510 233 q 430 208 477 217 q 328 199 382 199 q 153 271 212 199 q 95 453 95 342 l 95 709 l 216 709 l 216 468 q 252 353 216 399 q 361 307 288 307 q 454 315 420 307 q 510 340 488 323 l 510 709 l 629 709 l 629 0 l 510 0 z "},"ш":{"ha":1058,"x_min":95,"x_max":963,"o":"m 95 0 l 95 709 l 214 709 l 214 109 l 469 109 l 469 709 l 589 709 l 589 109 l 844 109 l 844 709 l 963 709 l 963 0 l 95 0 z "},"щ":{"ha":1054,"x_min":95,"x_max":1040,"o":"m 921 -231 l 921 0 l 95 0 l 95 709 l 214 709 l 214 109 l 469 109 l 469 709 l 589 709 l 589 109 l 844 109 l 844 709 l 963 709 l 963 109 l 1040 109 l 1040 -231 l 921 -231 z "},"ъ":{"ha":787,"x_min":0,"x_max":711,"o":"m 184 0 l 184 601 l 0 601 l 0 709 l 305 709 l 305 435 l 499 435 q 663 372 616 435 q 711 208 711 309 q 654 54 711 107 q 487 0 597 0 l 184 0 m 305 109 l 488 109 q 557 138 532 109 q 583 217 583 167 q 562 293 583 260 q 492 326 540 326 l 305 326 l 305 109 z "},"ы":{"ha":943,"x_min":95,"x_max":848,"o":"m 95 0 l 95 709 l 214 709 l 214 435 l 410 435 q 574 372 526 435 q 621 208 621 309 q 564 54 621 107 q 397 0 506 0 l 95 0 m 214 109 l 397 109 q 467 138 441 109 q 492 217 492 167 q 471 293 492 260 q 403 326 450 326 l 214 326 l 214 109 m 728 0 l 728 709 l 848 709 l 848 0 l 728 0 z "},"ь":{"ha":696,"x_min":95,"x_max":621,"o":"m 95 0 l 95 709 l 214 709 l 214 435 l 410 435 q 574 372 526 435 q 621 208 621 309 q 564 54 621 107 q 397 0 506 0 l 95 0 m 214 109 l 397 109 q 467 138 441 109 q 492 217 492 167 q 471 293 492 260 q 403 326 450 326 l 214 326 l 214 109 z "},"э":{"ha":700,"x_min":75,"x_max":624,"o":"m 343 -8 q 147 57 220 -8 q 75 233 75 122 l 75 240 l 191 240 l 191 233 q 231 134 191 170 q 342 99 271 99 q 461 142 418 99 q 505 289 505 186 l 505 326 l 300 326 l 300 435 l 503 435 l 503 437 q 459 571 502 530 q 340 612 416 612 q 231 576 270 612 q 191 475 191 540 l 191 468 l 75 468 l 75 477 q 147 654 75 590 q 345 719 220 719 q 549 648 473 719 q 624 426 624 578 l 624 285 q 548 62 624 133 q 343 -8 472 -8 z "},"ю":{"ha":952,"x_min":95,"x_max":876,"o":"m 95 0 l 95 709 l 214 709 l 214 435 l 323 435 q 401 650 326 582 q 602 719 476 719 q 802 648 727 719 q 876 426 876 578 l 876 285 q 802 62 876 133 q 602 -8 727 -8 q 399 62 475 -8 q 323 285 323 133 l 323 326 l 214 326 l 214 0 l 95 0 m 444 289 q 486 143 444 187 q 602 99 528 99 q 715 143 674 99 q 757 289 757 187 l 757 422 q 715 568 757 524 q 602 612 674 612 q 486 568 528 612 q 444 422 444 524 l 444 289 z "},"я":{"ha":735,"x_min":104,"x_max":640,"o":"m 104 0 l 232 262 q 139 351 174 293 q 104 481 104 408 q 168 646 104 583 q 330 709 231 709 l 640 709 l 640 0 l 519 0 l 519 231 l 342 231 l 235 0 l 104 0 m 225 473 q 265 376 225 412 q 370 340 305 340 l 519 340 l 519 601 l 370 601 q 305 590 339 601 q 248 552 271 579 q 225 473 225 525 z "},"ѐ":{"ha":705,"x_min":75,"x_max":629,"o":"m 338 802 l 163 979 l 304 979 l 445 802 l 338 802 m 357 -8 q 151 68 228 -8 q 75 302 75 144 l 75 412 q 151 643 75 567 q 353 719 227 719 q 554 643 479 719 q 629 412 629 567 l 629 326 l 195 326 l 195 292 q 240 141 195 184 q 363 98 285 98 q 469 130 431 98 q 507 216 507 161 l 509 220 l 624 220 l 624 213 q 553 53 624 114 q 357 -8 481 -8 m 195 412 l 509 412 l 509 434 q 469 572 509 530 q 353 613 429 613 q 237 570 279 613 q 195 423 195 528 l 195 412 z "},"ё":{"ha":705,"x_min":75,"x_max":629,"o":"m 168 807 l 168 940 l 289 940 l 289 807 l 168 807 m 415 807 l 415 940 l 536 940 l 536 807 l 415 807 m 357 -8 q 151 68 228 -8 q 75 302 75 144 l 75 412 q 151 643 75 567 q 353 719 227 719 q 554 643 479 719 q 629 412 629 567 l 629 326 l 195 326 l 195 292 q 240 141 195 184 q 363 98 285 98 q 469 130 431 98 q 507 216 507 161 l 509 220 l 624 220 l 624 213 q 553 53 624 114 q 357 -8 481 -8 m 195 412 l 509 412 l 509 434 q 469 572 509 530 q 353 613 429 613 q 237 570 279 613 q 195 423 195 528 l 195 412 z "},"ђ":{"ha":685,"x_min":14,"x_max":629,"o":"m 370 -213 l 370 -106 l 400 -106 q 487 -86 465 -106 q 509 -9 509 -66 l 509 449 q 474 566 509 521 q 363 612 439 612 q 252 565 290 612 q 214 449 214 518 l 214 0 l 95 0 l 95 791 l 14 791 l 14 873 l 95 873 l 95 959 l 214 959 l 214 873 l 396 873 l 396 791 l 214 791 l 214 632 q 295 697 247 675 q 396 719 343 719 q 571 648 513 719 q 629 465 629 576 l 629 -18 q 583 -161 629 -109 q 442 -213 537 -213 l 370 -213 z "},"ѓ":{"ha":477,"x_min":95,"x_max":476,"o":"m 95 0 l 95 709 l 446 709 l 446 601 l 214 601 l 214 0 l 95 0 m 193 802 l 335 979 l 476 979 l 301 802 l 193 802 z "},"є":{"ha":700,"x_min":75,"x_max":624,"o":"m 357 -8 q 144 70 214 -8 q 75 285 75 148 l 75 426 q 144 641 75 563 q 355 719 214 719 q 549 657 473 719 q 624 473 624 595 l 624 468 l 509 468 l 509 473 q 467 576 509 541 q 359 612 426 612 q 234 564 271 612 q 197 437 197 515 l 197 435 l 399 435 l 399 326 l 195 326 l 195 289 q 230 152 195 205 q 358 99 264 99 q 467 133 425 99 q 509 235 509 167 l 509 240 l 624 240 l 624 233 q 588 101 624 155 q 492 20 552 47 q 357 -8 431 -8 z "},"ѕ":{"ha":647,"x_min":60,"x_max":594,"o":"m 321 -8 q 131 50 202 -8 q 60 202 60 107 l 60 209 l 175 209 l 175 203 q 216 121 175 151 q 326 91 256 91 q 438 119 397 91 q 479 201 479 148 q 450 270 479 247 q 357 304 420 293 l 273 319 q 119 382 168 338 q 71 511 71 427 q 142 663 71 608 q 324 719 213 719 q 513 663 442 719 q 585 521 585 608 l 585 513 l 471 513 l 471 517 q 432 594 471 566 q 326 623 393 623 q 222 594 259 623 q 186 518 186 566 q 212 453 186 476 q 297 420 239 430 l 388 406 q 543 340 492 387 q 594 209 594 294 q 519 49 594 106 q 321 -8 445 -8 z "},"і":{"ha":317,"x_min":96,"x_max":221,"o":"m 99 0 l 99 709 l 218 709 l 218 0 l 99 0 m 96 830 l 96 959 l 221 959 l 221 830 l 96 830 z "},"ї":{"ha":327,"x_min":-20,"x_max":347,"o":"m 104 0 l 104 709 l 224 709 l 224 0 l 104 0 m -20 807 l -20 940 l 100 940 l 100 807 l -20 807 m 227 807 l 227 940 l 347 940 l 347 807 l 227 807 z "},"ј":{"ha":315,"x_min":-43,"x_max":218,"o":"m -43 -213 l -43 -106 l 14 -106 q 77 -83 57 -106 q 96 -9 96 -60 l 96 709 l 216 709 l 216 -16 q 168 -162 216 -111 q 28 -213 121 -213 l -43 -213 m 94 829 l 94 959 l 218 959 l 218 829 l 94 829 z "},"љ":{"ha":1035,"x_min":14,"x_max":960,"o":"m 14 0 l 14 115 q 69 146 49 115 q 98 262 90 178 l 145 709 l 578 709 l 578 435 l 749 435 q 913 372 865 435 q 960 208 960 309 q 903 54 960 107 q 736 0 845 0 l 458 0 l 458 610 l 254 610 l 216 208 q 153 52 206 104 q 14 0 99 0 m 578 109 l 736 109 q 806 138 780 109 q 831 217 831 167 q 810 293 831 260 q 742 326 789 326 l 578 326 l 578 109 z "},"њ":{"ha":1103,"x_min":95,"x_max":1028,"o":"m 95 0 l 95 709 l 214 709 l 214 435 l 510 435 l 510 709 l 629 709 l 629 435 l 817 435 q 981 372 933 435 q 1028 208 1028 309 q 970 54 1028 107 q 804 0 913 0 l 510 0 l 510 326 l 214 326 l 214 0 l 95 0 m 629 109 l 804 109 q 873 138 848 109 q 899 217 899 167 q 878 293 899 260 q 810 326 857 326 l 629 326 l 629 109 z "},"ћ":{"ha":723,"x_min":14,"x_max":629,"o":"m 14 791 l 14 873 l 95 873 l 95 959 l 214 959 l 214 873 l 396 873 l 396 791 l 214 791 l 214 632 q 396 719 278 719 q 568 652 507 719 q 629 465 629 586 l 629 0 l 509 0 l 509 449 q 470 570 509 529 q 363 612 431 612 q 256 569 297 612 q 214 449 214 526 l 214 0 l 95 0 l 95 791 l 14 791 z "},"ќ":{"ha":690,"x_min":95,"x_max":674,"o":"m 95 0 l 95 709 l 214 709 l 214 426 l 298 426 l 492 709 l 636 709 l 412 400 l 674 0 l 528 0 l 319 317 l 214 317 l 214 0 l 95 0 m 229 802 l 372 979 l 513 979 l 338 802 l 229 802 z "},"ѝ":{"ha":754,"x_min":95,"x_max":659,"o":"m 95 0 l 95 709 l 214 709 l 214 165 l 526 709 l 659 709 l 659 0 l 540 0 l 540 544 l 228 0 l 95 0 m 355 802 l 180 979 l 321 979 l 463 802 l 355 802 z "},"ў":{"ha":629,"x_min":16,"x_max":612,"o":"m 98 -213 l 98 -103 l 138 -103 q 210 -85 186 -103 q 250 -22 235 -66 l 260 11 l 16 709 l 146 709 l 316 186 l 487 709 l 612 709 l 342 -72 q 269 -179 316 -145 q 145 -213 221 -213 l 98 -213 m 308 796 q 171 846 217 796 q 125 990 125 897 l 125 1013 l 210 1013 l 210 990 q 237 905 210 936 q 308 875 263 875 q 379 905 353 875 q 406 990 406 936 l 406 1013 l 491 1013 l 491 990 q 445 846 491 897 q 308 796 399 796 z "},"џ":{"ha":724,"x_min":95,"x_max":629,"o":"m 302 -231 l 302 0 l 95 0 l 95 709 l 214 709 l 214 109 l 510 109 l 510 709 l 629 709 l 629 0 l 422 0 l 422 -231 l 302 -231 z "},"Ґ":{"ha":742,"x_min":102,"x_max":692,"o":"m 579 959 l 579 1176 l 692 1176 l 692 845 l 231 845 l 231 0 l 102 0 l 102 959 l 579 959 z "},"ґ":{"ha":477,"x_min":95,"x_max":446,"o":"m 359 709 l 359 868 l 446 868 l 446 601 l 214 601 l 214 0 l 95 0 l 95 709 l 359 709 z "},"Ү":{"ha":711,"x_min":8,"x_max":704,"o":"m 292 0 l 292 400 l 8 959 l 148 959 l 355 522 l 564 959 l 704 959 l 420 399 l 420 0 l 292 0 z "},"ү":{"ha":598,"x_min":5,"x_max":593,"o":"m 235 -213 l 235 151 l 5 711 l 145 711 l 298 319 l 453 711 l 593 711 l 363 151 l 363 -213 l 235 -213 z "},"Ө":{"ha":842,"x_min":84,"x_max":758,"o":"m 419 -11 q 172 79 260 -11 q 84 361 84 170 l 84 600 q 173 881 84 791 q 422 971 262 971 q 667 883 576 971 q 758 600 758 795 l 758 361 q 666 77 758 165 q 419 -11 574 -11 m 213 358 q 265 165 213 225 q 422 104 317 104 q 629 358 629 104 l 629 593 q 422 857 629 857 q 264 795 316 857 q 213 593 213 732 l 213 358 m 145 425 l 145 538 l 701 538 l 701 425 l 145 425 z "},"ө":{"ha":704,"x_min":75,"x_max":628,"o":"m 354 -8 q 151 62 227 -8 q 75 285 75 133 l 75 426 q 151 648 75 578 q 354 719 227 719 q 553 648 479 719 q 628 426 628 578 l 628 285 q 553 62 628 133 q 354 -8 479 -8 m 195 289 q 237 143 195 187 q 354 99 279 99 q 467 143 426 99 q 509 289 509 187 l 509 422 q 467 568 509 524 q 354 612 426 612 q 237 568 279 612 q 195 422 195 524 l 195 289 m 164 301 l 164 415 l 547 415 l 547 301 l 164 301 z "},"Ḍ":{"ha":852,"x_min":102,"x_max":768,"o":"m 102 0 l 102 959 l 433 959 q 678 871 589 959 q 768 587 768 783 l 768 372 q 677 88 768 176 q 431 0 586 0 l 102 0 m 231 114 l 433 114 q 640 369 640 114 l 640 581 q 587 782 640 719 q 433 845 534 845 l 231 845 l 231 114 m 363 -245 l 363 -117 l 491 -117 l 491 -245 l 363 -245 z "},"ḍ":{"ha":711,"x_min":75,"x_max":616,"o":"m 313 -8 q 142 64 210 -8 q 75 283 75 136 l 75 427 q 142 648 75 576 q 315 719 209 719 q 496 620 434 719 l 496 959 l 616 959 l 616 0 l 496 0 l 496 84 q 313 -8 439 -8 m 197 289 q 338 99 197 99 q 456 151 416 99 q 496 290 496 203 l 496 416 q 458 559 496 506 q 343 612 419 612 q 197 422 197 612 l 197 289 m 293 -245 l 293 -117 l 420 -117 l 420 -245 l 293 -245 z "},"Ḥ":{"ha":864,"x_min":102,"x_max":762,"o":"m 102 0 l 102 959 l 231 959 l 231 545 l 635 545 l 635 959 l 762 959 l 762 0 l 635 0 l 635 431 l 231 431 l 231 0 l 102 0 m 370 -245 l 370 -117 l 498 -117 l 498 -245 l 370 -245 z "},"ḥ":{"ha":723,"x_min":95,"x_max":629,"o":"m 95 0 l 95 959 l 214 959 l 214 632 q 396 719 278 719 q 568 652 507 719 q 629 465 629 586 l 629 0 l 509 0 l 509 449 q 470 570 509 529 q 363 612 431 612 q 256 569 297 612 q 214 449 214 526 l 214 0 l 95 0 m 300 -245 l 300 -117 l 427 -117 l 427 -245 l 300 -245 z "},"Ḱ":{"ha":836,"x_min":102,"x_max":826,"o":"m 102 0 l 102 959 l 231 959 l 231 437 l 635 959 l 788 959 l 484 581 l 826 0 l 677 0 l 403 479 l 231 266 l 231 0 l 102 0 m 323 1055 l 465 1233 l 606 1233 l 431 1055 l 323 1055 z "},"ḱ":{"ha":697,"x_min":77,"x_max":674,"o":"m 95 0 l 95 959 l 214 959 l 214 361 l 498 709 l 642 709 l 408 437 l 674 0 l 528 0 l 328 345 l 214 212 l 214 0 l 95 0 m 77 1055 l 220 1233 l 361 1233 l 186 1055 l 77 1055 z "},"Ḷ":{"ha":728,"x_min":102,"x_max":688,"o":"m 102 0 l 102 959 l 231 959 l 231 114 l 688 114 l 688 0 l 102 0 m 351 -245 l 351 -117 l 479 -117 l 479 -245 l 351 -245 z "},"ḷ":{"ha":385,"x_min":95,"x_max":354,"o":"m 283 0 q 144 51 193 0 q 95 197 95 102 l 95 959 l 214 959 l 214 203 q 234 130 214 152 q 297 107 254 107 l 354 107 l 354 0 l 283 0 m 130 -245 l 130 -117 l 258 -117 l 258 -245 l 130 -245 z "},"Ḿ":{"ha":1046,"x_min":106,"x_max":940,"o":"m 106 0 l 106 959 l 235 959 l 524 351 l 811 959 l 940 959 l 940 0 l 811 0 l 811 689 l 571 189 l 477 189 l 235 690 l 235 0 l 106 0 m 429 1055 l 571 1233 l 712 1233 l 537 1055 l 429 1055 z "},"ḿ":{"ha":1137,"x_min":95,"x_max":1043,"o":"m 95 0 l 95 709 l 212 709 l 212 631 q 287 693 237 667 q 396 719 336 719 q 512 692 463 719 q 593 609 562 666 q 804 719 666 719 q 920 694 865 719 q 1008 613 974 669 q 1043 465 1043 557 l 1043 0 l 922 0 l 922 449 q 909 527 922 490 q 865 588 897 564 q 779 612 834 612 q 666 566 703 612 q 629 453 629 521 l 629 0 l 509 0 l 509 449 q 495 527 509 490 q 450 588 481 564 q 363 612 419 612 q 256 570 297 612 q 214 449 214 528 l 214 0 l 95 0 m 473 802 l 616 979 l 757 979 l 582 802 l 473 802 z "},"Ṕ":{"ha":796,"x_min":102,"x_max":755,"o":"m 102 0 l 102 959 l 450 959 q 674 883 593 959 q 755 667 755 807 q 673 461 755 537 q 450 385 591 385 l 231 385 l 231 0 l 102 0 m 231 499 l 442 499 q 579 542 530 499 q 628 667 628 585 q 579 800 628 755 q 442 845 530 845 l 231 845 l 231 499 m 302 1055 l 445 1233 l 586 1233 l 411 1055 l 302 1055 z "},"ṕ":{"ha":711,"x_min":95,"x_max":635,"o":"m 95 -213 l 95 709 l 213 709 l 213 620 q 391 719 273 719 q 567 648 499 719 q 635 427 635 576 l 635 283 q 568 62 635 133 q 397 -8 502 -8 q 214 84 274 -8 l 214 -213 l 95 -213 m 214 290 q 255 151 214 203 q 373 99 296 99 q 514 289 514 99 l 514 420 q 368 612 514 612 q 254 559 293 612 q 214 416 214 506 l 214 290 m 260 802 l 403 979 l 544 979 l 369 802 l 260 802 z "},"Ṛ":{"ha":831,"x_min":102,"x_max":781,"o":"m 102 0 l 102 959 l 460 959 q 675 886 597 959 q 754 684 754 812 q 704 517 754 583 q 562 426 654 450 l 781 0 l 633 0 l 429 410 l 231 410 l 231 0 l 102 0 m 231 519 l 452 519 q 581 562 536 519 q 627 682 627 605 q 581 804 627 762 q 452 845 536 845 l 231 845 l 231 519 m 353 -245 l 353 -117 l 480 -117 l 480 -245 l 353 -245 z "},"ṛ":{"ha":477,"x_min":95,"x_max":446,"o":"m 95 0 l 95 709 l 212 709 l 212 623 q 288 698 240 674 q 393 722 335 722 q 446 718 420 722 l 446 601 q 369 613 408 613 q 258 567 301 613 q 214 442 214 521 l 214 0 l 95 0 m 123 -245 l 123 -117 l 251 -117 l 251 -245 l 123 -245 z "},"Ṣ":{"ha":760,"x_min":42,"x_max":700,"o":"m 368 -8 q 137 64 220 -8 q 42 274 54 137 l 42 288 l 167 288 l 167 274 q 229 146 178 189 q 376 103 279 103 q 574 264 574 103 q 534 374 574 336 q 412 425 494 411 l 309 441 q 125 524 189 461 q 62 696 62 586 q 149 898 62 825 q 374 971 235 971 q 589 902 507 971 q 685 699 671 833 l 685 669 l 560 669 l 560 699 q 373 861 547 861 q 235 820 283 861 q 187 705 187 779 q 227 606 187 642 q 345 555 266 570 l 453 536 q 637 451 574 515 q 700 274 700 387 q 610 65 700 138 q 368 -8 521 -8 m 317 -245 l 317 -117 l 445 -117 l 445 -245 l 317 -245 z "},"ṣ":{"ha":647,"x_min":60,"x_max":594,"o":"m 321 -8 q 131 50 202 -8 q 60 202 60 107 l 60 209 l 175 209 l 175 203 q 216 121 175 151 q 326 91 256 91 q 438 119 397 91 q 479 201 479 148 q 450 270 479 247 q 357 304 420 293 l 273 319 q 119 382 168 338 q 71 511 71 427 q 142 663 71 608 q 324 719 213 719 q 513 663 442 719 q 585 521 585 608 l 585 513 l 471 513 l 471 517 q 432 594 471 566 q 326 623 393 623 q 222 594 259 623 q 186 518 186 566 q 212 453 186 476 q 297 420 239 430 l 388 406 q 543 340 492 387 q 594 209 594 294 q 519 49 594 106 q 321 -8 445 -8 m 260 -245 l 260 -117 l 388 -117 l 388 -245 l 260 -245 z "},"Ṭ":{"ha":675,"x_min":9,"x_max":666,"o":"m 274 0 l 274 845 l 9 845 l 9 959 l 666 959 l 666 845 l 403 845 l 403 0 l 274 0 m 275 -245 l 275 -117 l 403 -117 l 403 -245 l 275 -245 z "},"ṭ":{"ha":477,"x_min":43,"x_max":422,"o":"m 335 0 q 199 50 248 0 q 149 186 149 100 l 149 620 l 43 620 l 43 709 l 149 709 l 149 865 l 270 914 l 270 709 l 422 709 l 422 620 l 270 620 l 270 193 q 354 104 270 104 l 410 104 l 410 0 l 335 0 m 176 -245 l 176 -117 l 304 -117 l 304 -245 l 176 -245 z "},"Ẁ":{"ha":1122,"x_min":8,"x_max":1115,"o":"m 251 0 l 8 959 l 134 959 l 312 203 l 484 959 l 646 959 l 825 203 l 994 959 l 1115 959 l 878 0 l 762 0 l 563 791 l 366 0 l 251 0 m 547 1055 l 372 1233 l 513 1233 l 654 1055 l 547 1055 z "},"ẁ":{"ha":1001,"x_min":16,"x_max":985,"o":"m 231 0 l 16 709 l 146 709 l 289 182 l 453 709 l 548 709 l 711 182 l 854 709 l 985 709 l 772 0 l 666 0 l 500 534 l 335 0 l 231 0 m 486 802 l 311 979 l 452 979 l 593 802 l 486 802 z "},"Ẃ":{"ha":1122,"x_min":8,"x_max":1115,"o":"m 251 0 l 8 959 l 134 959 l 312 203 l 484 959 l 646 959 l 825 203 l 994 959 l 1115 959 l 878 0 l 762 0 l 563 791 l 366 0 l 251 0 m 467 1055 l 609 1233 l 750 1233 l 575 1055 l 467 1055 z "},"ẃ":{"ha":1001,"x_min":16,"x_max":985,"o":"m 231 0 l 16 709 l 146 709 l 289 182 l 453 709 l 548 709 l 711 182 l 854 709 l 985 709 l 772 0 l 666 0 l 500 534 l 335 0 l 231 0 m 406 802 l 548 979 l 689 979 l 514 802 l 406 802 z "},"Ẅ":{"ha":1122,"x_min":8,"x_max":1115,"o":"m 251 0 l 8 959 l 134 959 l 312 203 l 484 959 l 646 959 l 825 203 l 994 959 l 1115 959 l 878 0 l 762 0 l 563 791 l 366 0 l 251 0 m 377 1061 l 377 1194 l 498 1194 l 498 1061 l 377 1061 m 624 1061 l 624 1194 l 745 1194 l 745 1061 l 624 1061 z "},"ẅ":{"ha":1001,"x_min":16,"x_max":985,"o":"m 231 0 l 16 709 l 146 709 l 289 182 l 453 709 l 548 709 l 711 182 l 854 709 l 985 709 l 772 0 l 666 0 l 500 534 l 335 0 l 231 0 m 316 807 l 316 940 l 437 940 l 437 807 l 316 807 m 563 807 l 563 940 l 684 940 l 684 807 l 563 807 z "},"Ẓ":{"ha":711,"x_min":52,"x_max":666,"o":"m 52 0 l 52 115 l 515 845 l 65 845 l 65 959 l 658 959 l 658 845 l 194 115 l 666 115 l 666 0 l 52 0 m 293 -245 l 293 -117 l 420 -117 l 420 -245 l 293 -245 z "},"ẓ":{"ha":632,"x_min":75,"x_max":557,"o":"m 75 0 l 75 107 l 423 604 l 75 604 l 75 709 l 557 709 l 557 604 l 208 107 l 557 107 l 557 0 l 75 0 m 254 -245 l 254 -117 l 381 -117 l 381 -245 l 254 -245 z "},"ẞ":{"ha":956,"x_min":104,"x_max":875,"o":"m 378 -4 l 378 115 l 553 115 q 667 125 623 115 q 732 170 711 136 q 753 274 753 203 q 704 395 753 355 q 549 434 655 434 l 429 434 l 429 555 l 632 803 q 528 849 578 842 q 430 856 479 856 q 425 856 426 856 q 300 831 343 856 q 242 763 258 806 q 227 665 227 720 l 227 1 l 104 1 l 104 656 q 178 890 104 810 q 425 968 251 970 q 521 964 469 968 q 623 945 572 960 q 718 900 674 930 q 789 815 761 869 l 575 553 q 798 477 720 555 q 875 275 875 400 q 864 157 875 209 q 819 68 853 104 q 715 14 785 33 q 525 -4 644 -4 l 378 -4 z "},"Ạ":{"ha":814,"x_min":8,"x_max":807,"o":"m 8 0 l 354 959 l 461 959 l 807 0 l 671 0 l 597 216 l 216 216 l 144 0 l 8 0 m 252 323 l 562 323 l 407 780 l 252 323 m 345 -245 l 345 -117 l 472 -117 l 472 -245 l 345 -245 z "},"ạ":{"ha":692,"x_min":60,"x_max":598,"o":"m 293 -8 q 121 47 182 -8 q 60 205 60 102 q 123 354 60 300 q 300 408 187 408 l 477 408 l 477 481 q 334 623 477 623 q 233 593 270 623 q 195 511 195 563 l 195 507 l 80 507 l 80 514 q 149 663 80 608 q 332 719 217 719 q 530 658 461 719 q 598 477 598 597 l 598 0 l 480 0 l 480 71 q 402 11 446 30 q 293 -8 358 -8 m 179 206 q 316 88 179 88 q 439 127 401 88 q 477 244 477 167 l 477 323 l 319 323 q 179 206 179 323 m 283 -245 l 283 -117 l 411 -117 l 411 -245 l 283 -245 z "},"Ẹ":{"ha":753,"x_min":102,"x_max":692,"o":"m 102 0 l 102 959 l 692 959 l 692 845 l 231 845 l 231 543 l 625 543 l 625 430 l 231 430 l 231 114 l 692 114 l 692 0 l 102 0 m 313 -245 l 313 -117 l 441 -117 l 441 -245 l 313 -245 z "},"ẹ":{"ha":705,"x_min":75,"x_max":629,"o":"m 357 -8 q 151 68 228 -8 q 75 302 75 144 l 75 412 q 151 643 75 567 q 353 719 227 719 q 554 643 479 719 q 629 412 629 567 l 629 326 l 195 326 l 195 292 q 240 141 195 184 q 363 98 285 98 q 469 130 431 98 q 507 216 507 161 l 509 220 l 624 220 l 624 213 q 553 53 624 114 q 357 -8 481 -8 m 195 412 l 509 412 l 509 434 q 469 572 509 530 q 353 613 429 613 q 237 570 279 613 q 195 423 195 528 l 195 412 m 290 -245 l 290 -117 l 418 -117 l 418 -245 l 290 -245 z "},"Ị":{"ha":345,"x_min":109,"x_max":237,"o":"m 109 0 l 109 959 l 237 959 l 237 0 l 109 0 m 110 -245 l 110 -117 l 237 -117 l 237 -245 l 110 -245 z "},"ị":{"ha":327,"x_min":96,"x_max":229,"o":"m 99 0 l 99 709 l 218 709 l 218 0 l 99 0 m 96 830 l 96 959 l 221 959 l 221 830 l 96 830 m 102 -245 l 102 -117 l 229 -117 l 229 -245 l 102 -245 z "},"Ọ":{"ha":842,"x_min":84,"x_max":758,"o":"m 419 -11 q 172 79 260 -11 q 84 361 84 170 l 84 600 q 173 881 84 791 q 422 971 262 971 q 667 883 576 971 q 758 600 758 795 l 758 361 q 666 77 758 165 q 419 -11 574 -11 m 213 358 q 265 165 213 225 q 422 104 317 104 q 629 358 629 104 l 629 593 q 422 857 629 857 q 264 795 316 857 q 213 593 213 732 l 213 358 m 358 -245 l 358 -117 l 486 -117 l 486 -245 l 358 -245 z "},"ọ":{"ha":704,"x_min":75,"x_max":628,"o":"m 354 -8 q 151 62 227 -8 q 75 285 75 133 l 75 426 q 151 648 75 578 q 354 719 227 719 q 553 648 479 719 q 628 426 628 578 l 628 285 q 553 62 628 133 q 354 -8 479 -8 m 195 289 q 237 143 195 187 q 354 99 279 99 q 467 143 426 99 q 509 289 509 187 l 509 422 q 467 568 509 524 q 354 612 426 612 q 237 568 279 612 q 195 422 195 524 l 195 289 m 289 -245 l 289 -117 l 416 -117 l 416 -245 l 289 -245 z "},"Ụ":{"ha":872,"x_min":102,"x_max":770,"o":"m 437 -8 q 266 33 342 -8 q 146 147 190 75 q 102 313 102 220 l 102 959 l 231 959 l 231 321 q 286 163 231 222 q 437 104 342 104 q 587 163 530 104 q 643 321 643 222 l 643 959 l 770 959 l 770 313 q 726 147 770 220 q 607 33 682 75 q 437 -8 532 -8 m 373 -245 l 373 -117 l 500 -117 l 500 -245 l 373 -245 z "},"ụ":{"ha":723,"x_min":95,"x_max":629,"o":"m 361 -8 q 161 62 228 -8 q 95 269 95 133 l 95 709 l 214 709 l 214 281 q 247 144 214 190 q 362 99 279 99 q 476 143 444 99 q 509 281 509 187 l 509 709 l 629 709 l 629 269 q 563 62 629 133 q 361 -8 496 -8 m 300 -245 l 300 -117 l 427 -117 l 427 -245 l 300 -245 z "},"Ỳ":{"ha":711,"x_min":8,"x_max":704,"o":"m 292 0 l 292 400 l 8 959 l 148 959 l 355 522 l 564 959 l 704 959 l 420 399 l 420 0 l 292 0 m 340 1055 l 165 1233 l 307 1233 l 448 1055 l 340 1055 z "},"ỳ":{"ha":629,"x_min":16,"x_max":612,"o":"m 98 -213 l 98 -103 l 138 -103 q 210 -85 186 -103 q 250 -22 235 -66 l 260 11 l 16 709 l 146 709 l 316 186 l 487 709 l 612 709 l 342 -72 q 269 -179 316 -145 q 145 -213 221 -213 l 98 -213 m 298 802 l 123 979 l 264 979 l 406 802 l 298 802 z "},"Ỵ":{"ha":711,"x_min":8,"x_max":704,"o":"m 292 0 l 292 400 l 8 959 l 148 959 l 355 522 l 564 959 l 704 959 l 420 399 l 420 0 l 292 0 m 293 -245 l 293 -117 l 420 -117 l 420 -245 l 293 -245 z "},"ỵ":{"ha":629,"x_min":16,"x_max":612,"o":"m 98 -213 l 98 -103 l 138 -103 q 210 -85 186 -103 q 250 -22 235 -66 l 260 11 l 16 709 l 146 709 l 316 186 l 487 709 l 612 709 l 342 -72 q 269 -179 316 -145 q 145 -213 221 -213 l 98 -213 m 373 -245 l 373 -117 l 500 -117 l 500 -245 l 373 -245 z "},"‐":{"ha":545,"x_min":81,"x_max":464,"o":"m 81 425 l 81 538 l 464 538 l 464 425 l 81 425 z "},"–":{"ha":579,"x_min":0,"x_max":579,"o":"m 0 425 l 0 538 l 579 538 l 579 425 l 0 425 z "},"—":{"ha":1156,"x_min":0,"x_max":1157,"o":"m 0 425 l 0 538 l 1157 538 l 1157 425 l 0 425 z "},"‘":{"ha":248,"x_min":66,"x_max":182,"o":"m 66 659 l 66 907 l 182 1010 l 182 659 l 66 659 z "},"’":{"ha":248,"x_min":66,"x_max":182,"o":"m 66 606 l 66 959 l 182 959 l 182 711 l 66 606 z "},"‚":{"ha":248,"x_min":66,"x_max":182,"o":"m 66 -202 l 66 149 l 182 149 l 182 -99 l 66 -202 z "},"“":{"ha":463,"x_min":65,"x_max":396,"o":"m 65 659 l 65 907 l 182 1010 l 182 659 l 65 659 m 281 659 l 281 907 l 396 1010 l 396 659 l 281 659 z "},"”":{"ha":463,"x_min":66,"x_max":396,"o":"m 66 608 l 66 960 l 182 960 l 182 712 l 66 608 m 282 608 l 282 960 l 396 960 l 396 712 l 282 608 z "},"„":{"ha":461,"x_min":66,"x_max":396,"o":"m 66 -202 l 66 149 l 182 149 l 182 -99 l 66 -202 m 281 -202 l 281 149 l 396 149 l 396 -99 l 281 -202 z "},"†":{"ha":739,"x_min":95,"x_max":646,"o":"m 307 -213 l 307 519 l 95 519 l 95 632 l 307 632 l 307 959 l 434 959 l 434 632 l 646 632 l 646 519 l 434 519 l 434 -213 l 307 -213 z "},"‡":{"ha":739,"x_min":95,"x_max":646,"o":"m 307 -213 l 307 110 l 95 110 l 95 225 l 307 225 l 307 525 l 95 525 l 95 640 l 307 640 l 307 959 l 434 959 l 434 640 l 646 640 l 646 525 l 434 525 l 434 225 l 646 225 l 646 110 l 434 110 l 434 -213 l 307 -213 z "},"•":{"ha":646,"x_min":142,"x_max":505,"o":"m 323 247 q 193 298 247 247 q 142 427 142 349 q 193 557 142 507 q 323 608 244 608 q 453 557 401 608 q 505 427 505 506 q 453 298 505 350 q 323 247 399 247 z "},"…":{"ha":971,"x_min":66,"x_max":906,"o":"m 66 0 l 66 151 l 212 151 l 212 0 l 66 0 m 414 0 l 414 151 l 559 151 l 559 0 l 414 0 m 761 0 l 761 151 l 906 151 l 906 0 l 761 0 z "},"‰":{"ha":1651,"x_min":46,"x_max":1605,"o":"m 273 0 l 796 962 l 899 962 l 376 0 l 273 0 m 954 -23 q 892 -16 925 -23 q 832 13 860 -8 q 787 73 804 34 q 769 178 769 113 l 769 395 q 774 450 769 418 q 798 516 780 483 q 852 571 815 549 q 954 593 890 593 q 1042 576 1000 593 q 1112 517 1085 560 q 1139 395 1139 475 l 1139 178 q 1133 116 1139 151 q 1108 50 1127 81 q 1053 -3 1089 18 q 954 -23 1016 -23 m 884 190 q 894 113 884 138 q 919 81 903 88 q 954 75 935 75 q 989 81 972 75 q 1015 113 1005 88 q 1024 190 1024 137 l 1024 380 q 1015 456 1024 433 q 989 487 1005 480 q 954 494 974 494 q 920 488 936 494 q 894 457 903 481 q 884 380 884 433 l 884 190 m 1419 -23 q 1358 -16 1390 -23 q 1297 13 1325 -8 q 1252 73 1270 34 q 1234 178 1234 113 l 1234 395 q 1240 450 1234 418 q 1263 516 1245 483 q 1318 571 1280 549 q 1419 593 1355 593 q 1508 576 1465 593 q 1577 517 1550 560 q 1605 395 1605 475 l 1605 178 q 1598 116 1605 151 q 1573 50 1592 81 q 1518 -3 1554 18 q 1419 -23 1481 -23 m 1350 190 q 1359 113 1350 138 q 1384 81 1369 88 q 1419 75 1400 75 q 1454 81 1438 75 q 1480 113 1470 88 q 1489 190 1489 137 l 1489 380 q 1480 456 1489 433 q 1455 487 1470 480 q 1419 494 1439 494 q 1385 488 1401 494 q 1359 457 1369 481 q 1350 380 1350 433 l 1350 190 m 231 362 q 170 370 202 362 q 109 398 137 377 q 64 458 81 419 q 46 563 46 498 l 46 780 q 52 836 46 803 q 75 901 57 868 q 130 956 92 935 q 231 978 167 978 q 319 962 277 978 q 389 903 362 945 q 416 780 416 860 l 416 563 q 410 501 416 536 q 385 435 404 467 q 330 382 366 403 q 231 362 293 362 m 161 575 q 171 498 161 524 q 196 467 180 473 q 231 460 212 460 q 266 467 250 460 q 292 498 282 473 q 301 575 301 522 l 301 765 q 292 842 301 818 q 267 872 282 865 q 231 879 251 879 q 197 873 213 879 q 171 842 180 867 q 161 765 161 818 l 161 575 z "},"′":{"ha":311,"x_min":68,"x_max":248,"o":"m 68 802 l 107 979 l 248 979 l 175 802 l 68 802 z "},"″":{"ha":528,"x_min":68,"x_max":461,"o":"m 281 802 l 320 979 l 461 979 l 388 802 l 281 802 m 68 802 l 107 979 l 248 979 l 175 802 l 68 802 z "},"‹":{"ha":411,"x_min":31,"x_max":316,"o":"m 316 79 l 31 366 l 316 655 l 316 518 l 168 366 l 316 216 l 316 79 z "},"›":{"ha":427,"x_min":95,"x_max":380,"o":"m 95 79 l 95 216 l 244 366 l 95 518 l 95 655 l 380 366 l 95 79 z "},"⁄":{"ha":256,"x_min":-184,"x_max":442,"o":"m -184 0 l 339 962 l 442 962 l -81 0 l -184 0 z "},"⁰":{"ha":442,"x_min":37,"x_max":407,"o":"m 221 570 q 160 577 193 570 q 100 606 127 585 q 54 666 72 627 q 37 770 37 705 l 37 987 q 42 1043 37 1010 q 65 1109 47 1076 q 120 1164 83 1142 q 221 1185 157 1185 q 310 1169 267 1185 q 380 1110 353 1153 q 407 987 407 1067 l 407 770 q 401 709 407 743 q 376 642 395 674 q 320 590 357 610 q 221 570 283 570 m 152 783 q 161 706 152 731 q 186 674 171 681 q 221 667 202 667 q 256 674 240 667 q 282 705 273 681 q 292 783 292 730 l 292 972 q 282 1049 292 1025 q 257 1080 273 1073 q 221 1086 241 1086 q 187 1080 203 1086 q 161 1050 171 1074 q 152 972 152 1025 l 152 783 z "},"⁴":{"ha":449,"x_min":22,"x_max":429,"o":"m 258 578 l 258 682 l 22 682 l 22 769 l 208 1177 l 326 1177 l 144 781 l 258 781 l 258 929 l 368 929 l 368 781 l 429 781 l 429 682 l 368 682 l 368 578 l 258 578 z "},"⁵":{"ha":433,"x_min":37,"x_max":396,"o":"m 216 570 q 174 574 202 570 q 113 591 145 578 q 59 635 81 605 q 37 719 37 666 l 37 745 l 148 745 l 148 724 q 160 686 148 707 q 214 666 172 666 q 245 671 229 666 q 272 693 260 675 q 283 749 283 711 l 283 799 q 273 855 283 838 q 246 877 262 872 q 216 882 231 882 q 166 864 179 882 q 146 830 153 846 l 46 830 l 46 1177 l 387 1177 l 387 1080 l 152 1080 l 152 962 q 191 976 172 972 q 229 979 209 979 q 281 973 252 979 q 336 949 309 967 q 379 895 362 930 q 396 803 396 860 l 396 743 q 378 660 396 700 q 321 595 361 620 q 216 570 282 570 z "},"⁶":{"ha":445,"x_min":31,"x_max":414,"o":"m 222 570 q 134 588 178 570 q 60 646 90 606 q 31 747 31 685 l 31 773 q 38 826 31 792 q 71 906 45 860 l 217 1177 l 340 1177 l 217 945 q 230 948 224 948 q 243 948 236 948 q 365 904 316 948 q 414 777 414 860 l 414 749 q 359 617 414 665 q 222 570 305 570 m 148 746 q 153 715 148 734 q 173 681 157 696 q 222 666 189 666 q 278 686 258 666 q 298 745 298 707 l 298 772 q 294 802 298 783 q 275 836 290 821 q 222 852 259 852 q 193 846 212 852 q 161 825 175 841 q 148 773 148 808 l 148 746 z "},"⁷":{"ha":389,"x_min":16,"x_max":374,"o":"m 56 578 l 255 1078 l 16 1078 l 16 1177 l 374 1177 l 374 1092 l 174 578 l 56 578 z "},"⁸":{"ha":458,"x_min":37,"x_max":422,"o":"m 229 570 q 93 616 149 570 q 37 743 37 662 l 37 764 q 41 797 37 774 q 60 846 45 819 q 104 892 75 872 q 66 935 84 907 q 49 1008 49 963 l 49 1023 q 100 1140 49 1095 q 229 1185 152 1185 q 360 1140 309 1185 q 411 1023 411 1095 l 411 1008 q 400 953 411 985 q 354 894 389 921 q 378 873 362 888 q 408 831 395 857 q 422 765 422 804 l 422 743 q 366 615 422 661 q 229 570 309 570 m 229 666 q 284 686 260 666 q 308 745 308 705 l 308 765 q 303 794 308 776 q 282 827 298 812 q 229 842 266 842 q 175 823 199 842 q 151 765 151 804 l 151 745 q 172 688 151 709 q 229 666 194 666 m 229 939 q 279 958 260 939 q 297 1008 297 978 l 297 1024 q 281 1069 297 1050 q 229 1089 264 1089 q 178 1067 193 1089 q 164 1024 164 1046 l 164 1008 q 168 984 164 1001 q 184 953 171 967 q 229 939 198 939 z "},"⁹":{"ha":445,"x_min":31,"x_max":414,"o":"m 106 578 l 229 810 q 203 806 217 806 q 126 823 165 806 q 59 879 87 841 q 31 978 31 917 l 31 1006 q 83 1136 31 1086 q 222 1185 136 1185 q 311 1168 267 1185 q 385 1113 355 1152 q 414 1008 414 1074 l 414 981 q 406 922 414 951 q 374 849 397 894 l 228 578 l 106 578 m 146 982 q 151 954 146 972 q 172 919 156 935 q 222 903 189 903 q 251 908 233 903 q 283 929 269 913 q 298 981 298 945 l 298 1009 q 294 1040 298 1021 q 273 1074 289 1059 q 222 1089 256 1089 q 193 1084 212 1089 q 161 1063 175 1080 q 146 1009 146 1046 l 146 982 z "},"€":{"ha":755,"x_min":47,"x_max":671,"o":"m 407 -14 q 197 69 267 -14 q 127 292 127 152 l 127 347 l 47 347 l 47 438 l 127 438 l 127 528 l 47 528 l 47 617 l 127 617 l 127 677 q 199 891 127 810 q 407 972 270 972 q 591 911 524 972 q 667 742 659 850 l 556 742 q 508 831 544 802 q 407 861 472 861 q 289 811 326 861 q 252 677 252 761 l 252 617 l 533 617 l 517 528 l 252 528 l 252 438 l 500 438 l 484 347 l 252 347 l 252 290 q 290 148 252 201 q 410 95 327 95 q 557 217 534 95 l 671 217 q 591 46 662 106 q 407 -14 519 -14 z "},"™":{"ha":1133,"x_min":52,"x_max":1032,"o":"m 548 411 l 548 959 l 636 959 l 791 609 l 795 609 l 943 959 l 1032 959 l 1032 411 l 941 411 l 941 747 l 937 747 l 825 491 l 757 491 l 642 747 l 639 747 l 639 411 l 548 411 m 206 411 l 206 872 l 52 872 l 52 959 l 458 959 l 458 872 l 302 872 l 302 411 l 206 411 z "},"−":{"ha":719,"x_min":81,"x_max":637,"o":"m 81 425 l 81 538 l 637 538 l 637 425 l 81 425 z "},"∕":{"ha":256,"x_min":-184,"x_max":442,"o":"m -184 0 l 339 962 l 442 962 l -81 0 l -184 0 z "},"◌":{"ha":754,"x_min":69,"x_max":685,"o":"m 648 315 q 623 326 633 315 q 612 351 612 336 q 623 377 612 366 q 648 388 633 388 q 674 377 663 388 q 685 351 685 366 q 674 326 685 336 q 648 315 663 315 m 377 586 q 351 597 362 586 q 340 623 340 608 q 351 648 340 637 q 377 659 362 659 q 403 648 392 659 q 414 623 414 637 q 403 597 414 608 q 377 586 392 586 m 377 43 q 351 54 362 43 q 340 80 340 65 q 351 106 340 95 q 377 117 362 117 q 403 106 392 117 q 414 80 414 95 q 403 54 414 65 q 377 43 392 43 m 106 315 q 80 326 91 315 q 69 351 69 336 q 80 377 69 366 q 106 388 91 388 q 132 377 121 388 q 142 351 142 366 q 132 326 142 336 q 106 315 121 315 m 140 445 q 114 456 125 445 q 103 481 103 467 q 114 507 103 496 q 140 517 125 517 q 165 507 155 517 q 176 481 176 496 q 165 456 176 467 q 140 445 155 445 m 140 186 q 114 197 125 186 q 103 221 103 208 q 114 247 103 236 q 140 258 125 258 q 165 247 155 258 q 176 221 176 236 q 165 197 176 208 q 140 186 155 186 m 614 445 q 589 456 600 445 q 578 481 578 467 q 589 507 578 496 q 614 517 600 517 q 640 507 629 517 q 651 481 651 496 q 640 456 651 467 q 614 445 629 445 m 614 186 q 589 197 600 186 q 578 221 578 208 q 589 247 578 236 q 614 258 600 258 q 640 247 629 258 q 651 221 651 236 q 640 197 651 208 q 614 186 629 186 m 235 548 q 210 559 221 548 q 199 585 199 570 q 210 610 199 600 q 235 620 221 620 q 260 610 250 620 q 271 585 271 600 q 260 559 271 570 q 235 548 250 548 m 518 548 q 494 559 505 548 q 483 585 483 570 q 494 610 483 600 q 518 620 505 620 q 544 610 533 620 q 555 585 555 600 q 544 559 555 570 q 518 548 533 548 m 235 83 q 210 94 221 83 q 199 118 199 104 q 210 144 199 133 q 235 155 221 155 q 260 144 250 155 q 271 118 271 133 q 260 94 271 104 q 235 83 250 83 m 518 83 q 494 94 505 83 q 483 118 483 104 q 494 144 483 133 q 518 155 505 155 q 544 144 533 155 q 555 118 555 133 q 544 94 555 104 q 518 83 533 83 z "},"⸗":{"ha":719,"x_min":73,"x_max":646,"o":"m 111 369 l 73 476 l 608 671 l 646 564 l 111 369 m 111 96 l 73 202 l 608 396 l 646 290 l 111 96 z "},"ﬁ":{"ha":785,"x_min":61,"x_max":684,"o":"m 146 0 l 146 620 l 61 620 l 61 709 l 146 709 l 146 777 q 194 911 146 863 q 327 959 241 959 l 408 959 l 408 869 l 350 869 q 267 783 267 869 l 267 709 l 408 709 l 408 620 l 267 620 l 267 0 l 146 0 m 562 0 l 562 709 l 681 709 l 681 0 l 562 0 m 560 811 l 560 941 l 684 941 l 684 811 l 560 811 z "},"ﬂ":{"ha":842,"x_min":62,"x_max":811,"o":"m 148 0 l 148 620 l 62 620 l 62 709 l 148 709 l 148 777 q 195 911 148 863 q 328 959 243 959 l 410 959 l 410 869 l 351 869 q 269 783 269 869 l 269 709 l 410 709 l 410 620 l 269 620 l 269 0 l 148 0 m 741 0 q 601 51 650 0 q 552 197 552 102 l 552 959 l 671 959 l 671 203 q 691 130 671 152 q 754 107 711 107 l 811 107 l 811 0 l 741 0 z "}}}
